<svg xmlns="http://www.w3.org/2000/svg" xmlns:xlink="http://www.w3.org/1999/xlink" fill="none" version="1.1" width="24" height="24" viewBox="0 0 24 24"><defs><clipPath id="master_svg0_0_1478"><rect x="0" y="0" width="24" height="24" rx="0"/></clipPath></defs><g clip-path="url(#master_svg0_0_1478)"><g><path d="M20,12C20,16.418300000000002,16.418300000000002,20,12,20C12,20,12,22,12,22C17.5228,22,22,17.5228,22,12C22,12,20,12,20,12C20,12,20,12,20,12ZM12,20C7.58172,20,4,16.418300000000002,4,12C4,12,2,12,2,12C2,17.5228,6.47715,22,12,22C12,22,12,20,12,20C12,20,12,20,12,20ZM4,12C4,7.58172,7.58172,4,12,4C12,4,12,2,12,2C6.47715,2,2,6.47715,2,12C2,12,4,12,4,12C4,12,4,12,4,12ZM12,4C16.418300000000002,4,20,7.58172,20,12C20,12,22,12,22,12C22,6.47715,17.5228,2,12,2C12,2,12,4,12,4C12,4,12,4,12,4Z" fill="#FFFFFF" fill-opacity="1"/></g><g><path d="M8,11C7.447715,11,7,11.447715,7,12C7,12.55228,7.447715,13,8,13C8,13,8,11,8,11C8,11,8,11,8,11ZM16,13C16.55229,13,17,12.55228,17,12C17,11.447715,16.55229,11,16,11C16,11,16,13,16,13C16,13,16,13,16,13ZM8,13C8,13,16,13,16,13C16,13,16,11,16,11C16,11,8,11,8,11C8,11,8,13,8,13C8,13,8,13,8,13Z" fill="#FFFFFF" fill-opacity="1"/></g><g><path d="M11,16C11,16.55229,11.447716,17,12,17C12.55228,17,13,16.55228,13,16C13,16,11,16,11,16C11,16,11,16,11,16ZM13,8C13,7.447715,12.55228,7,12,7C11.447715,7,11,7.447715,11,8C11,8,13,8,13,8C13,8,13,8,13,8ZM13,16C13,16,13,8,13,8C13,8,11,8,11,8C11,8,11,16,11,16C11,16,13,16,13,16C13,16,13,16,13,16Z" fill="#FFFFFF" fill-opacity="1"/></g></g></svg>