<svg xmlns="http://www.w3.org/2000/svg" xmlns:xlink="http://www.w3.org/1999/xlink" fill="none" version="1.1" width="24" height="24" viewBox="0 0 24 24"><defs><clipPath id="master_svg0_0_321"><rect x="0" y="0" width="24" height="24" rx="0"/></clipPath></defs><g clip-path="url(#master_svg0_0_321)"><g><path d="M18,22C18,22,6,22,6,22C6,22,12,16,12,16C12,16,18,22,18,22C18,22,18,22,18,22ZM7,19C7,19,3,19,3,19C1.89543,19,1,18.104599999999998,1,17C1,17,1,5,1,5C1,3.89543,1.89543,3,3,3C3,3,21,3,21,3C22.1046,3,23,3.89543,23,5C23,5,23,17,23,17C23,18.104599999999998,22.1046,19,21,19C21,19,17,19,17,19C17,19,17,17,17,17C17,17,21,17,21,17C21,17,21,5,21,5C21,5,3,5,3,5C3,5,3,17,3,17C3,17,7,17,7,17C7,17,7,19,7,19C7,19,7,19,7,19Z" fill="#2E3A59" fill-opacity="1"/></g></g></svg>