<svg xmlns="http://www.w3.org/2000/svg" xmlns:xlink="http://www.w3.org/1999/xlink" fill="none" version="1.1" width="24" height="24" viewBox="0 0 24 24"><defs><clipPath id="master_svg0_0_8965"><rect x="0" y="0" width="24" height="24" rx="0"/></clipPath></defs><g clip-path="url(#master_svg0_0_8965)"><g><g><path d="M3.452651,22.8369C3.735087,23.0216,4.09164,23.0514,4.4008199999999995,22.9162C4.4008199999999995,22.9162,12,19.5915,12,19.5915C12,19.5915,19.5992,22.9162,19.5992,22.9162C19.9084,23.0514,20.2649,23.0216,20.5473,22.8369C20.8298,22.6522,21,22.3375,21,22C21,22,21,4,21,4C21,2.34315,19.6569,1,18,1C18,1,6,1,6,1C4.34315,1,3,2.34315,3,4C3,4,3,22,3,22C3,22.3375,3.170216,22.6522,3.452651,22.8369ZM19,4C19,4,19,20.471,19,20.471C19,20.471,12.40082,17.5838,12.40082,17.5838C12.1453,17.4721,11.8547,17.4721,11.59918,17.5838C11.59918,17.5838,5,20.471,5,20.471C5,20.471,5,4,5,4C5,3.44772,5.44772,3,6,3C6,3,18,3,18,3C18.552300000000002,3,19,3.44772,19,4Z" fill-rule="evenodd" fill="#000000" fill-opacity="1"/></g></g></g></svg>