<svg xmlns="http://www.w3.org/2000/svg" xmlns:xlink="http://www.w3.org/1999/xlink" fill="none" version="1.1" width="24" height="24" viewBox="0 0 24 24"><defs><clipPath id="master_svg0_0_236"><rect x="0" y="0" width="24" height="24" rx="0"/></clipPath></defs><g clip-path="url(#master_svg0_0_236)"><g><path d="M7.72609,17.219099999999997C7.72609,17.219099999999997,8.35078,18,8.35078,18C8.35078,18,8.35078,18,8.35078,18C8.35078,18,7.72609,17.219099999999997,7.72609,17.219099999999997C7.72609,17.219099999999997,7.72609,17.219099999999997,7.72609,17.219099999999997ZM4.6247,19.700200000000002C4.6247,19.700200000000002,5.24939,20.4811,5.24939,20.4811C5.24939,20.4811,5.24939,20.4811,5.24939,20.4811C5.24939,20.4811,4.6247,19.700200000000002,4.6247,19.700200000000002C4.6247,19.700200000000002,4.6247,19.700200000000002,4.6247,19.700200000000002ZM4,6C4,6,20,6,20,6C20,6,20,4,20,4C20,4,4,4,4,4C4,4,4,6,4,6C4,6,4,6,4,6ZM20,6C20,6,20,16,20,16C20,16,22,16,22,16C22,16,22,6,22,6C22,6,20,6,20,6C20,6,20,6,20,6ZM20,16C20,16,8.35078,16,8.35078,16C8.35078,16,8.35078,18,8.35078,18C8.35078,18,20,18,20,18C20,18,20,16,20,16C20,16,20,16,20,16ZM7.10139,16.438299999999998C7.10139,16.438299999999998,4,18.9194,4,18.9194C4,18.9194,5.24939,20.4811,5.24939,20.4811C5.24939,20.4811,8.35078,18,8.35078,18C8.35078,18,7.10139,16.438299999999998,7.10139,16.438299999999998C7.10139,16.438299999999998,7.10139,16.438299999999998,7.10139,16.438299999999998ZM4,18.9194C4,18.9194,4,6,4,6C4,6,2,6,2,6C2,6,2,18.9194,2,18.9194C2,18.9194,4,18.9194,4,18.9194C4,18.9194,4,18.9194,4,18.9194ZM4,18.9194C4,18.9194,4,18.9194,4,18.9194C4,18.9194,2,18.9194,2,18.9194C2,20.5964,3.93986,21.5287,5.24939,20.4811C5.24939,20.4811,4,18.9194,4,18.9194C4,18.9194,4,18.9194,4,18.9194ZM8.35078,16C7.89664,16,7.45602,16.154600000000002,7.10139,16.438299999999998C7.10139,16.438299999999998,8.35078,18,8.35078,18C8.35078,18,8.35078,18,8.35078,18C8.35078,18,8.35078,16,8.35078,16C8.35078,16,8.35078,16,8.35078,16ZM20,16C20,16,20,18,20,18C21.1046,18,22,17.104599999999998,22,16C22,16,20,16,20,16C20,16,20,16,20,16ZM20,6C20,6,22,6,22,6C22,4.89543,21.1046,4,20,4C20,4,20,6,20,6C20,6,20,6,20,6ZM4,4C2.895431,4,2,4.895431,2,6C2,6,4,6,4,6C4,6,4,4,4,4C4,4,4,4,4,4Z" fill="#FFFFFF" fill-opacity="1"/></g></g></svg>