<svg xmlns="http://www.w3.org/2000/svg" xmlns:xlink="http://www.w3.org/1999/xlink" fill="none" version="1.1" width="24" height="24" viewBox="0 0 24 24"><defs><clipPath id="master_svg0_0_880"><rect x="0" y="0" width="24" height="24" rx="0"/></clipPath></defs><g clip-path="url(#master_svg0_0_880)"><g><path d="M8.707110953674317,11.292893297119141C8.316580953674316,10.90237329711914,7.683416953674317,10.90237329711914,7.292892953674317,11.292893297119141C6.902370253674317,11.683423297119141,6.902370253674317,12.316583297119141,7.292892953674317,12.70711329711914C7.292892953674317,12.70711329711914,8.707110953674317,11.292893297119141,8.707110953674317,11.292893297119141C8.707110953674317,11.292893297119141,8.707110953674317,11.292893297119141,8.707110953674317,11.292893297119141ZM11.000000953674316,15.00000329711914C11.000000953674316,15.00000329711914,10.292890953674316,15.70711329711914,10.292890953674316,15.70711329711914C10.491560953674316,15.90578329711914,10.764640953674316,16.01170329711914,11.045310953674317,15.99897329711914C11.325990953674317,15.986243297119142,11.588350953674317,15.85602329711914,11.768220953674316,15.64018329711914C11.768220953674316,15.64018329711914,11.000000953674316,15.00000329711914,11.000000953674316,15.00000329711914C11.000000953674316,15.00000329711914,11.000000953674316,15.00000329711914,11.000000953674316,15.00000329711914ZM16.768220953674316,9.64018329711914C17.121800953674317,9.21590329711914,17.06450095367432,8.58534229711914,16.640180953674317,8.23177829711914C16.215910953674317,7.878209297119141,15.585340953674317,7.935539797119141,15.231780953674317,8.359815297119141C15.231780953674317,8.359815297119141,16.768220953674316,9.64018329711914,16.768220953674316,9.64018329711914C16.768220953674316,9.64018329711914,16.768220953674316,9.64018329711914,16.768220953674316,9.64018329711914ZM7.292892953674317,12.70711329711914C7.292892953674317,12.70711329711914,10.292890953674316,15.70711329711914,10.292890953674316,15.70711329711914C10.292890953674316,15.70711329711914,11.707110953674317,14.29289329711914,11.707110953674317,14.29289329711914C11.707110953674317,14.29289329711914,8.707110953674317,11.292893297119141,8.707110953674317,11.292893297119141C8.707110953674317,11.292893297119141,7.292892953674317,12.70711329711914,7.292892953674317,12.70711329711914C7.292892953674317,12.70711329711914,7.292892953674317,12.70711329711914,7.292892953674317,12.70711329711914ZM11.768220953674316,15.64018329711914C11.768220953674316,15.64018329711914,16.768220953674316,9.64018329711914,16.768220953674316,9.64018329711914C16.768220953674316,9.64018329711914,15.231780953674317,8.359815297119141,15.231780953674317,8.359815297119141C15.231780953674317,8.359815297119141,10.231780953674317,14.35982329711914,10.231780953674317,14.35982329711914C10.231780953674317,14.35982329711914,11.768220953674316,15.64018329711914,11.768220953674316,15.64018329711914C11.768220953674316,15.64018329711914,11.768220953674316,15.64018329711914,11.768220953674316,15.64018329711914Z" fill="#FFFFFF" fill-opacity="1"/></g><g><path d="M5,5C5,5,19,5,19,5C19,5,19,3,19,3C19,3,5,3,5,3C5,3,5,5,5,5C5,5,5,5,5,5ZM19,5C19,5,19,19,19,19C19,19,21,19,21,19C21,19,21,5,21,5C21,5,19,5,19,5C19,5,19,5,19,5ZM19,19C19,19,5,19,5,19C5,19,5,21,5,21C5,21,19,21,19,21C19,21,19,19,19,19C19,19,19,19,19,19ZM5,19C5,19,5,5,5,5C5,5,3,5,3,5C3,5,3,19,3,19C3,19,5,19,5,19C5,19,5,19,5,19ZM5,19C5,19,3,19,3,19C3,20.1046,3.89543,21,5,21C5,21,5,19,5,19C5,19,5,19,5,19ZM19,19C19,19,19,21,19,21C20.1046,21,21,20.1046,21,19C21,19,19,19,19,19C19,19,19,19,19,19ZM19,5C19,5,21,5,21,5C21,3.89543,20.1046,3,19,3C19,3,19,5,19,5C19,5,19,5,19,5ZM5,3C3.895431,3,3,3.895431,3,5C3,5,5,5,5,5C5,5,5,3,5,3C5,3,5,3,5,3Z" fill="#FFFFFF" fill-opacity="1"/></g></g></svg>