<svg xmlns="http://www.w3.org/2000/svg" xmlns:xlink="http://www.w3.org/1999/xlink" fill="none" version="1.1" width="24" height="24" viewBox="0 0 24 24"><defs><clipPath id="master_svg0_0_474"><rect x="0" y="0" width="24" height="24" rx="0"/></clipPath></defs><g clip-path="url(#master_svg0_0_474)"><g><path d="M15.9002,9.00098C15.9002,9.00098,14.9201,9.19971,14.9201,9.19971C15.0161,9.67312,15.4368,10.01024,15.9198,10.00079C15.9198,10.00079,15.9002,9.00098,15.9002,9.00098C15.9002,9.00098,15.9002,9.00098,15.9002,9.00098ZM6.12071,11.09695C6.12071,11.09695,6.33958,12.07271,6.33958,12.07271C6.8783,11.95187,7.21716,11.417290000000001,7.09656,10.87852C7.09656,10.87852,6.12071,11.09695,6.12071,11.09695C6.12071,11.09695,6.12071,11.09695,6.12071,11.09695ZM7,18C5.34315,18,4,16.6569,4,15C4,15,2,15,2,15C2,17.761400000000002,4.23858,20,7,20C7,20,7,18,7,18C7,18,7,18,7,18ZM16,18C16,18,7,18,7,18C7,18,7,20,7,20C7,20,16,20,16,20C16,20,16,18,16,18C16,18,16,18,16,18ZM20,14C20,16.2091,18.2091,18,16,18C16,18,16,20,16,20C19.3137,20,22,17.3137,22,14C22,14,20,14,20,14C20,14,20,14,20,14ZM16,10C18.2091,10,20,11.79086,20,14C20,14,22,14,22,14C22,10.68629,19.3137,8,16,8C16,8,16,10,16,10C16,10,16,10,16,10ZM15.9198,10.00079C15.9465,10.00026,15.9732,10,16,10C16,10,16,8,16,8C15.9601,8,15.9203,8.00039,15.8806,8.00117C15.8806,8.00117,15.9198,10.00079,15.9198,10.00079C15.9198,10.00079,15.9198,10.00079,15.9198,10.00079ZM11,6C12.9343,6,14.5499,7.37395,14.9201,9.19971C14.9201,9.19971,16.880200000000002,8.802240000000001,16.880200000000002,8.802240000000001C16.3247,6.06255,13.9043,4,11,4C11,4,11,6,11,6C11,6,11,6,11,6ZM7,10C7,7.79086,8.79086,6,11,6C11,6,11,4,11,4C7.68629,4,5,6.68629,5,10C5,10,7,10,7,10C7,10,7,10,7,10ZM7.09656,10.87852C7.03348,10.59674,7,10.30288,7,10C7,10,5,10,5,10C5,10.45081,5.0498899999999995,10.89116,5.1448599999999995,11.31539C5.1448599999999995,11.31539,7.09656,10.87852,7.09656,10.87852C7.09656,10.87852,7.09656,10.87852,7.09656,10.87852ZM4,15C4,13.57096,5.00015,12.37315,6.33958,12.07271C6.33958,12.07271,5.90184,10.1212,5.90184,10.1212C3.66898,10.62205,2,12.61493,2,15C2,15,4,15,4,15C4,15,4,15,4,15Z" fill="#111827" fill-opacity="1"/></g></g></svg>