<svg xmlns="http://www.w3.org/2000/svg" xmlns:xlink="http://www.w3.org/1999/xlink" fill="none" version="1.1" width="24" height="24" viewBox="0 0 24 24"><defs><clipPath id="master_svg0_0_8440"><rect x="0" y="0" width="24" height="24" rx="0"/></clipPath></defs><g clip-path="url(#master_svg0_0_8440)"><g><g><path d="M5,21.5C5,21.5,5.33726,21.5,5.33726,21.5C6.71642,21.5,7.9983,20.7895,8.72925,19.619999999999997C8.72925,19.619999999999997,9.7605,17.97,9.7605,17.97C9.94324,17.677599999999998,10.26371,17.5,10.6085,17.5C10.6085,17.5,13,17.5,13,17.5C13.3148,17.5,13.6111,17.6482,13.8,17.9C13.8,17.9,15.3,19.9,15.3,19.9C16.0554,20.9072,17.241,21.5,18.5,21.5C18.5,21.5,19,21.5,19,21.5C21.2091,21.5,23,19.7091,23,17.5C23,17.5,23,10.5,23,10.5C23,7.73858,20.7614,5.5,18,5.5C18,5.5,6,5.5,6,5.5C3.23858,5.5,1,7.73858,1,10.5C1,10.5,1,17.5,1,17.5C1,19.7091,2.79086,21.5,5,21.5ZM21,10.5C21,10.5,21,17.5,21,17.5C21,18.604599999999998,20.1046,19.5,19,19.5C19,19.5,18.5,19.5,18.5,19.5C17.8705,19.5,17.2777,19.2036,16.9,18.7C16.9,18.7,15.4,16.7,15.4,16.7C14.8334,15.9446,13.9443,15.5,13,15.5C13,15.5,10.6085,15.5,10.6085,15.5C9.57413,15.5,8.61272,16.032899999999998,8.064499999999999,16.91C8.064499999999999,16.91,7.03325,18.560000000000002,7.03325,18.560000000000002C6.66778,19.1448,6.02684,19.5,5.33726,19.5C5.33726,19.5,5,19.5,5,19.5C3.89543,19.5,3,18.604599999999998,3,17.5C3,17.5,3,10.5,3,10.5C3,8.84315,4.34315,7.5,6,7.5C6,7.5,18,7.5,18,7.5C19.6569,7.5,21,8.84315,21,10.5Z" fill-rule="evenodd" fill="#000000" fill-opacity="1"/></g><g><path d="M4.5,11.5C4.5,11.5,4.5,13.5,4.5,13.5C4.5,13.5,9.5,13.5,9.5,13.5C9.5,13.5,9.5,11.5,9.5,11.5C9.5,11.5,4.5,11.5,4.5,11.5Z" fill-rule="evenodd" fill="#000000" fill-opacity="1"/></g><g transform="matrix(0,-1,1,0,-9,21)"><path d="M6,15C6,15,6,17,6,17C6,17,11,17,11,17C11,17,11,15,11,15C11,15,6,15,6,15Z" fill-rule="evenodd" fill="#000000" fill-opacity="1"/></g><g><path d="M11,6.5C11,6.5,13,6.5,13,6.5C13,6.5,13,3.5,13,3.5C13,3.5,11,3.5,11,3.5C11,3.5,11,6.5,11,6.5Z" fill-rule="evenodd" fill="#000000" fill-opacity="1"/></g><g><path d="M15.5,13C15.5,13,15.5,15,15.5,15C15.5,15,17.5,15,17.5,15C17.5,15,17.5,13,17.5,13C17.5,13,15.5,13,15.5,13Z" fill-rule="evenodd" fill="#000000" fill-opacity="1"/></g><g><path d="M17.5,10C17.5,10,17.5,12,17.5,12C17.5,12,19.5,12,19.5,12C19.5,12,19.5,10,19.5,10C19.5,10,17.5,10,17.5,10Z" fill-rule="evenodd" fill="#000000" fill-opacity="1"/></g></g></g></svg>