<svg xmlns="http://www.w3.org/2000/svg" xmlns:xlink="http://www.w3.org/1999/xlink" fill="none" version="1.1" width="24" height="24" viewBox="0 0 24 24"><defs><clipPath id="master_svg0_0_8343"><rect x="0" y="0" width="24" height="24" rx="0"/></clipPath></defs><g clip-path="url(#master_svg0_0_8343)"><g><g><path d="M11,9.5C11,14.0347,14.1772,17.8273,18.4269,18.7731C16.843,20.1605,14.7696,21,12.5,21C7.52944,21,3.5,16.970599999999997,3.5,12C3.5,7.02944,7.52944,3,12.5,3C12.8447,3,13.1847,3.01933,13.5189,3.05695C11.9562,4.74952,11,7.01304,11,9.5ZM21.3003,18.6006C21.5279,18.2976,21.5646,17.8921,21.3953,17.5531C21.226,17.2141,20.8789,17,20.5,17C16.3579,17,13,13.6421,13,9.5C13,6.94482,14.2769,4.68769,16.2319,3.33197C16.543,3.11618,16.7056,2.74313,16.651899999999998,2.36829C16.598100000000002,1.993443,16.3373,1.6811129999999999,15.978,1.561458C14.8836,1.196968,13.7138,1,12.5,1C6.42487,1,1.5,5.92487,1.5,12C1.5,18.0751,6.42487,23,12.5,23C16.0994,23,19.2951,21.2701,21.3003,18.6006Z" fill-rule="evenodd" fill="#000000" fill-opacity="1"/></g></g></g></svg>