<svg xmlns="http://www.w3.org/2000/svg" xmlns:xlink="http://www.w3.org/1999/xlink" fill="none" version="1.1" width="24" height="24" viewBox="0 0 24 24"><defs><clipPath id="master_svg0_0_5926"><rect x="0" y="0" width="24" height="24" rx="0"/></clipPath></defs><g clip-path="url(#master_svg0_0_5926)"><g><g><path d="M1.739316,17.2718Q2.475064,18,3.51052,18L12,18L20.4895,18Q21.5249,18,22.2607,17.2718Q23,16.54,23,15.5044L23,4.4956Q23,3.459977,22.2607,2.728222Q21.5249,2,20.4895,2L12,2L3.51052,2Q2.475065,2,1.739316,2.728222Q1,3.459975,1,4.4956L1,15.5044Q1,16.54,1.739316,17.2718ZM12,17L3.51052,17Q2.8862699999999997,17,2.442779,16.561Q2,16.122799999999998,2,15.5044L2,4.4956Q2,3.8772,2.442778,3.438955Q2.8862699999999997,3,3.51052,3L12,3L20.4895,3Q21.1137,3,21.5572,3.438955Q22,3.8772,22,4.4956L22,15.5044Q22,16.122799999999998,21.5572,16.561Q21.1137,17,20.4895,17L12,17Z" fill-rule="evenodd" fill="#000000" fill-opacity="1"/></g><g><path d="M11.5,21.5L11.5,17.5L12.5,17.5L12.5,21.5L11.5,21.5Z" fill-rule="evenodd" fill="#000000" fill-opacity="1"/></g><g><path d="M16,22L8,22L8,21L16,21L16,22Z" fill-rule="evenodd" fill="#000000" fill-opacity="1"/></g></g></g></svg>