<svg xmlns="http://www.w3.org/2000/svg" xmlns:xlink="http://www.w3.org/1999/xlink" fill="none" version="1.1" width="24" height="24" viewBox="0 0 24 24"><defs><clipPath id="master_svg0_0_8660"><rect x="0" y="0" width="24" height="24" rx="0"/></clipPath></defs><g clip-path="url(#master_svg0_0_8660)"><g><g><path d="M3.5,18.5C3.5,18.5,20.5,18.5,20.5,18.5C22.1569,18.5,23.5,17.1569,23.5,15.5C23.5,15.5,23.5,4.5,23.5,4.5C23.5,2.84315,22.1569,1.5,20.5,1.5C20.5,1.5,3.5,1.5,3.5,1.5C1.84315,1.5,0.5,2.84315,0.5,4.5C0.5,4.5,0.5,15.5,0.5,15.5C0.5,17.1569,1.84315,18.5,3.5,18.5ZM21.5,4.5C21.5,4.5,21.5,15.5,21.5,15.5C21.5,16.052300000000002,21.0523,16.5,20.5,16.5C20.5,16.5,3.5,16.5,3.5,16.5C2.94772,16.5,2.5,16.052300000000002,2.5,15.5C2.5,15.5,2.5,4.5,2.5,4.5C2.5,3.94772,2.94772,3.5,3.5,3.5C3.5,3.5,20.5,3.5,20.5,3.5C21.0523,3.5,21.5,3.94772,21.5,4.5Z" fill-rule="evenodd" fill="#000000" fill-opacity="1"/></g><g><path d="M6,20.5C6,20.5,6,22.5,6,22.5C6,22.5,18,22.5,18,22.5C18,22.5,18,20.5,18,20.5C18,20.5,6,20.5,6,20.5Z" fill-rule="evenodd" fill="#000000" fill-opacity="1"/></g><g><path d="M1.5,13C1.5,13,1.5,15,1.5,15C1.5,15,22.5,15,22.5,15C22.5,15,22.5,13,22.5,13C22.5,13,1.5,13,1.5,13Z" fill-rule="evenodd" fill="#000000" fill-opacity="1"/></g><g><path d="M9,22.5C9,22.5,15,22.5,15,22.5C15.55228,22.5,16,22.05228,16,21.5C16,21.5,16,17.5,16,17.5C16,16.947715,15.55228,16.5,15,16.5C15,16.5,9,16.5,9,16.5C8.447715,16.5,8,16.947715,8,17.5C8,17.5,8,21.5,8,21.5C8,22.05228,8.447715,22.5,9,22.5ZM14,20.5C14,20.5,10,20.5,10,20.5C10,20.5,10,18.5,10,18.5C10,18.5,14,18.5,14,18.5C14,18.5,14,20.5,14,20.5Z" fill-rule="evenodd" fill="#000000" fill-opacity="1"/></g></g></g></svg>