<svg xmlns="http://www.w3.org/2000/svg" xmlns:xlink="http://www.w3.org/1999/xlink" fill="none" version="1.1" width="24" height="24" viewBox="0 0 24 24"><defs><clipPath id="master_svg0_0_9047"><rect x="0" y="0" width="24" height="24" rx="0"/></clipPath></defs><g clip-path="url(#master_svg0_0_9047)"><g><g><path d="M12.91094,3.24074C12.91094,3.24074,18.6508,8.16061,18.6508,8.16061C18.8724,8.3506,19,8.627939999999999,19,8.91987C19,8.91987,19,20,19,20C19,20.5523,18.552300000000002,21,18,21C18,21,6,21,6,21C5.44772,21,5,20.5523,5,20C5,20,5,4,5,4C5,3.44772,5.44772,3,6,3C6,3,12.26015,3,12.26015,3C12.49886,3,12.7297,3.08539,12.91094,3.24074ZM6,23C6,23,18,23,18,23C19.6569,23,21,21.6569,21,20C21,20,21,8.91987,21,8.91987C21,8.0441,20.6173,7.21205,19.9524,6.6421C19.9524,6.6421,14.2125,1.7222300000000001,14.2125,1.7222300000000001C13.6688,1.256177,12.97629,1,12.26015,1C12.26015,1,6,1,6,1C4.34315,1,3,2.34315,3,4C3,4,3,20,3,20C3,21.6569,4.34315,23,6,23Z" fill-rule="evenodd" fill="#000000" fill-opacity="1"/></g><g><path d="M19.5,9C19.5,9,19.5,7,19.5,7C19.5,7,15,7,15,7C14.44772,7,14,6.55228,14,6C14,6,14,2.5,14,2.5C14,2.5,12,2.5,12,2.5C12,2.5,12,6,12,6C12,7.65685,13.34315,9,15,9C15,9,19.5,9,19.5,9Z" fill-rule="evenodd" fill="#000000" fill-opacity="1"/></g><g><path d="M7,11C7,11,7,13,7,13C7,13,15,13,15,13C15,13,15,11,15,11C15,11,7,11,7,11Z" fill-rule="evenodd" fill="#000000" fill-opacity="1"/></g><g><path d="M7,14C7,14,7,16,7,16C7,16,11.5,16,11.5,16C11.5,16,11.5,14,11.5,14C11.5,14,7,14,7,14Z" fill-rule="evenodd" fill="#000000" fill-opacity="1"/></g><g><path d="M7,17C7,17,7,19,7,19C7,19,14,19,14,19C14,19,14,17,14,17C14,17,7,17,7,17Z" fill-rule="evenodd" fill="#000000" fill-opacity="1"/></g></g></g></svg>