<svg xmlns="http://www.w3.org/2000/svg" xmlns:xlink="http://www.w3.org/1999/xlink" fill="none" version="1.1" width="24" height="24" viewBox="0 0 24 24"><defs><clipPath id="master_svg0_0_8767"><rect x="0" y="0" width="24" height="24" rx="0"/></clipPath></defs><g clip-path="url(#master_svg0_0_8767)"><g><g><path d="M3.0298587771325307,13.757499940395356C3.0298587771325307,13.757499940395356,2.029857477132531,17.757499940395356,2.029857477132531,17.757499940395356C1.944663777132531,18.098199940395354,2.044512877132531,18.458699940395356,2.292892777132531,18.707099940395356C2.541273777132531,18.955499940395356,2.901760777132531,19.055299940395354,3.2425387771325314,18.970099940395354C3.2425387771325314,18.970099940395354,7.242538777132531,17.970099940395354,7.242538777132531,17.970099940395354C7.418368777132531,17.926199940395357,7.578948777132531,17.835299940395355,7.7071087771325315,17.707099940395356C7.7071087771325315,17.707099940395356,19.70707877713253,5.707109940395355,19.70707877713253,5.707109940395355C20.09767877713253,5.316579940395355,20.09767877713253,4.683419940395355,19.70707877713253,4.292889940395355C19.70707877713253,4.292889940395355,16.70707877713253,1.2928929403953553,16.70707877713253,1.2928929403953553C16.31657877713253,0.9023688403953553,15.683378777132532,0.9023688403953553,15.29287877713253,1.2928929403953553C15.29287877713253,1.2928929403953553,3.2928887771325313,13.292899940395355,3.2928887771325313,13.292899940395355C3.164738777132531,13.421099940395354,3.073818777132531,13.581599940395355,3.0298587771325307,13.757499940395356ZM17.585778777132532,4.999999940395355C17.585778777132532,4.999999940395355,6.488748777132531,16.096999940395357,6.488748777132531,16.096999940395357C6.488748777132531,16.096999940395357,4.374368777132531,16.625599940395354,4.374368777132531,16.625599940395354C4.374368777132531,16.625599940395354,4.902968777132531,14.511199940395356,4.902968777132531,14.511199940395356C4.902968777132531,14.511199940395356,15.999978777132531,3.4142099403953554,15.999978777132531,3.4142099403953554C15.999978777132531,3.4142099403953554,17.585778777132532,4.999999940395355,17.585778777132532,4.999999940395355Z" fill-rule="evenodd" fill="#000000" fill-opacity="1"/></g><g><path d="M1.999999972702426,20C1.999999972702426,20,1.999999972702426,22,1.999999972702426,22C1.999999972702426,22,21.999999972702426,22,21.999999972702426,22C21.999999972702426,22,21.999999972702426,20,21.999999972702426,20C21.999999972702426,20,1.999999972702426,20,1.999999972702426,20Z" fill-rule="evenodd" fill="#000000" fill-opacity="1"/></g></g></g></svg>