<svg xmlns="http://www.w3.org/2000/svg" xmlns:xlink="http://www.w3.org/1999/xlink" fill="none" version="1.1" width="24" height="24" viewBox="0 0 24 24"><g><g><path d="M10.335735302581787,6.3431220054626465C10.335735302581787,6.757332005462646,9.999945302581787,7.0931220054626465,9.585735302581787,7.0931220054626465C9.585735302581787,7.0931220054626465,7.093095302581787,7.0931220054626465,7.093095302581787,7.0931220054626465C7.093095302581787,7.0931220054626465,7.093095302581787,9.585762005462646,7.093095302581787,9.585762005462646C7.093095302581787,9.999972005462647,6.757305302581787,10.335762005462646,6.343095302581787,10.335762005462646C5.928882302581787,10.335762005462646,5.593095436253787,9.999972005462647,5.593095302581787,9.585762005462646C5.593095302581787,9.585762005462646,5.593096260801787,6.3431220054626465,5.593096260801787,6.3431220054626465C5.5930963378617875,5.928908005462646,5.928882302581787,5.593122139134646,6.343096302581787,5.5931220897563465C6.343096302581787,5.5931220897563465,9.585735302581787,5.5931223947006465,9.585735302581787,5.5931223947006465C9.999955302581787,5.5931223031756465,10.335735302581787,5.928909005462646,10.335735302581787,6.3431220054626465C10.335735302581787,6.3431220054626465,10.335735302581787,6.3431220054626465,10.335735302581787,6.3431220054626465ZM6.343122302581787,13.664202005462647C6.757335302581787,13.664202005462647,7.093125302581787,13.999992005462646,7.093125302581787,14.414202005462647C7.093125302581787,14.414202005462647,7.093125302581787,16.906822005462647,7.093125302581787,16.906822005462647C7.093125302581787,16.906822005462647,9.585765302581787,16.906822005462647,9.585765302581787,16.906822005462647C9.999975302581788,16.906822005462647,10.335765302581787,17.242622005462646,10.335765302581787,17.656822005462647C10.335765302581787,18.071022005462645,9.999975302581788,18.406822005462647,9.585765302581787,18.406822005462647C9.585765302581787,18.406822005462647,6.343122302581787,18.406822005462647,6.343122302581787,18.406822005462647C5.928908302581787,18.406822005462647,5.593122292881787,18.071022005462645,5.5931222085817875,17.656822005462647C5.5931222085817875,17.656822005462647,5.5931222401817875,14.414202005462647,5.5931222401817875,14.414202005462647C5.593122113781787,13.999992005462646,5.928908302581787,13.664202005462647,6.343122302581787,13.664202005462647C6.343122302581787,13.664202005462647,6.343122302581787,13.664202005462647,6.343122302581787,13.664202005462647ZM13.664205302581786,6.3431220054626465C13.664205302581786,6.757332005462646,13.999985302581788,7.0931220054626465,14.414205302581786,7.0931220054626465C14.414205302581786,7.0931220054626465,16.906795302581788,7.0931220054626465,16.906795302581788,7.0931220054626465C16.906795302581788,7.0931220054626465,16.906795302581788,9.585762005462646,16.906795302581788,9.585762005462646C16.906795302581788,9.999972005462647,17.242595302581787,10.335762005462646,17.656795302581788,10.335762005462646C18.07109530258179,10.335762005462646,18.406795302581788,9.999972005462647,18.406795302581788,9.585762005462646C18.406795302581788,9.585762005462646,18.406795302581788,6.343123005462647,18.406795302581788,6.343123005462647C18.406795302581788,5.928909005462646,18.07109530258179,5.593122808937647,17.656795302581788,5.593122689728647C17.656795302581788,5.593122689728647,14.414205302581786,5.5931220054626785,14.414205302581786,5.5931220054626785C13.999985302581788,5.5931218862536465,13.664205302581786,5.928908005462646,13.664205302581786,6.3431220054626465C13.664205302581786,6.3431220054626465,13.664205302581786,6.3431220054626465,13.664205302581786,6.3431220054626465ZM17.656795302581788,13.664202005462647C17.242595302581787,13.664202005462647,16.906795302581788,13.999992005462646,16.906795302581788,14.414202005462647C16.906795302581788,14.414202005462647,16.906795302581788,16.906822005462647,16.906795302581788,16.906822005462647C16.906795302581788,16.906822005462647,14.414175302581787,16.906822005462647,14.414175302581787,16.906822005462647C13.999965302581787,16.906822005462647,13.664175302581787,17.242622005462646,13.664175302581787,17.656822005462647C13.664175302581787,18.071022005462645,13.999965302581787,18.406822005462647,14.414175302581787,18.406822005462647C14.414175302581787,18.406822005462647,17.656795302581788,18.406822005462647,17.656795302581788,18.406822005462647C18.070995302581785,18.406822005462647,18.406795302581788,18.071022005462645,18.406795302581788,17.656822005462647C18.406795302581788,17.656822005462647,18.406795302581788,14.414202005462647,18.406795302581788,14.414202005462647C18.406795302581788,13.999992005462646,18.070995302581785,13.664202005462647,17.656795302581788,13.664202005462647C17.656795302581788,13.664202005462647,17.656795302581788,13.664202005462647,17.656795302581788,13.664202005462647Z" fill-rule="evenodd" fill="#000000" fill-opacity="1"/></g></g></svg>