<svg xmlns="http://www.w3.org/2000/svg" xmlns:xlink="http://www.w3.org/1999/xlink" fill="none" version="1.1" width="246" height="246" viewBox="0 0 246 246"><defs><clipPath id="master_svg0_0_2576"><rect x="0" y="0" width="246" height="246" rx="0"/></clipPath><filter id="master_svg1_0_2579" filterUnits="objectBoundingBox" color-interpolation-filters="sRGB" x="0" y="0" width="246" height="246"><feFlood flood-opacity="0" result="BackgroundImageFix"/><feBlend mode="normal" in="SourceGraphic" in2="BackgroundImageFix" result="shape"/><feColorMatrix in="SourceAlpha" type="matrix" result="hardAlpha" values="0 0 0 0 0 0 0 0 0 0 0 0 0 0 0 0 0 0 127 0"/><feOffset dy="16" dx="-11"/><feGaussianBlur stdDeviation="15.5"/><feComposite in2="hardAlpha" operator="arithmetic" k2="-1" k3="1"/><feColorMatrix type="matrix" values="0 0 0 0 1 0 0 0 0 1 0 0 0 0 1 0 0 0 0.5899999737739563 0"/><feBlend mode="normal" in2="shape" result="effect1_innerShadow"/><feColorMatrix in="SourceAlpha" type="matrix" result="hardAlpha" values="0 0 0 0 0 0 0 0 0 0 0 0 0 0 0 0 0 0 127 0"/><feOffset dy="-18" dx="0"/><feGaussianBlur stdDeviation="15.5"/><feComposite in2="hardAlpha" operator="arithmetic" k2="-1" k3="1"/><feColorMatrix type="matrix" values="0 0 0 0 0.9436388611793518 0 0 0 0 0.22361111640930176 0 0 0 0 0.9583333134651184 0 0 0 0.4399999976158142 0"/><feBlend mode="normal" in2="effect1_innerShadow" result="effect2_innerShadow"/><feColorMatrix in="SourceAlpha" type="matrix" result="hardAlpha" values="0 0 0 0 0 0 0 0 0 0 0 0 0 0 0 0 0 0 127 0"/><feOffset dy="13" dx="21"/><feGaussianBlur stdDeviation="24"/><feComposite in2="hardAlpha" operator="arithmetic" k2="-1" k3="1"/><feColorMatrix type="matrix" values="0 0 0 0 0.6828056573867798 0 0 0 0 0.06527775526046753 0 0 0 0 0.7833333611488342 0 0 0 0.14000000059604645 0"/><feBlend mode="normal" in2="effect2_innerShadow" result="effect3_innerShadow"/></filter><radialGradient cx="0" cy="0" r="1" gradientUnits="userSpaceOnUse" id="master_svg2_0_27" gradientTransform="translate(108.99999135732651 16.00000123679638) rotate(86.5167316045298) scale(230.42567633050828 431.67473114908324)"><stop offset="0%" stop-color="#FFBB0C" stop-opacity="1"/><stop offset="100%" stop-color="#FFC907" stop-opacity="1"/></radialGradient><filter id="master_svg3_0_2581" filterUnits="objectBoundingBox" color-interpolation-filters="sRGB" x="0" y="0" width="67.50179290771484" height="34.5"><feFlood flood-opacity="0" result="BackgroundImageFix"/><feBlend mode="normal" in="SourceGraphic" in2="BackgroundImageFix" result="shape"/><feColorMatrix in="SourceAlpha" type="matrix" result="hardAlpha" values="0 0 0 0 0 0 0 0 0 0 0 0 0 0 0 0 0 0 127 0"/><feOffset dy="-7" dx="9.199999809265137"/><feGaussianBlur stdDeviation="10.34999942779541"/><feComposite in2="hardAlpha" operator="arithmetic" k2="-1" k3="1"/><feColorMatrix type="matrix" values="0 0 0 0 0.4621107876300812 0 0 0 0 0.20376735925674438 0 0 0 0 0.5041666626930237 0 0 0 0.3499999940395355 0"/><feBlend mode="normal" in2="shape" result="effect1_innerShadow"/></filter><filter id="master_svg4_0_2582" filterUnits="objectBoundingBox" color-interpolation-filters="sRGB" x="0" y="0" width="67.50179290771484" height="34.5"><feFlood flood-opacity="0" result="BackgroundImageFix"/><feBlend mode="normal" in="SourceGraphic" in2="BackgroundImageFix" result="shape"/><feColorMatrix in="SourceAlpha" type="matrix" result="hardAlpha" values="0 0 0 0 0 0 0 0 0 0 0 0 0 0 0 0 0 0 127 0"/><feOffset dy="-9" dx="9.199999809265137"/><feGaussianBlur stdDeviation="10.34999942779541"/><feComposite in2="hardAlpha" operator="arithmetic" k2="-1" k3="1"/><feColorMatrix type="matrix" values="0 0 0 0 0.4621107876300812 0 0 0 0 0.20376735925674438 0 0 0 0 0.5041666626930237 0 0 0 0.3499999940395355 0"/><feBlend mode="normal" in2="shape" result="effect1_innerShadow"/></filter><filter id="master_svg5_0_2593" filterUnits="objectBoundingBox" color-interpolation-filters="sRGB" x="0" y="0" width="64.5270004272461" height="46.61752700805664"><feFlood flood-opacity="0" result="BackgroundImageFix"/><feBlend mode="normal" in="SourceGraphic" in2="BackgroundImageFix" result="shape"/><feColorMatrix in="SourceAlpha" type="matrix" result="hardAlpha" values="0 0 0 0 0 0 0 0 0 0 0 0 0 0 0 0 0 0 127 0"/><feOffset dy="-10.887805938720703" dx="0"/><feGaussianBlur stdDeviation="5.443902969360352"/><feComposite in2="hardAlpha" operator="arithmetic" k2="-1" k3="1"/><feColorMatrix type="matrix" values="0 0 0 0 0.8289324045181274 0 0 0 0 0.05963540077209473 0 0 0 0 0.9541666507720947 0 0 0 0.6000000238418579 0"/><feBlend mode="normal" in2="shape" result="effect1_innerShadow"/><feColorMatrix in="SourceAlpha" type="matrix" result="hardAlpha" values="0 0 0 0 0 0 0 0 0 0 0 0 0 0 0 0 0 0 127 0"/><feOffset dy="4.3551225662231445" dx="-3.2663416862487793"/><feGaussianBlur stdDeviation="2.1775612831115723"/><feComposite in2="hardAlpha" operator="arithmetic" k2="-1" k3="1"/><feColorMatrix type="matrix" values="0 0 0 0 1 0 0 0 0 1 0 0 0 0 1 0 0 0 0.28999999165534973 0"/><feBlend mode="normal" in2="effect1_innerShadow" result="effect2_innerShadow"/><feColorMatrix in="SourceAlpha" type="matrix" result="hardAlpha" values="0 0 0 0 0 0 0 0 0 0 0 0 0 0 0 0 0 0 127 0"/><feOffset dy="4.3551225662231445" dx="0"/><feGaussianBlur stdDeviation="5.443902969360352"/><feComposite in2="hardAlpha" operator="arithmetic" k2="-1" k3="1"/><feColorMatrix type="matrix" values="0 0 0 0 0 0 0 0 0 0 0 0 0 0 0 0 0 0 0.25 0"/><feBlend mode="normal" in2="effect2_innerShadow" result="effect3_innerShadow"/></filter><radialGradient cx="0" cy="0" r="1" gradientUnits="userSpaceOnUse" id="master_svg6_0_2587" gradientTransform="translate(241.04995258372628 131.07327333789038) rotate(89.31069071383683) scale(38.25959497344672 53.64871045644365)"><stop offset="0%" stop-color="#FC4141" stop-opacity="1"/><stop offset="100%" stop-color="#FF0F0F" stop-opacity="1"/></radialGradient><filter id="master_svg7_0_2595" filterUnits="objectBoundingBox" color-interpolation-filters="sRGB" x="0" y="0" width="129" height="121"><feFlood flood-opacity="0" result="BackgroundImageFix"/><feBlend mode="normal" in="SourceGraphic" in2="BackgroundImageFix" result="shape"/><feColorMatrix in="SourceAlpha" type="matrix" result="hardAlpha" values="0 0 0 0 0 0 0 0 0 0 0 0 0 0 0 0 0 0 127 0"/><feOffset dy="-9" dx="9.199999809265137"/><feGaussianBlur stdDeviation="10.34999942779541"/><feComposite in2="hardAlpha" operator="arithmetic" k2="-1" k3="1"/><feColorMatrix type="matrix" values="0 0 0 0 0.4621107876300812 0 0 0 0 0.20376735925674438 0 0 0 0 0.5041666626930237 0 0 0 0.3499999940395355 0"/><feBlend mode="normal" in2="shape" result="effect1_innerShadow"/><feColorMatrix in="SourceAlpha" type="matrix" result="hardAlpha" values="0 0 0 0 0 0 0 0 0 0 0 0 0 0 0 0 0 0 127 0"/><feOffset dy="-20" dx="0"/><feGaussianBlur stdDeviation="7"/><feComposite in2="hardAlpha" operator="arithmetic" k2="-1" k3="1"/><feColorMatrix type="matrix" values="0 0 0 0 0.36250001192092896 0 0 0 0 0.36250001192092896 0 0 0 0 0.36250001192092896 0 0 0 0.9700000286102295 0"/><feBlend mode="normal" in2="effect1_innerShadow" result="effect2_innerShadow"/></filter><linearGradient x1="0.22789116203784943" y1="0.4404761791229248" x2="0.5" y2="1" id="master_svg8_0_825"><stop offset="0%" stop-color="#402C41" stop-opacity="1"/><stop offset="100%" stop-color="#0C0B0E" stop-opacity="1"/></linearGradient></defs><g clip-path="url(#master_svg0_0_2576)"><g><g filter="url(#master_svg1_0_2579)"><path d="M0 115C7.848438341267089e-15 51.48725376945875 51.48725376945877 0 115 0L127 0C192.72188522986443 7.848438341267089e-15 246 53.27811477013559 246 119L246 127C246 192.72188522986443 192.72188522986443 246 127.00000000000001 246L123 246C55.06897577081243 246 7.848438341267089e-15 190.93102422918759 0 123.00000000000001Z" fill="url(#master_svg2_0_27)" fill-opacity="1"/></g></g><g><g filter="url(#master_svg3_0_2581)"><path d="M101.54013702621461,115.5C105.6601370262146,115.5,109.0807370262146,112.12180000000001,108.1967370262146,108.0978C106.7936370262146,101.7112,103.5912370262146,95.8008,98.8952370262146,91.1048C92.4252370262146,84.63481,83.65003702621459,81.000000690804,74.5000370262146,81.0000000000001C65.35003702621461,80.999999309197,56.574837026214595,84.63481,50.1047970262146,91.1048C45.6509070262146,95.5587,42.5405570262146,101.105,41.0346100262146,107.114C39.8973520262146,111.6519,43.7924270262146,115.5,48.4706270262146,115.5C48.4706270262146,115.5,48.4706270262146,115.5,48.4706270262146,115.5C52.8564370262146,115.5,56.2631370262146,111.7812,58.127337026214605,107.8113C59.008937026214596,105.9338,60.2150370262146,104.2045,61.7097370262146,102.7097C65.1019370262146,99.3176,69.7027370262146,97.4118,74.5000370262146,97.4118C79.29733702621459,97.4118,83.8981370262146,99.3176,87.2903370262146,102.7097C88.5423370262146,103.9618,89.59183702621459,105.3785,90.4178370262146,106.9089C92.7658370262146,111.2597,96.59613702621459,115.5,101.54013702621461,115.5C101.54013702621461,115.5,101.54013702621461,115.5,101.54013702621461,115.5C101.54013702621461,115.5,101.54013702621461,115.5,101.54013702621461,115.5Z" fill="#C4C4C4" fill-opacity="1"/><path d="M101.54013702621461,115.5C105.6601370262146,115.5,109.0807370262146,112.12180000000001,108.1967370262146,108.0978C106.7936370262146,101.7112,103.5912370262146,95.8008,98.8952370262146,91.1048C92.4252370262146,84.63481,83.65003702621459,81.000000690804,74.5000370262146,81.0000000000001C65.35003702621461,80.999999309197,56.574837026214595,84.63481,50.1047970262146,91.1048C45.6509070262146,95.5587,42.5405570262146,101.105,41.0346100262146,107.114C39.8973520262146,111.6519,43.7924270262146,115.5,48.4706270262146,115.5C48.4706270262146,115.5,48.4706270262146,115.5,48.4706270262146,115.5C52.8564370262146,115.5,56.2631370262146,111.7812,58.127337026214605,107.8113C59.008937026214596,105.9338,60.2150370262146,104.2045,61.7097370262146,102.7097C65.1019370262146,99.3176,69.7027370262146,97.4118,74.5000370262146,97.4118C79.29733702621459,97.4118,83.8981370262146,99.3176,87.2903370262146,102.7097C88.5423370262146,103.9618,89.59183702621459,105.3785,90.4178370262146,106.9089C92.7658370262146,111.2597,96.59613702621459,115.5,101.54013702621461,115.5C101.54013702621461,115.5,101.54013702621461,115.5,101.54013702621461,115.5C101.54013702621461,115.5,101.54013702621461,115.5,101.54013702621461,115.5Z" fill="#221725" fill-opacity="1"/></g><g filter="url(#master_svg4_0_2582)"><path d="M198.54013559570313,115.5C202.66013559570314,115.5,206.08073559570312,112.12180000000001,205.19673559570313,108.0978C203.7936355957031,101.7112,200.59123559570313,95.8008,195.89523559570313,91.1048C189.42523559570313,84.63481,180.65003559570312,81.000000690804,171.50003559570314,81.0000000000001C162.35003559570313,80.999999309197,153.57483559570312,84.63481,147.10479559570314,91.1048C142.65090559570314,95.5587,139.54055559570313,101.105,138.03460859570313,107.114C136.89735059570313,111.6519,140.79242559570312,115.5,145.47062559570313,115.5C145.47062559570313,115.5,145.47062559570313,115.5,145.47062559570313,115.5C149.85643559570312,115.5,153.26313559570312,111.7812,155.12733559570313,107.8113C156.00893559570312,105.9338,157.2150355957031,104.2045,158.70973559570314,102.7097C162.10193559570314,99.3176,166.70273559570313,97.4118,171.50003559570314,97.4118C176.29733559570312,97.4118,180.89813559570314,99.3176,184.29033559570314,102.7097C185.54233559570312,103.9618,186.59183559570312,105.3785,187.41783559570314,106.9089C189.76583559570312,111.2597,193.59613559570312,115.5,198.54013559570313,115.5C198.54013559570313,115.5,198.54013559570313,115.5,198.54013559570313,115.5C198.54013559570313,115.5,198.54013559570313,115.5,198.54013559570313,115.5Z" fill="#C4C4C4" fill-opacity="1"/><path d="M198.54013559570313,115.5C202.66013559570314,115.5,206.08073559570312,112.12180000000001,205.19673559570313,108.0978C203.7936355957031,101.7112,200.59123559570313,95.8008,195.89523559570313,91.1048C189.42523559570313,84.63481,180.65003559570312,81.000000690804,171.50003559570314,81.0000000000001C162.35003559570313,80.999999309197,153.57483559570312,84.63481,147.10479559570314,91.1048C142.65090559570314,95.5587,139.54055559570313,101.105,138.03460859570313,107.114C136.89735059570313,111.6519,140.79242559570312,115.5,145.47062559570313,115.5C145.47062559570313,115.5,145.47062559570313,115.5,145.47062559570313,115.5C149.85643559570312,115.5,153.26313559570312,111.7812,155.12733559570313,107.8113C156.00893559570312,105.9338,157.2150355957031,104.2045,158.70973559570314,102.7097C162.10193559570314,99.3176,166.70273559570313,97.4118,171.50003559570314,97.4118C176.29733559570312,97.4118,180.89813559570314,99.3176,184.29033559570314,102.7097C185.54233559570312,103.9618,186.59183559570312,105.3785,187.41783559570314,106.9089C189.76583559570312,111.2597,193.59613559570312,115.5,198.54013559570313,115.5C198.54013559570313,115.5,198.54013559570313,115.5,198.54013559570313,115.5C198.54013559570313,115.5,198.54013559570313,115.5,198.54013559570313,115.5Z" fill="#221725" fill-opacity="1"/></g></g><g><g transform="matrix(0.9691821336746216,0.24634529650211334,-0.24634529650211334,0.9691821336746216,35.30408119528124,-31.913863429123808)"><g transform="matrix(-0.7652086019515991,0.6437824368476868,0.6437824368476868,0.7652086019515991,262.9104679337729,-95.88506726529727)" filter="url(#master_svg5_0_2593)"><path d="M212.81794514770507,125.14616394042969C212.81794514770507,125.14616394042969,259.10874514770506,126.35991394042969,259.10874514770506,126.35991394042969C259.10874514770506,126.35991394042969,239.5384451477051,159.65636394042969,239.5384451477051,159.65636394042969C239.38474514770508,159.9178639404297,239.30794514770508,160.0485639404297,239.2464451477051,160.1507639404297C231.3457451477051,173.29146394042968,213.30484514770507,175.7286639404297,202.20054514770507,165.1555639404297C202.11414514770507,165.0733639404297,202.00534514770507,164.9676639404297,201.78784514770507,164.75636394042968C201.78784514770507,164.75636394042968,201.78784514770507,164.75636394042968,201.78784514770507,164.75636394042968C201.55064514770507,164.52596394042968,201.43204514770508,164.4108639404297,201.3448451477051,164.3242639404297C189.98864514770509,153.0536639404297,193.42244514770508,133.9042239404297,207.98714514770506,127.28174394042969C208.0991451477051,127.23085394042968,208.25034514770508,127.16406394042968,208.55274514770508,127.03046394042968C208.55274514770508,127.03046394042968,212.81794514770507,125.14616394042969,212.81794514770507,125.14616394042969C212.81794514770507,125.14616394042969,212.81794514770507,125.14616394042969,212.81794514770507,125.14616394042969Z" fill="#C4C4C4" fill-opacity="1"/><path d="M212.81794514770507,125.14616394042969C212.81794514770507,125.14616394042969,259.10874514770506,126.35991394042969,259.10874514770506,126.35991394042969C259.10874514770506,126.35991394042969,239.5384451477051,159.65636394042969,239.5384451477051,159.65636394042969C239.38474514770508,159.9178639404297,239.30794514770508,160.0485639404297,239.2464451477051,160.1507639404297C231.3457451477051,173.29146394042968,213.30484514770507,175.7286639404297,202.20054514770507,165.1555639404297C202.11414514770507,165.0733639404297,202.00534514770507,164.9676639404297,201.78784514770507,164.75636394042968C201.78784514770507,164.75636394042968,201.78784514770507,164.75636394042968,201.78784514770507,164.75636394042968C201.55064514770507,164.52596394042968,201.43204514770508,164.4108639404297,201.3448451477051,164.3242639404297C189.98864514770509,153.0536639404297,193.42244514770508,133.9042239404297,207.98714514770506,127.28174394042969C208.0991451477051,127.23085394042968,208.25034514770508,127.16406394042968,208.55274514770508,127.03046394042968C208.55274514770508,127.03046394042968,212.81794514770507,125.14616394042969,212.81794514770507,125.14616394042969C212.81794514770507,125.14616394042969,212.81794514770507,125.14616394042969,212.81794514770507,125.14616394042969Z" fill="url(#master_svg6_0_2587)" fill-opacity="1"/></g><g transform="matrix(0.7882964611053467,0.6152955889701843,-0.6152955889701843,0.7882964611053467,122.94053815487229,-76.75075006248358)"><path d="M173.05534591914062,150.4106471359253C172.57957911914062,147.5229171359253,175.52937711914063,145.0601571359253,178.40205711914064,145.61974713592528C181.31008711914063,146.1862171359253,184.9125471191406,146.5609971359253,188.57854711914064,146.1227471359253C193.66394711914063,145.51481713592528,200.86644711914062,142.7048571359253,205.79674711914063,140.5631031359253C208.17404711914062,139.5304031359253,210.85754711914063,141.4885271359253,210.50954711914062,144.0569371359253C210.50954711914062,144.0569371359253,210.50954711914062,144.0569371359253,210.50954711914062,144.0569371359253C210.30194711914064,145.5887271359253,209.29404711914063,146.8903771359253,207.84884711914063,147.43887713592528C204.00594711914061,148.89741713592528,196.19944711914061,151.6997471359253,190.61474711914062,152.6424471359253C185.04704711914061,153.5823471359253,179.56579711914063,153.5553471359253,176.36540711914063,153.4167471359253C174.6806371191406,153.3437471359253,173.32948611914063,152.0746471359253,173.05534591914062,150.4106471359253C173.05534591914062,150.4106471359253,173.05534591914062,150.4106471359253,173.05534591914062,150.4106471359253C173.05534591914062,150.4106471359253,173.05534591914062,150.4106471359253,173.05534591914062,150.4106471359253Z" fill="#000000" fill-opacity="0.20999999344348907"/></g></g><g filter="url(#master_svg7_0_2595)"><path d="M126.883 76.0379Q128.347 70.7761 128.809 65.1484L117.837 64.3553L111.784 63.9178C111.047 72.8872 107.716 80.9087 101.791 87.9825Q92.9032 98.5931 79.2285 102.784Q65.5538 106.975 51.7015 103.333C42.4666 100.905 34.7289 96.2759 28.4884 89.4449L24.1166 92.9587L15.5222 99.8666Q19.3355 104.041 23.6968 107.409Q33.8964 115.286 47.0933 118.755Q65.9333 123.708 84.5316 118.008C96.9305 114.209 107.159 107.498 115.218 97.8777Q123.588 87.8849 126.883 76.0379Z" stroke="url(#master_svg8_0_825)" fill-opacity="0" fill="none" stroke-width="11"/></g></g></g></svg>