<svg xmlns="http://www.w3.org/2000/svg" xmlns:xlink="http://www.w3.org/1999/xlink" fill="none" version="1.1" width="24" height="24" viewBox="0 0 24 24"><defs><clipPath id="master_svg0_0_8776"><rect x="0" y="0" width="24" height="24" rx="0"/></clipPath></defs><g clip-path="url(#master_svg0_0_8776)"><g><g><path d="M19.726808500262553,12.111925235176246C19.726808500262553,12.111925235176246,12.000008500262553,19.606825235176245,12.000008500262553,19.606825235176245C12.000008500262553,19.606825235176245,4.273198500262552,12.111925235176246,4.273198500262552,12.111925235176246C4.252098500262552,12.082025235176246,4.229138500262552,12.053025235176246,4.204338500262553,12.025025235176246C2.5161285002625524,10.117785235176246,2.601508500262552,7.247715235176246,4.468448500262553,5.436805235176246C6.349588500262552,3.6121252351762454,9.358848500262553,3.5239752351762457,11.347608500262552,5.1802752351762456C11.537008500262553,5.338085235176246,11.769208500262552,5.414695235176246,12.000008500262553,5.411795235176246C12.230808500262553,5.414695235176246,12.462908500262552,5.338085235176246,12.652408500262553,5.1802752351762456C14.641108500262552,3.5239752351762457,17.650408500262554,3.6121252351762454,19.531508500262554,5.436805235176246C21.39850850026255,7.247715235176246,21.48390850026255,10.117785235176246,19.795708500262553,12.025025235176246C19.770908500262554,12.053025235176246,19.747908500262554,12.082025235176246,19.726808500262553,12.111925235176246ZM12.696208500262552,21.717825235176246C12.308308500262552,22.094025235176247,11.691708500262553,22.094025235176247,11.303708500262552,21.717825235176246C11.303708500262552,21.717825235176246,2.7468285002625525,13.417725235176245,2.7468285002625525,13.417725235176245C2.6797285002625526,13.352625235176246,2.6227185002625526,13.279025235176245,2.576858500262553,13.199525235176246C0.3182795002625525,10.495835235176246,0.48715450026255247,6.512305235176245,3.0759385002625526,4.001215235176245C5.507508500262553,1.6426242351762455,9.261708500262552,1.3700872351762454,12.000008500262553,3.1773052351762456C14.738308500262553,1.3700862351762455,18.492508500262552,1.6426242351762455,20.924008500262552,4.001215235176245C23.51280850026255,6.512305235176245,23.681708500262552,10.495835235176246,21.423108500262554,13.199525235176246C21.377308500262554,13.279025235176245,21.320308500262552,13.352625235176246,21.253208500262552,13.417725235176245C21.253208500262552,13.417725235176245,12.696208500262552,21.717825235176246,12.696208500262552,21.717825235176246Z" fill-rule="evenodd" fill="#000000" fill-opacity="1"/></g><g><path d="M15.999999761581421,5C15.999999761581421,5,15.999999761581421,7,15.999999761581421,7C17.10456976158142,7,17.99999976158142,7.89543,17.99999976158142,9C17.99999976158142,9,19.99999976158142,9,19.99999976158142,9C19.99999976158142,6.79086,18.209139761581422,5,15.999999761581421,5Z" fill-rule="evenodd" fill="#000000" fill-opacity="1"/></g></g></g></svg>