<svg xmlns="http://www.w3.org/2000/svg" xmlns:xlink="http://www.w3.org/1999/xlink" fill="none" version="1.1" width="24" height="24" viewBox="0 0 24 24"><defs><clipPath id="master_svg0_0_8479"><rect x="0" y="0" width="24" height="24" rx="0"/></clipPath></defs><g clip-path="url(#master_svg0_0_8479)"><g><g><path d="M2,21C2,21,22,21,22,21C22.5523,21,23,20.5523,23,20C23,20,23,7,23,7C23,6.44772,22.5523,6,22,6C22,6,10.53518,6,10.53518,6C10.53518,6,8.832049999999999,3.4453,8.832049999999999,3.4453C8.64658,3.167101,8.33435,3,8,3C8,3,2,3,2,3C1.447715,3,1,3.447715,1,4C1,4,1,20,1,20C1,20.5523,1.447715,21,2,21ZM9.16795,7.5547C9.35342,7.8329,9.66565,8,10,8C10,8,21,8,21,8C21,8,21,19,21,19C21,19,3,19,3,19C3,19,3,5,3,5C3,5,7.46482,5,7.46482,5C7.46482,5,9.16795,7.5547,9.16795,7.5547Z" fill-rule="evenodd" fill="#000000" fill-opacity="1"/></g></g></g></svg>