<svg xmlns="http://www.w3.org/2000/svg" xmlns:xlink="http://www.w3.org/1999/xlink" fill="none" version="1.1" width="24" height="24" viewBox="0 0 24 24"><g><g><path d="M0.25,10.21447C0.25,6.24636,4.05525,3.25,8.45161,3.25C11.9502,3.25,15.0521,5.13375,16.1918,7.89933C16.243000000000002,8.02337,16.154,8.15792,16.0203,8.168980000000001C15.648,8.19978,15.2782,8.25265,14.9138,8.32662C14.8207,8.34551,14.7269,8.29807,14.6853,8.2127C13.7216,6.23442,11.3546,4.75,8.45161,4.75C4.61715,4.75,1.75,7.31827,1.75,10.21447C1.75,11.77913,2.56392,13.22397,3.9325,14.2455C4.12216,14.3871,4.23387,14.6099,4.23387,14.8465L4.23387,15.7873L5.78151,15.357C5.9163,15.3196,6.05888,15.3205,6.19314,15.3598C6.80385,15.5387,7.45668,15.6474,8.13752,15.673C8.245560000000001,15.6771,8.33258,15.764,8.33726,15.8721C8.35581,16.3,8.41311,16.7133,8.50538,17.1107C8.51344,17.145400000000002,8.48728,17.178800000000003,8.45161,17.1789C7.59258,17.1789,6.76262,17.0669,5.98177,16.8582L3.68475,17.4968C3.45891,17.5596,3.21671,17.513199999999998,3.03009,17.371299999999998C2.84346,17.2295,2.73387,17.0086,2.73387,16.7742L2.73387,15.211C1.224015,13.9648,0.25,12.20157,0.25,10.21447ZM6.85486,8.25806C6.85486,8.845970000000001,6.37826,9.322569999999999,5.79035,9.322569999999999C5.20243,9.322569999999999,4.72583,8.845970000000001,4.72583,8.25806C4.72583,7.67014,5.20243,7.1935400000000005,5.79035,7.1935400000000005C6.37826,7.1935400000000005,6.85486,7.67014,6.85486,8.25806ZM11.1129,9.322569999999999C11.7008,9.322569999999999,12.1774,8.845970000000001,12.1774,8.25806C12.1774,7.67014,11.7008,7.1935400000000005,11.1129,7.1935400000000005C10.525,7.1935400000000005,10.0484,7.67014,10.0484,8.25806C10.0484,8.845970000000001,10.525,9.322569999999999,11.1129,9.322569999999999ZM23.7452,15.7873C23.7452,12.39117,20.496,9.85853,16.7856,9.85853C13.0751,9.85853,9.83063,12.16972,9.83063,15.5658C9.83063,18.9619,13.0798,21.4945,16.7903,21.4945C17.5049,21.4945,18.1961,21.4029,18.8477,21.2318L20.7292,21.7548C20.955,21.8176,21.1972,21.7712,21.3839,21.6294C21.5705,21.4876,21.6801,21.2666,21.6801,21.0322L21.6801,19.7881C22.9366,18.7319,23.7452,17.4662,23.7452,15.7873ZM16.7903,11.137080000000001C19.9389,11.137080000000001,22.25,13.24164,22.25,15.5658C22.25,16.823700000000002,21.596,17.9929,20.4815,18.8248C20.2918,18.9664,20.1801,19.1892,20.1801,19.4259L20.1801,20.0453L19.0489,19.7308C18.9141,19.6934,18.7715,19.6943,18.6372,19.7337C18.062,19.9021,17.4405,19.9945,16.7903,19.9945C13.6417,19.9945,11.3306,17.89,11.3306,15.5658C11.3306,13.24164,13.6417,11.137080000000001,16.7903,11.137080000000001ZM14.5459,15.1774C15.0604,15.1774,15.4774,14.7604,15.4774,14.246C15.4774,13.7315,15.0604,13.3145,14.5459,13.3145C14.0315,13.3145,13.6145,13.7315,13.6145,14.246C13.6145,14.7604,14.0315,15.1774,14.5459,15.1774ZM20.0016,14.246C20.0016,14.7604,19.5846,15.1774,19.0702,15.1774C18.5557,15.1774,18.1387,14.7604,18.1387,14.246C18.1387,13.7315,18.5557,13.3145,19.0702,13.3145C19.5846,13.3145,20.0016,13.7315,20.0016,14.246Z" fill-rule="evenodd" fill="#000000" fill-opacity="1"/></g></g></svg>