<svg xmlns="http://www.w3.org/2000/svg" xmlns:xlink="http://www.w3.org/1999/xlink" fill="none" version="1.1" width="24" height="24" viewBox="0 0 24 24"><defs><clipPath id="master_svg0_0_911"><rect x="0" y="0" width="24" height="24" rx="0"/></clipPath></defs><g clip-path="url(#master_svg0_0_911)"><g><path d="M12,20.000023126602173C12,20.000023126602173,11.51343,20.873623126602173,11.51343,20.873623126602173C11.81593,21.042123126602174,12.1841,21.042123126602174,12.4866,20.873623126602173C12.4866,20.873623126602173,12,20.000023126602173,12,20.000023126602173C12,20.000023126602173,12,20.000023126602173,12,20.000023126602173ZM12,7.162213126602173C12,7.162213126602173,11.07966,7.553323126602173,11.07966,7.553323126602173C11.23655,7.922503126602173,11.59886,8.162213126602172,12,8.162213126602172C12.4011,8.162213126602172,12.7634,7.922503126602173,12.9203,7.553323126602173C12.9203,7.553323126602173,12,7.162213126602173,12,7.162213126602173C12,7.162213126602173,12,7.162213126602173,12,7.162213126602173ZM2.0000000000000004,8.972343126602173C2.0000000000000004,12.445653126602172,4.560309999999999,15.461723126602173,6.83471,17.48842312660217C8.003730000000001,18.530223126602174,9.16813,19.372823126602174,10.03809,19.954223126602173C10.47404,20.245623126602172,10.83849,20.473023126602172,11.09584,20.62862312660217C11.22457,20.70642312660217,11.32667,20.766423126602174,11.39771,20.807623126602174C11.43323,20.828123126602172,11.461,20.844023126602174,11.48047,20.855123126602173C11.4902,20.860623126602174,11.49786,20.86492312660217,11.50338,20.86802312660217C11.50614,20.86962312660217,11.50836,20.870823126602172,11.51004,20.871723126602173C11.51087,20.872223126602172,11.51158,20.87262312660217,11.51214,20.872923126602174C11.51243,20.873123126602174,11.51275,20.873323126602173,11.51289,20.873323126602173C11.51317,20.873523126602173,11.51343,20.873623126602173,12,20.000023126602173C12.4866,19.126423126602173,12.4868,19.126523126602173,12.4869,19.126523126602173C12.4869,19.126523126602173,12.487,19.126623126602173,12.487,19.126623126602173C12.4871,19.126623126602173,12.4869,19.126623126602173,12.4867,19.126423126602173C12.4862,19.126123126602174,12.4851,19.12562312660217,12.4836,19.124723126602174C12.4804,19.122923126602174,12.4752,19.120023126602174,12.4679,19.115823126602173C12.4533,19.107523126602175,12.4305,19.094523126602173,12.4001,19.07692312660217C12.3393,19.04172312660217,12.2481,18.988123126602172,12.1307,18.917223126602174C11.89588,18.775123126602175,11.55721,18.563923126602173,11.14941,18.291423126602172C10.33187,17.74502312660217,9.246269999999999,16.958523126602174,8.1653,15.995323126602173C5.939690000000001,14.012023126602173,4,11.514143126602173,4,8.972343126602173C4,8.972343126602173,2.0000000000000004,8.972343126602173,2.0000000000000004,8.972343126602173C2.0000000000000004,8.972343126602173,2.0000000000000004,8.972343126602173,2.0000000000000004,8.972343126602173ZM12.9203,6.771093126602173C11.73912,3.991541126602173,9.04681,2.7045801266021727,6.60702,3.057037926602173C5.38263,3.233916126602173,4.21629,3.825536126602173,3.35895,4.847273126602173C2.498879,5.872283126602173,2.0000000000000004,7.2691531266021725,2.0000000000000004,8.972343126602173C2.0000000000000004,8.972343126602173,4,8.972343126602173,4,8.972343126602173C4,7.667973126602173,4.37612,6.746523126602173,4.89105,6.132853126602173C5.40871,5.515923126602173,6.11737,5.148543126602172,6.89298,5.036493126602172C8.45319,4.811103126602173,10.26088,5.626633126602172,11.07966,7.553323126602173C11.07966,7.553323126602173,12.9203,6.771093126602173,12.9203,6.771093126602173C12.9203,6.771093126602173,12.9203,6.771093126602173,12.9203,6.771093126602173ZM20,8.972343126602173C20,11.514143126602173,18.0603,14.012023126602173,15.8347,15.995323126602173C14.7537,16.958523126602174,13.6681,17.74502312660217,12.8506,18.291423126602172C12.4428,18.563923126602173,12.1041,18.775123126602175,11.86928,18.917223126602174C11.75191,18.988123126602172,11.66066,19.04172312660217,11.59986,19.07692312660217C11.56946,19.094523126602173,11.5467,19.107523126602175,11.53211,19.115823126602173C11.52481,19.120023126602174,11.51956,19.122923126602174,11.51643,19.124723126602174C11.51486,19.12562312660217,11.51382,19.126123126602174,11.51331,19.126423126602173C11.51306,19.126623126602173,11.51295,19.126623126602173,11.51296,19.126623126602173C11.51297,19.126623126602173,11.51309,19.126523126602173,11.51309,19.126523126602173C11.51324,19.126523126602173,11.51343,19.126423126602173,12,20.000023126602173C12.4866,20.873623126602173,12.4868,20.873523126602173,12.4871,20.873323126602173C12.4873,20.873323126602173,12.4876,20.873123126602174,12.4879,20.872923126602174C12.4884,20.87262312660217,12.4891,20.872223126602172,12.49,20.871723126602173C12.4916,20.870823126602172,12.4939,20.86962312660217,12.4966,20.86802312660217C12.5021,20.86492312660217,12.5098,20.860623126602174,12.5195,20.855123126602173C12.539,20.844023126602174,12.5668,20.828123126602172,12.6023,20.807623126602174C12.6733,20.766423126602174,12.7754,20.70642312660217,12.9042,20.62862312660217C13.1615,20.473023126602172,13.526,20.245623126602172,13.9619,19.954223126602173C14.8319,19.372823126602174,15.9963,18.530223126602174,17.165300000000002,17.48842312660217C19.4397,15.461723126602173,22,12.445653126602172,22,8.972343126602173C22,8.972343126602173,20,8.972343126602173,20,8.972343126602173C20,8.972343126602173,20,8.972343126602173,20,8.972343126602173ZM12.9203,7.553323126602173C13.7391,5.626633126602172,15.5468,4.811103126602173,17.107,5.036493126602172C17.8826,5.148543126602172,18.5913,5.515923126602173,19.109,6.132853126602173C19.6239,6.746523126602173,20,7.667973126602173,20,8.972343126602173C20,8.972343126602173,22,8.972343126602173,22,8.972343126602173C22,7.2691531266021725,21.5011,5.872283126602173,20.641,4.847273126602173C19.7837,3.825536126602173,18.6174,3.233916126602173,17.393,3.057037926602173C14.9532,2.7045801266021727,12.2609,3.991541126602173,11.07966,6.771093126602173C11.07966,6.771093126602173,12.9203,7.553323126602173,12.9203,7.553323126602173C12.9203,7.553323126602173,12.9203,7.553323126602173,12.9203,7.553323126602173Z" fill="#FFFFFF" fill-opacity="1"/></g></g></svg>