<svg xmlns="http://www.w3.org/2000/svg" xmlns:xlink="http://www.w3.org/1999/xlink" fill="none" version="1.1" width="24" height="24" viewBox="0 0 24 24"><g><g transform="matrix(0,-1,1,0,-24,24)" style="opacity:0;"><path d="M24,24C24,24,0,24,0,24C0,24,0,48,0,48C0,48,24,48,24,48C24,48,24,24,24,24C24,24,24,24,24,24Z" fill="#FFFFFF" fill-opacity="1"/></g><g><path d="M14.4772325,19.538599046325686C14.7747025,19.826899046325686,15.249522500000001,19.819399046325685,15.5377625,19.521899046325686C15.826002500000001,19.224399046325683,15.8185225,18.749599046325685,15.5210625,18.46139904632568C15.5210625,18.46139904632568,14.4772325,19.538599046325686,14.4772325,19.538599046325686C14.4772325,19.538599046325686,14.4772325,19.538599046325686,14.4772325,19.538599046325686ZM9.8391125,13.999999046325684C9.8391125,13.999999046325684,10.3610725,13.461339046325683,10.3610725,13.461339046325683C10.3610725,13.461339046325683,10.3538725,13.454549046325683,10.3538725,13.454549046325683C10.3538725,13.454549046325683,9.8391125,13.999999046325684,9.8391125,13.999999046325684C9.8391125,13.999999046325684,9.8391125,13.999999046325684,9.8391125,13.999999046325684ZM9.8391125,9.999999046325684C9.8391125,9.999999046325684,10.3539225,10.545499046325684,10.3539225,10.545499046325684C10.3539225,10.545499046325684,10.3610225,10.538619046325683,10.3610225,10.538619046325683C10.3610225,10.538619046325683,9.8391125,9.999999046325684,9.8391125,9.999999046325684C9.8391125,9.999999046325684,9.8391125,9.999999046325684,9.8391125,9.999999046325684ZM15.5210625,5.5386190463256835C15.8185225,5.250369046325684,15.826002500000001,4.775558046325684,15.5377625,4.478088046325683C15.249522500000001,4.180617946325683,14.7747025,4.173138946325683,14.4772325,4.461383046325683C14.4772325,4.461383046325683,15.5210625,5.5386190463256835,15.5210625,5.5386190463256835C15.5210625,5.5386190463256835,15.5210625,5.5386190463256835,15.5210625,5.5386190463256835ZM15.5210625,18.46139904632568C15.5210625,18.46139904632568,10.3610225,13.461379046325684,10.3610225,13.461379046325684C10.3610225,13.461379046325684,9.3172025,14.538599046325684,9.3172025,14.538599046325684C9.3172025,14.538599046325684,14.4772325,19.538599046325686,14.4772325,19.538599046325686C14.4772325,19.538599046325686,15.5210625,18.46139904632568,15.5210625,18.46139904632568C15.5210625,18.46139904632568,15.5210625,18.46139904632568,15.5210625,18.46139904632568ZM10.3538725,13.454549046325683C10.1557425,13.267569046325683,9.9979525,13.042189046325683,9.8901025,12.792099046325683C9.8901025,12.792099046325683,8.5127325,13.386119046325684,8.5127325,13.386119046325684C8.7015175,13.823859046325683,8.9777015,14.218309046325684,9.3243525,14.545499046325684C9.3243525,14.545499046325684,10.3538725,13.454549046325683,10.3538725,13.454549046325683C10.3538725,13.454549046325683,10.3538725,13.454549046325683,10.3538725,13.454549046325683ZM9.8901025,12.792099046325683C9.7822225,12.541969046325683,9.7265625,12.272369046325684,9.7265625,11.999999046325684C9.7265625,11.999999046325684,8.2265625,11.999999046325684,8.2265625,11.999999046325684C8.2265625,12.476699046325683,8.3239675,12.948429046325684,8.5127325,13.386119046325684C8.5127325,13.386119046325684,9.8901025,12.792099046325683,9.8901025,12.792099046325683C9.8901025,12.792099046325683,9.8901025,12.792099046325683,9.8901025,12.792099046325683ZM9.7265625,11.999999046325684C9.7265625,11.727629046325685,9.7822225,11.458029046325684,9.8901025,11.207899046325684C9.8901025,11.207899046325684,8.5127325,10.613879046325684,8.5127325,10.613879046325684C8.3239675,11.051569046325683,8.2265625,11.523299046325683,8.2265625,11.999999046325684C8.2265625,11.999999046325684,9.7265625,11.999999046325684,9.7265625,11.999999046325684C9.7265625,11.999999046325684,9.7265625,11.999999046325684,9.7265625,11.999999046325684ZM9.8901025,11.207899046325684C9.9979525,10.957809046325684,10.1557425,10.732429046325684,10.3538725,10.545449046325682C10.3538725,10.545449046325682,9.3243525,9.454549046325685,9.3243525,9.454549046325685C8.9777015,9.781689046325685,8.7015175,10.176139046325684,8.5127325,10.613879046325684C8.5127325,10.613879046325684,9.8901025,11.207899046325684,9.8901025,11.207899046325684C9.8901025,11.207899046325684,9.8901025,11.207899046325684,9.8901025,11.207899046325684ZM10.3610225,10.538619046325683C10.3610225,10.538619046325683,15.5210625,5.5386190463256835,15.5210625,5.5386190463256835C15.5210625,5.5386190463256835,14.4772325,4.461383046325683,14.4772325,4.461383046325683C14.4772325,4.461383046325683,9.3172025,9.461379046325684,9.3172025,9.461379046325684C9.3172025,9.461379046325684,10.3610225,10.538619046325683,10.3610225,10.538619046325683C10.3610225,10.538619046325683,10.3610225,10.538619046325683,10.3610225,10.538619046325683Z" fill="#000000" fill-opacity="1"/></g></g></svg>