<svg xmlns="http://www.w3.org/2000/svg" xmlns:xlink="http://www.w3.org/1999/xlink" fill="none" version="1.1" width="24.1298828125" height="24.1300048828125" viewBox="0 0 24.1298828125 24.1300048828125"><g><g><g><rect x="0.06494140625" y="0.06500244140625" width="24" height="24" rx="0" fill="#FFFFFF" fill-opacity="0.00009999999747378752"/></g><g><path d="M0.0649414086341858,0.0650024437904358C0.0649414086341858,0.0650024437904358,0.0649414086341858,0.0000024437904357910156,0.0649414086341858,0.0000024437904357910156C0.0649414086341858,0.0000024437904357910156,-0.000058591365814208984,0.0000024437904357910156,-0.000058591365814208984,0.0000024437904357910156C-0.000058591365814208984,0.0000024437904357910156,-0.000058591365814208984,0.0650024437904358,-0.000058591365814208984,0.0650024437904358C-0.000058591365814208984,0.0650024437904358,0.0649414086341858,0.0650024437904358,0.0649414086341858,0.0650024437904358C0.0649414086341858,0.0650024437904358,0.0649414086341858,0.0650024437904358,0.0649414086341858,0.0650024437904358ZM24.064941408634187,0.0650024437904358C24.064941408634187,0.0650024437904358,24.129941408634185,0.0650024437904358,24.129941408634185,0.0650024437904358C24.129941408634185,0.0650024437904358,24.129941408634185,0.0000024437904357910156,24.129941408634185,0.0000024437904357910156C24.129941408634185,0.0000024437904357910156,24.064941408634187,0.0000024437904357910156,24.064941408634187,0.0000024437904357910156C24.064941408634187,0.0000024437904357910156,24.064941408634187,0.0650024437904358,24.064941408634187,0.0650024437904358C24.064941408634187,0.0650024437904358,24.064941408634187,0.0650024437904358,24.064941408634187,0.0650024437904358ZM24.064941408634187,24.065002443790437C24.064941408634187,24.065002443790437,24.064941408634187,24.130002443790435,24.064941408634187,24.130002443790435C24.064941408634187,24.130002443790435,24.129941408634185,24.130002443790435,24.129941408634185,24.130002443790435C24.129941408634185,24.130002443790435,24.129941408634185,24.065002443790437,24.129941408634185,24.065002443790437C24.129941408634185,24.065002443790437,24.064941408634187,24.065002443790437,24.064941408634187,24.065002443790437C24.064941408634187,24.065002443790437,24.064941408634187,24.065002443790437,24.064941408634187,24.065002443790437ZM0.0649414086341858,24.065002443790437C0.0649414086341858,24.065002443790437,-0.000058591365814208984,24.065002443790437,-0.000058591365814208984,24.065002443790437C-0.000058591365814208984,24.065002443790437,-0.000058591365814208984,24.130002443790435,-0.000058591365814208984,24.130002443790435C-0.000058591365814208984,24.130002443790435,0.0649414086341858,24.130002443790435,0.0649414086341858,24.130002443790435C0.0649414086341858,24.130002443790435,0.0649414086341858,24.065002443790437,0.0649414086341858,24.065002443790437C0.0649414086341858,24.065002443790437,0.0649414086341858,24.065002443790437,0.0649414086341858,24.065002443790437ZM0.0649414086341858,0.1300024437904358C0.0649414086341858,0.1300024437904358,24.064941408634187,0.1300024437904358,24.064941408634187,0.1300024437904358C24.064941408634187,0.1300024437904358,24.064941408634187,0.0000024437904357910156,24.064941408634187,0.0000024437904357910156C24.064941408634187,0.0000024437904357910156,0.0649414086341858,0.0000024437904357910156,0.0649414086341858,0.0000024437904357910156C0.0649414086341858,0.0000024437904357910156,0.0649414086341858,0.1300024437904358,0.0649414086341858,0.1300024437904358C0.0649414086341858,0.1300024437904358,0.0649414086341858,0.1300024437904358,0.0649414086341858,0.1300024437904358ZM23.999941408634186,0.0650024437904358C23.999941408634186,0.0650024437904358,23.999941408634186,24.065002443790437,23.999941408634186,24.065002443790437C23.999941408634186,24.065002443790437,24.129941408634185,24.065002443790437,24.129941408634185,24.065002443790437C24.129941408634185,24.065002443790437,24.129941408634185,0.0650024437904358,24.129941408634185,0.0650024437904358C24.129941408634185,0.0650024437904358,23.999941408634186,0.0650024437904358,23.999941408634186,0.0650024437904358C23.999941408634186,0.0650024437904358,23.999941408634186,0.0650024437904358,23.999941408634186,0.0650024437904358ZM24.064941408634187,24.000002443790436C24.064941408634187,24.000002443790436,0.0649414086341858,24.000002443790436,0.0649414086341858,24.000002443790436C0.0649414086341858,24.000002443790436,0.0649414086341858,24.130002443790435,0.0649414086341858,24.130002443790435C0.0649414086341858,24.130002443790435,24.064941408634187,24.130002443790435,24.064941408634187,24.130002443790435C24.064941408634187,24.130002443790435,24.064941408634187,24.000002443790436,24.064941408634187,24.000002443790436C24.064941408634187,24.000002443790436,24.064941408634187,24.000002443790436,24.064941408634187,24.000002443790436ZM0.1299414086341858,24.065002443790437C0.1299414086341858,24.065002443790437,0.1299414086341858,0.0650024437904358,0.1299414086341858,0.0650024437904358C0.1299414086341858,0.0650024437904358,-0.000058591365814208984,0.0650024437904358,-0.000058591365814208984,0.0650024437904358C-0.000058591365814208984,0.0650024437904358,-0.000058591365814208984,24.065002443790437,-0.000058591365814208984,24.065002443790437C-0.000058591365814208984,24.065002443790437,0.1299414086341858,24.065002443790437,0.1299414086341858,24.065002443790437C0.1299414086341858,24.065002443790437,0.1299414086341858,24.065002443790437,0.1299414086341858,24.065002443790437ZM24.110941408634186,24.019002443790434C24.110941408634186,24.019002443790434,0.1109034086341858,0.01904054379043579,0.1109034086341858,0.01904054379043579C0.1109034086341858,0.01904054379043579,0.01897950863418579,0.1109644437904358,0.01897950863418579,0.1109644437904358C0.01897950863418579,0.1109644437904358,24.018941408634184,24.111002443790436,24.018941408634184,24.111002443790436C24.018941408634184,24.111002443790436,24.110941408634186,24.019002443790434,24.110941408634186,24.019002443790434C24.110941408634186,24.019002443790434,24.110941408634186,24.019002443790434,24.110941408634186,24.019002443790434ZM0.1109034086341858,24.111002443790436C0.1109034086341858,24.111002443790436,24.110941408634186,0.1109644437904358,24.110941408634186,0.1109644437904358C24.110941408634186,0.1109644437904358,24.018941408634184,0.01904054379043579,24.018941408634184,0.01904054379043579C24.018941408634184,0.01904054379043579,0.01897950863418579,24.019002443790434,0.01897950863418579,24.019002443790434C0.01897950863418579,24.019002443790434,0.1109034086341858,24.111002443790436,0.1109034086341858,24.111002443790436C0.1109034086341858,24.111002443790436,0.1109034086341858,24.111002443790436,0.1109034086341858,24.111002443790436Z" fill="#DADEE4" fill-opacity="1"/></g><g><ellipse cx="12.06494140625" cy="12.06500244140625" rx="10" ry="10" fill-opacity="0" stroke-opacity="1" stroke="#DADEE4" fill="none" stroke-width="0.12999999523162842"/></g><g><rect x="2.06494140625" y="4.06500244140625" width="20" height="16" rx="1" fill-opacity="0" stroke-opacity="1" stroke="#DADEE4" fill="none" stroke-width="0.12999999523162842"/></g><g><rect x="4.06494140625" y="2.06500244140625" width="16" height="20" rx="1" fill-opacity="0" stroke-opacity="1" stroke="#DADEE4" fill="none" stroke-width="0.12999999523162842"/></g><g><rect x="3.06494140625" y="3.06500244140625" width="18" height="18" rx="1" fill-opacity="0" stroke-opacity="1" stroke="#DADEE4" fill="none" stroke-width="0.12999999523162842"/></g><g><ellipse cx="12.06494140625" cy="12.06500244140625" rx="4" ry="4" fill-opacity="0" stroke-opacity="1" stroke="#DADEE4" fill="none" stroke-width="0.12999999523162842"/></g></g><g><path d="M21.06494140625,9.06500244140625C21.06494140625,9.61728244140625,20.61724140625,10.06500244140625,20.06494140625,10.06500244140625C19.51264140625,10.06500244140625,19.06494140625,9.61728244140625,19.06494140625,9.06500244140625C19.06494140625,9.06500244140625,19.06494140625,6.4791224414062505,19.06494140625,6.4791224414062505C19.06494140625,6.4791224414062505,15.52824140625,10.01582244140625,15.52824140625,10.01582244140625C16.492241406250002,11.27763244140625,17.06494140625,12.85444244140625,17.06494140625,14.56500244140625C17.06494140625,18.70710244140625,13.70704140625,22.06500244140625,9.56494140625,22.06500244140625C5.4228014062500005,22.06500244140625,2.06494140625,18.70710244140625,2.06494140625,14.56500244140625C2.06494140625,10.422862441406249,5.4228014062500005,7.06500244140625,9.56494140625,7.06500244140625C11.27545140625,7.06500244140625,12.85224140625,7.63762244140625,14.11404140625,8.60162244140625C14.11404140625,8.60162244140625,17.65064140625,5.06500244140625,17.65064140625,5.06500244140625C17.65064140625,5.06500244140625,15.06494140625,5.06500244140625,15.06494140625,5.06500244140625C14.51264140625,5.06500244140625,14.06494140625,4.61728244140625,14.06494140625,4.06500244140625C14.06494140625,3.51271744140625,14.51264140625,3.06500244140625,15.06494140625,3.06500244140625C15.06494140625,3.06500244140625,19.81494140625,3.06500244140625,19.81494140625,3.06500244140625C20.50534140625,3.06500244140625,21.06494140625,3.62464644140625,21.06494140625,4.31500244140625C21.06494140625,4.31500244140625,21.06494140625,9.06500244140625,21.06494140625,9.06500244140625C21.06494140625,9.06500244140625,21.06494140625,9.06500244140625,21.06494140625,9.06500244140625ZM9.56494140625,9.06500244140625C6.52737140625,9.06500244140625,4.06494140625,11.52743244140625,4.06494140625,14.56500244140625C4.06494140625,17.602602441406248,6.52737140625,20.06500244140625,9.56494140625,20.06500244140625C12.60254140625,20.06500244140625,15.06494140625,17.602602441406248,15.06494140625,14.56500244140625C15.06494140625,11.52743244140625,12.60254140625,9.06500244140625,9.56494140625,9.06500244140625C9.56494140625,9.06500244140625,9.56494140625,9.06500244140625,9.56494140625,9.06500244140625Z" fill-rule="evenodd" fill="#09244B" fill-opacity="1"/></g></g></svg>