<svg xmlns="http://www.w3.org/2000/svg" xmlns:xlink="http://www.w3.org/1999/xlink" fill="none" version="1.1" width="24" height="24" viewBox="0 0 24 24"><g><g style="opacity:0;"><path d="M24,0C24,0,0,0,0,0C0,0,0,24,0,24C0,24,24,24,24,24C24,24,24,0,24,0C24,0,24,0,24,0Z" fill="#FFFFFF" fill-opacity="1"/></g><g><path d="M16,3.75C16,3.75,19,3.75,19,3.75C19,3.75,19,2.25,19,2.25C19,2.25,16,2.25,16,2.25C16,2.25,16,3.75,16,3.75C16,3.75,16,3.75,16,3.75ZM19,3.75C19.69036,3.75,20.25,4.30964,20.25,5C20.25,5,21.75,5,21.75,5C21.75,3.48122,20.51878,2.25,19,2.25C19,2.25,19,3.75,19,3.75C19,3.75,19,3.75,19,3.75ZM20.25,5C20.25,5,20.25,8,20.25,8C20.25,8,21.75,8,21.75,8C21.75,8,21.75,5,21.75,5C21.75,5,20.25,5,20.25,5C20.25,5,20.25,5,20.25,5ZM20.25,8C20.25,8.69036,19.69036,9.25,19,9.25C19,9.25,19,10.75,19,10.75C20.51878,10.75,21.75,9.51878,21.75,8C21.75,8,20.25,8,20.25,8C20.25,8,20.25,8,20.25,8ZM19,9.25C19,9.25,16,9.25,16,9.25C16,9.25,16,10.75,16,10.75C16,10.75,19,10.75,19,10.75C19,10.75,19,9.25,19,9.25C19,9.25,19,9.25,19,9.25ZM16,9.25C15.30964,9.25,14.75,8.69036,14.75,8C14.75,8,13.25,8,13.25,8C13.25,9.51878,14.48122,10.75,16,10.75C16,10.75,16,9.25,16,9.25C16,9.25,16,9.25,16,9.25ZM14.75,8C14.75,8,14.75,5,14.75,5C14.75,5,13.25,5,13.25,5C13.25,5,13.25,8,13.25,8C13.25,8,14.75,8,14.75,8C14.75,8,14.75,8,14.75,8ZM14.75,5C14.75,4.30964,15.30964,3.75,16,3.75C16,3.75,16,2.25,16,2.25C14.48122,2.25,13.25,3.48122,13.25,5C13.25,5,14.75,5,14.75,5C14.75,5,14.75,5,14.75,5Z" fill="#000000" fill-opacity="1"/></g><g><path d="M5,3.75C5,3.75,8,3.75,8,3.75C8,3.75,8,2.25,8,2.25C8,2.25,5,2.25,5,2.25C5,2.25,5,3.75,5,3.75C5,3.75,5,3.75,5,3.75ZM8,3.75C8.69036,3.75,9.25,4.30964,9.25,5C9.25,5,10.75,5,10.75,5C10.75,3.48122,9.51878,2.25,8,2.25C8,2.25,8,3.75,8,3.75C8,3.75,8,3.75,8,3.75ZM9.25,5C9.25,5,9.25,8,9.25,8C9.25,8,10.75,8,10.75,8C10.75,8,10.75,5,10.75,5C10.75,5,9.25,5,9.25,5C9.25,5,9.25,5,9.25,5ZM9.25,8C9.25,8.69036,8.69036,9.25,8,9.25C8,9.25,8,10.75,8,10.75C9.51878,10.75,10.75,9.51878,10.75,8C10.75,8,9.25,8,9.25,8C9.25,8,9.25,8,9.25,8ZM8,9.25C8,9.25,5,9.25,5,9.25C5,9.25,5,10.75,5,10.75C5,10.75,8,10.75,8,10.75C8,10.75,8,9.25,8,9.25C8,9.25,8,9.25,8,9.25ZM5,9.25C4.30964,9.25,3.75,8.69036,3.75,8C3.75,8,2.25,8,2.25,8C2.25,9.51878,3.48122,10.75,5,10.75C5,10.75,5,9.25,5,9.25C5,9.25,5,9.25,5,9.25ZM3.75,8C3.75,8,3.75,5,3.75,5C3.75,5,2.25,5,2.25,5C2.25,5,2.25,8,2.25,8C2.25,8,3.75,8,3.75,8C3.75,8,3.75,8,3.75,8ZM3.75,5C3.75,4.30964,4.30964,3.75,5,3.75C5,3.75,5,2.25,5,2.25C3.48122,2.25,2.25,3.48122,2.25,5C2.25,5,3.75,5,3.75,5C3.75,5,3.75,5,3.75,5Z" fill="#000000" fill-opacity="1"/></g><g><path d="M16,14.75C16,14.75,19,14.75,19,14.75C19,14.75,19,13.25,19,13.25C19,13.25,16,13.25,16,13.25C16,13.25,16,14.75,16,14.75C16,14.75,16,14.75,16,14.75ZM19,14.75C19.69036,14.75,20.25,15.30964,20.25,16C20.25,16,21.75,16,21.75,16C21.75,14.48122,20.51878,13.25,19,13.25C19,13.25,19,14.75,19,14.75C19,14.75,19,14.75,19,14.75ZM20.25,16C20.25,16,20.25,19,20.25,19C20.25,19,21.75,19,21.75,19C21.75,19,21.75,16,21.75,16C21.75,16,20.25,16,20.25,16C20.25,16,20.25,16,20.25,16ZM20.25,19C20.25,19.69036,19.69036,20.25,19,20.25C19,20.25,19,21.75,19,21.75C20.51878,21.75,21.75,20.51878,21.75,19C21.75,19,20.25,19,20.25,19C20.25,19,20.25,19,20.25,19ZM19,20.25C19,20.25,16,20.25,16,20.25C16,20.25,16,21.75,16,21.75C16,21.75,19,21.75,19,21.75C19,21.75,19,20.25,19,20.25C19,20.25,19,20.25,19,20.25ZM16,20.25C15.30964,20.25,14.75,19.69036,14.75,19C14.75,19,13.25,19,13.25,19C13.25,20.51878,14.48122,21.75,16,21.75C16,21.75,16,20.25,16,20.25C16,20.25,16,20.25,16,20.25ZM14.75,19C14.75,19,14.75,16,14.75,16C14.75,16,13.25,16,13.25,16C13.25,16,13.25,19,13.25,19C13.25,19,14.75,19,14.75,19C14.75,19,14.75,19,14.75,19ZM14.75,16C14.75,15.30964,15.30964,14.75,16,14.75C16,14.75,16,13.25,16,13.25C14.48122,13.25,13.25,14.48122,13.25,16C13.25,16,14.75,16,14.75,16C14.75,16,14.75,16,14.75,16Z" fill="#000000" fill-opacity="1"/></g><g><path d="M5,14.75C5,14.75,8,14.75,8,14.75C8,14.75,8,13.25,8,13.25C8,13.25,5,13.25,5,13.25C5,13.25,5,14.75,5,14.75C5,14.75,5,14.75,5,14.75ZM8,14.75C8.69036,14.75,9.25,15.30964,9.25,16C9.25,16,10.75,16,10.75,16C10.75,14.48122,9.51878,13.25,8,13.25C8,13.25,8,14.75,8,14.75C8,14.75,8,14.75,8,14.75ZM9.25,16C9.25,16,9.25,19,9.25,19C9.25,19,10.75,19,10.75,19C10.75,19,10.75,16,10.75,16C10.75,16,9.25,16,9.25,16C9.25,16,9.25,16,9.25,16ZM9.25,19C9.25,19.69036,8.69036,20.25,8,20.25C8,20.25,8,21.75,8,21.75C9.51878,21.75,10.75,20.51878,10.75,19C10.75,19,9.25,19,9.25,19C9.25,19,9.25,19,9.25,19ZM8,20.25C8,20.25,5,20.25,5,20.25C5,20.25,5,21.75,5,21.75C5,21.75,8,21.75,8,21.75C8,21.75,8,20.25,8,20.25C8,20.25,8,20.25,8,20.25ZM5,20.25C4.30964,20.25,3.75,19.69036,3.75,19C3.75,19,2.25,19,2.25,19C2.25,20.51878,3.48122,21.75,5,21.75C5,21.75,5,20.25,5,20.25C5,20.25,5,20.25,5,20.25ZM3.75,19C3.75,19,3.75,16,3.75,16C3.75,16,2.25,16,2.25,16C2.25,16,2.25,19,2.25,19C2.25,19,3.75,19,3.75,19C3.75,19,3.75,19,3.75,19ZM3.75,16C3.75,15.30964,4.30964,14.75,5,14.75C5,14.75,5,13.25,5,13.25C3.48122,13.25,2.25,14.48122,2.25,16C2.25,16,3.75,16,3.75,16C3.75,16,3.75,16,3.75,16Z" fill="#000000" fill-opacity="1"/></g></g></svg>