<svg xmlns="http://www.w3.org/2000/svg" xmlns:xlink="http://www.w3.org/1999/xlink" fill="none" version="1.1" width="24" height="24" viewBox="0 0 24 24"><defs><clipPath id="master_svg0_0_7975"><rect x="0" y="0" width="24" height="24" rx="0"/></clipPath></defs><g clip-path="url(#master_svg0_0_7975)"><g><g><path d="M8,23C8,23,16,23,16,23C17.6569,23,19,21.6569,19,20C19,20,19,4,19,4C19,2.34315,17.6569,1,16,1C16,1,8,1,8,1C6.34315,1,5,2.34315,5,4C5,4,5,20,5,20C5,21.6569,6.34315,23,8,23ZM17,4C17,4,17,20,17,20C17,20.5523,16.552300000000002,21,16,21C16,21,8,21,8,21C7.44772,21,7,20.5523,7,20C7,20,7,4,7,4C7,3.44772,7.44772,3,8,3C8,3,16,3,16,3C16.552300000000002,3,17,3.44772,17,4Z" fill-rule="evenodd" fill="#000000" fill-opacity="1"/></g><g><path d="M10.5,18C10.5,18,10.5,20,10.5,20C10.5,20,13.5,20,13.5,20C13.5,20,13.5,18,13.5,18C13.5,18,10.5,18,10.5,18Z" fill-rule="evenodd" fill="#000000" fill-opacity="1"/></g></g></g></svg>