<svg xmlns="http://www.w3.org/2000/svg" xmlns:xlink="http://www.w3.org/1999/xlink" fill="none" version="1.1" width="24" height="24" viewBox="0 0 24 24"><defs><clipPath id="master_svg0_0_1195"><rect x="0" y="0" width="24" height="24" rx="0"/></clipPath></defs><g clip-path="url(#master_svg0_0_1195)"><g><path d="M15,21C15.55228,21,16,20.55228,16,20C16,19.447715,15.55228,19,15,19C15,19,15,21,15,21C15,21,15,21,15,21ZM9,19C8.447715,19,8,19.447715,8,20C8,20.55228,8.447715,21,9,21C9,21,9,19,9,19C9,19,9,19,9,19ZM15,19C15,19,9,19,9,19C9,19,9,21,9,21C9,21,15,21,15,21C15,21,15,19,15,19C15,19,15,19,15,19Z" fill="#FFFFFF" fill-opacity="1"/></g><g><path d="M5,6C5,6,19,6,19,6C19,6,19,4,19,4C19,4,5,4,5,4C5,4,5,6,5,6C5,6,5,6,5,6ZM19,6C19,6,19,16,19,16C19,16,21,16,21,16C21,16,21,6,21,6C21,6,19,6,19,6C19,6,19,6,19,6ZM19,16C19,16,5,16,5,16C5,16,5,18,5,18C5,18,19,18,19,18C19,18,19,16,19,16C19,16,19,16,19,16ZM5,16C5,16,5,6,5,6C5,6,3,6,3,6C3,6,3,16,3,16C3,16,5,16,5,16C5,16,5,16,5,16ZM5,16C5,16,3,16,3,16C3,17.104599999999998,3.895431,18,5,18C5,18,5,16,5,16C5,16,5,16,5,16ZM19,16C19,16,19,16,19,16C19,16,19,18,19,18C20.1046,18,21,17.104599999999998,21,16C21,16,19,16,19,16C19,16,19,16,19,16ZM19,6C19,6,19,6,19,6C19,6,21,6,21,6C21,4.895431,20.1046,4,19,4C19,4,19,6,19,6C19,6,19,6,19,6ZM5,4C3.895431,4,3,4.89543,3,6C3,6,5,6,5,6C5,6,5,6,5,6C5,6,5,4,5,4C5,4,5,4,5,4Z" fill="#FFFFFF" fill-opacity="1"/></g></g></svg>