<svg xmlns="http://www.w3.org/2000/svg" xmlns:xlink="http://www.w3.org/1999/xlink" fill="none" version="1.1" width="24" height="24" viewBox="0 0 24 24"><defs><clipPath id="master_svg0_0_596"><rect x="0" y="0" width="24" height="24" rx="0"/></clipPath></defs><g clip-path="url(#master_svg0_0_596)"><g><path d="M18,18C18,18,16,18,16,18C16,19.10457,16.895431,20,18,20C18,20,18,18,18,18C18,18,18,18,18,18ZM18,18C18,18,18,20,18,20C19.10457,20,20,19.10457,20,18C20,18,18,18,18,18C18,18,18,18,18,18ZM18,18C18,18,20,18,20,18C20,16.895431,19.10457,16,18,16C18,16,18,18,18,18C18,18,18,18,18,18ZM18,16C16.895431,16,16,16.895431,16,18C16,18,18,18,18,18C18,18,18,16,18,16C18,16,18,16,18,16Z" fill="#FFFFFF" fill-opacity="1"/></g><g><path d="M12,18C12,18,10,18,10,18C10,19.10457,10.895431,20,12,20C12,20,12,18,12,18C12,18,12,18,12,18ZM12,18C12,18,12,20,12,20C13.104569999999999,20,14,19.10457,14,18C14,18,12,18,12,18C12,18,12,18,12,18ZM12,18C12,18,14,18,14,18C14,16.895431,13.104569999999999,16,12,16C12,16,12,18,12,18C12,18,12,18,12,18ZM12,16C10.895431,16,10,16.895431,10,18C10,18,12,18,12,18C12,18,12,16,12,16C12,16,12,16,12,16Z" fill="#FFFFFF" fill-opacity="1"/></g><g><path d="M6,18C6,18,4,18,4,18C4,19.10457,4.895431,20,6,20C6,20,6,18,6,18C6,18,6,18,6,18ZM6,18C6,18,6,20,6,20C7.10457,20,8,19.10457,8,18C8,18,6,18,6,18C6,18,6,18,6,18ZM6,18C6,18,8,18,8,18C8,16.895431,7.10457,16,6,16C6,16,6,18,6,18C6,18,6,18,6,18ZM6,16C4.895431,16,4,16.895431,4,18C4,18,6,18,6,18C6,18,6,16,6,16C6,16,6,16,6,16Z" fill="#FFFFFF" fill-opacity="1"/></g><g><path d="M18,12C18,12,16,12,16,12C16,13.104569999999999,16.895431,14,18,14C18,14,18,12,18,12C18,12,18,12,18,12ZM18,12C18,12,18,14,18,14C19.10457,14,20,13.104569999999999,20,12C20,12,18,12,18,12C18,12,18,12,18,12ZM18,12C18,12,20,12,20,12C20,10.895431,19.10457,10,18,10C18,10,18,12,18,12C18,12,18,12,18,12ZM18,10C16.895431,10,16,10.895431,16,12C16,12,18,12,18,12C18,12,18,10,18,10C18,10,18,10,18,10Z" fill="#FFFFFF" fill-opacity="1"/></g><g><path d="M12,12C12,12,10,12,10,12C10,13.104569999999999,10.895431,14,12,14C12,14,12,12,12,12C12,12,12,12,12,12ZM12,12C12,12,12,14,12,14C13.104569999999999,14,14,13.104569999999999,14,12C14,12,12,12,12,12C12,12,12,12,12,12ZM12,12C12,12,14,12,14,12C14,10.895431,13.104569999999999,10,12,10C12,10,12,12,12,12C12,12,12,12,12,12ZM12,10C10.895431,10,10,10.895431,10,12C10,12,12,12,12,12C12,12,12,10,12,10C12,10,12,10,12,10Z" fill="#FFFFFF" fill-opacity="1"/></g><g><path d="M6,12C6,12,4,12,4,12C4,13.104569999999999,4.895431,14,6,14C6,14,6,12,6,12C6,12,6,12,6,12ZM6,12C6,12,6,14,6,14C7.10457,14,8,13.104569999999999,8,12C8,12,6,12,6,12C6,12,6,12,6,12ZM6,12C6,12,8,12,8,12C8,10.895431,7.10457,10,6,10C6,10,6,12,6,12C6,12,6,12,6,12ZM6,10C4.895431,10,4,10.895431,4,12C4,12,6,12,6,12C6,12,6,10,6,10C6,10,6,10,6,10Z" fill="#FFFFFF" fill-opacity="1"/></g><g><path d="M18,6C18,6,16,6,16,6C16,7.10457,16.895431,8,18,8C18,8,18,6,18,6C18,6,18,6,18,6ZM18,6C18,6,18,8,18,8C19.10457,8,20,7.10457,20,6C20,6,18,6,18,6C18,6,18,6,18,6ZM18,6C18,6,20,6,20,6C20,4.895431,19.10457,4,18,4C18,4,18,6,18,6C18,6,18,6,18,6ZM18,4C16.895431,4,16,4.895431,16,6C16,6,18,6,18,6C18,6,18,4,18,4C18,4,18,4,18,4Z" fill="#FFFFFF" fill-opacity="1"/></g><g><path d="M12,6C12,6,10,6,10,6C10,7.10457,10.895431,8,12,8C12,8,12,6,12,6C12,6,12,6,12,6ZM12,6C12,6,12,8,12,8C13.104569999999999,8,14,7.10457,14,6C14,6,12,6,12,6C12,6,12,6,12,6ZM12,6C12,6,14,6,14,6C14,4.895431,13.104569999999999,4,12,4C12,4,12,6,12,6C12,6,12,6,12,6ZM12,4C10.895431,4,10,4.895431,10,6C10,6,12,6,12,6C12,6,12,4,12,4C12,4,12,4,12,4Z" fill="#FFFFFF" fill-opacity="1"/></g><g><path d="M6,6C6,6,4,6,4,6C4,7.10457,4.895431,8,6,8C6,8,6,6,6,6C6,6,6,6,6,6ZM6,6C6,6,6,8,6,8C7.10457,8,8,7.10457,8,6C8,6,6,6,6,6C6,6,6,6,6,6ZM6,6C6,6,8,6,8,6C8,4.895431,7.10457,4,6,4C6,4,6,6,6,6C6,6,6,6,6,6ZM6,4C4.895431,4,4,4.895431,4,6C4,6,6,6,6,6C6,6,6,4,6,4C6,4,6,4,6,4Z" fill="#FFFFFF" fill-opacity="1"/></g></g></svg>