<svg xmlns="http://www.w3.org/2000/svg" xmlns:xlink="http://www.w3.org/1999/xlink" fill="none" version="1.1" width="24" height="24" viewBox="0 0 24 24"><g><g style="opacity:0;"><path d="M24,0C24,0,0,0,0,0C0,0,0,24,0,24C0,24,24,24,24,24C24,24,24,0,24,0C24,0,24,0,24,0Z" fill="#FFFFFF" fill-opacity="1"/></g><g><path d="M15.75,19.25C15.75,18.835786,15.41421,18.5,15,18.5C14.58579,18.5,14.25,18.835786,14.25,19.25C14.25,19.25,15.75,19.25,15.75,19.25C15.75,19.25,15.75,19.25,15.75,19.25ZM9.75,19.25C9.75,18.835786,9.41421,18.5,9,18.5C8.585786,18.5,8.25,18.835786,8.25,19.25C8.25,19.25,9.75,19.25,9.75,19.25C9.75,19.25,9.75,19.25,9.75,19.25ZM14.25,19.25C14.25,19.84673,14.01294,20.41905,13.59098,20.84101C13.59098,20.84101,14.65164,21.90167,14.65164,21.90167C15.3549,21.19841,15.75,20.24457,15.75,19.25C15.75,19.25,14.25,19.25,14.25,19.25C14.25,19.25,14.25,19.25,14.25,19.25ZM13.59098,20.84101C13.16903,21.26296,12.59675,21.5,12,21.5C12,21.5,12,23,12,23C12.99455,23,13.94837,22.60493,14.65164,21.90167C14.65164,21.90167,13.59098,20.84101,13.59098,20.84101C13.59098,20.84101,13.59098,20.84101,13.59098,20.84101ZM12,21.5C11.40325,21.5,10.83097,21.26296,10.40902,20.84101C10.40902,20.84101,9.34836,21.90167,9.34836,21.90167C10.05163,22.60493,11.00545,23,12,23C12,23,12,21.5,12,21.5C12,21.5,12,21.5,12,21.5ZM10.40902,20.84101C9.98706,20.41905,9.75,19.84673,9.75,19.25C9.75,19.25,8.25,19.25,8.25,19.25C8.25,20.24457,8.645104,21.19841,9.34836,21.90167C9.34836,21.90167,10.40902,20.84101,10.40902,20.84101C10.40902,20.84101,10.40902,20.84101,10.40902,20.84101Z" fill="#000000" fill-opacity="1"/></g><g><path d="M4.010008280151367,16.05001183795929C4.010008280151367,16.05001183795929,3.2656451801513673,15.95821183795929,3.2656451801513673,15.95821183795929C3.2656451801513673,15.95821183795929,3.265590180151367,15.958611837959289,3.265590180151367,15.958611837959289C3.265590180151367,15.958611837959289,4.010008280151367,16.05001183795929,4.010008280151367,16.05001183795929C4.010008280151367,16.05001183795929,4.010008280151367,16.05001183795929,4.010008280151367,16.05001183795929ZM5.0100052801513675,7.93998183795929C5.0100052801513675,7.93998183795929,4.268645280151367,7.82646183795929,4.268645280151367,7.82646183795929C4.267545280151367,7.8336918379592895,4.266535280151367,7.84093183795929,4.265645280151367,7.848191837959289C4.265645280151367,7.848191837959289,5.0100052801513675,7.93998183795929,5.0100052801513675,7.93998183795929C5.0100052801513675,7.93998183795929,5.0100052801513675,7.93998183795929,5.0100052801513675,7.93998183795929ZM19.010015280151368,7.93998183795929C19.010015280151368,7.93998183795929,19.754415280151367,7.848191837959289,19.754415280151367,7.848191837959289C19.75351528015137,7.84093183795929,19.752515280151368,7.8336918379592895,19.751315280151367,7.82646183795929C19.751315280151367,7.82646183795929,19.010015280151368,7.93998183795929,19.010015280151368,7.93998183795929C19.010015280151368,7.93998183795929,19.010015280151368,7.93998183795929,19.010015280151368,7.93998183795929ZM20.010015280151368,16.05001183795929C20.010015280151368,16.05001183795929,19.265615280151366,16.141711837959292,19.265615280151366,16.141711837959292C19.265615280151366,16.141711837959292,19.26571528015137,16.14211183795929,19.26571528015137,16.14211183795929C19.26571528015137,16.14211183795929,20.010015280151368,16.05001183795929,20.010015280151368,16.05001183795929C20.010015280151368,16.05001183795929,20.010015280151368,16.05001183795929,20.010015280151368,16.05001183795929ZM18.45001528015137,18.25001183795929C18.45001528015137,18.25001183795929,18.290615280151368,17.517011837959288,18.290615280151368,17.517011837959288C18.290615280151368,17.517011837959288,18.278415280151368,17.519911837959288,18.278415280151368,17.519911837959288C18.278415280151368,17.519911837959288,18.45001528015137,18.25001183795929,18.45001528015137,18.25001183795929C18.45001528015137,18.25001183795929,18.45001528015137,18.25001183795929,18.45001528015137,18.25001183795929ZM5.735655280151367,17.51631183795929C5.429765280151367,17.451411837959288,5.159305280151367,17.27421183795929,4.977645280151367,17.01961183795929C4.977645280151367,17.01961183795929,3.756667280151367,17.89101183795929,3.756667280151367,17.89101183795929C4.156296280151367,18.45091183795929,4.751295280151368,18.84081183795929,5.424315280151367,18.98361183795929C5.424315280151367,18.98361183795929,5.735655280151367,17.51631183795929,5.735655280151367,17.51631183795929C5.735655280151367,17.51631183795929,5.735655280151367,17.51631183795929,5.735655280151367,17.51631183795929ZM4.977645280151367,17.01961183795929C4.795985280151367,16.76511183795929,4.7163452801513674,16.451711837959287,4.754425280151367,16.14131183795929C4.754425280151367,16.14131183795929,3.265590180151367,15.958611837959289,3.265590180151367,15.958611837959289C3.181809180151367,16.64151183795929,3.3570262801513673,17.330911837959288,3.756667280151367,17.89101183795929C3.756667280151367,17.89101183795929,4.977645280151367,17.01961183795929,4.977645280151367,17.01961183795929C4.977645280151367,17.01961183795929,4.977645280151367,17.01961183795929,4.977645280151367,17.01961183795929ZM4.754365280151367,16.141711837959292C4.754365280151367,16.141711837959292,5.754365280151367,8.03176183795929,5.754365280151367,8.03176183795929C5.754365280151367,8.03176183795929,4.265645280151367,7.848191837959289,4.265645280151367,7.848191837959289C4.265645280151367,7.848191837959289,3.2656451801513673,15.95821183795929,3.2656451801513673,15.95821183795929C3.2656451801513673,15.95821183795929,4.754365280151367,16.141711837959292,4.754365280151367,16.141711837959292C4.754365280151367,16.141711837959292,4.754365280151367,16.141711837959292,4.754365280151367,16.141711837959292ZM5.751365280151367,8.053501837959288C5.979325280151367,6.564791837959289,6.737175280151368,5.20844183795929,7.885495280151368,4.23400183795929C7.885495280151368,4.23400183795929,6.914975280151367,3.0902918379592896,6.914975280151367,3.0902918379592896C5.491035280151367,4.298601837959289,4.551315280151368,5.980471837959289,4.268645280151367,7.82646183795929C4.268645280151367,7.82646183795929,5.751365280151367,8.053501837959288,5.751365280151367,8.053501837959288C5.751365280151367,8.053501837959288,5.751365280151367,8.053501837959288,5.751365280151367,8.053501837959288ZM7.885495280151368,4.23400183795929C9.033815280151368,3.2595718379592897,10.495405280151367,2.7325718379592896,12.001365280151367,2.7499218379592896C12.001365280151367,2.7499218379592896,12.018645280151366,1.2500267609592894,12.018645280151366,1.2500267609592894C10.151275280151367,1.2285097379592895,8.338905280151367,1.8819768379592896,6.914975280151367,3.0902918379592896C6.914975280151367,3.0902918379592896,7.885495280151368,4.23400183795929,7.885495280151368,4.23400183795929C7.885495280151368,4.23400183795929,7.885495280151368,4.23400183795929,7.885495280151368,4.23400183795929ZM12.018645280151366,2.7499218379592896C13.524615280151368,2.7325718379592896,14.986115280151367,3.2595718379592897,16.13451528015137,4.23400183795929C16.13451528015137,4.23400183795929,17.105015280151367,3.0902918379592896,17.105015280151367,3.0902918379592896C15.681115280151367,1.8819798379592896,13.868715280151367,1.2285097379592895,12.001365280151367,1.2500267609592894C12.001365280151367,1.2500267609592894,12.018645280151366,2.7499218379592896,12.018645280151366,2.7499218379592896C12.018645280151366,2.7499218379592896,12.018645280151366,2.7499218379592896,12.018645280151366,2.7499218379592896ZM16.13451528015137,4.23400183795929C17.282815280151368,5.20844183795929,18.040715280151367,6.56480183795929,18.268615280151366,8.053501837959288C18.268615280151366,8.053501837959288,19.751315280151367,7.82646183795929,19.751315280151367,7.82646183795929C19.46871528015137,5.9804618379592895,18.528915280151367,4.29859183795929,17.105015280151367,3.0902918379592896C17.105015280151367,3.0902918379592896,16.13451528015137,4.23400183795929,16.13451528015137,4.23400183795929C16.13451528015137,4.23400183795929,16.13451528015137,4.23400183795929,16.13451528015137,4.23400183795929ZM18.265615280151366,8.03176183795929C18.265615280151366,8.03176183795929,19.265615280151366,16.141711837959292,19.265615280151366,16.141711837959292C19.265615280151366,16.141711837959292,20.754415280151367,15.95821183795929,20.754415280151367,15.95821183795929C20.754415280151367,15.95821183795929,19.754415280151367,7.848191837959289,19.754415280151367,7.848191837959289C19.754415280151367,7.848191837959289,18.265615280151366,8.03176183795929,18.265615280151366,8.03176183795929C18.265615280151366,8.03176183795929,18.265615280151366,8.03176183795929,18.265615280151366,8.03176183795929ZM19.26571528015137,16.14211183795929C19.30401528015137,16.45161183795929,19.225215280151367,16.76431183795929,19.04481528015137,17.018711837959287C19.04481528015137,17.018711837959287,20.268415280151366,17.88631183795929,20.268415280151366,17.88631183795929C20.66531528015137,17.32661183795929,20.838615280151366,16.638811837959288,20.754315280151367,15.957811837959289C20.754315280151367,15.957811837959289,19.26571528015137,16.14211183795929,19.26571528015137,16.14211183795929C19.26571528015137,16.14211183795929,19.26571528015137,16.14211183795929,19.26571528015137,16.14211183795929ZM19.04481528015137,17.018711837959287C18.86441528015137,17.273111837959288,18.595415280151368,17.45081183795929,18.290715280151367,17.51711183795929C18.290715280151367,17.51711183795929,18.609315280151367,18.98281183795929,18.609315280151367,18.98281183795929C19.279815280151368,18.837111837959288,19.871515280151367,18.44601183795929,20.268415280151366,17.88631183795929C20.268415280151366,17.88631183795929,19.04481528015137,17.018711837959287,19.04481528015137,17.018711837959287C19.04481528015137,17.018711837959287,19.04481528015137,17.018711837959287,19.04481528015137,17.018711837959287ZM18.278415280151368,17.519911837959288C14.158915280151367,18.487911837959288,9.871065280151367,18.487911837959288,5.751555280151367,17.519911837959288C5.751555280151367,17.519911837959288,5.408415280151367,18.98011183795929,5.408415280151367,18.98011183795929C9.753615280151367,20.00121183795929,14.276415280151367,20.00121183795929,18.621615280151367,18.98011183795929C18.621615280151367,18.98011183795929,18.278415280151368,17.519911837959288,18.278415280151368,17.519911837959288C18.278415280151368,17.519911837959288,18.278415280151368,17.519911837959288,18.278415280151368,17.519911837959288Z" fill="#000000" fill-opacity="1"/></g></g></svg>