<svg xmlns="http://www.w3.org/2000/svg" xmlns:xlink="http://www.w3.org/1999/xlink" fill="none" version="1.1" width="32" height="32" viewBox="0 0 32 32"><defs><clipPath id="master_svg0_0_1690"><rect x="0" y="0" width="32" height="32" rx="0"/></clipPath><linearGradient x1="0.5" y1="-3.0616171314629196e-17" x2="0.5" y2="1" id="master_svg1__02"><stop offset="0%" stop-color="#F5BD52" stop-opacity="1"/><stop offset="100%" stop-color="#F5DA79" stop-opacity="1"/></linearGradient><linearGradient x1="0.5" y1="-3.0616171314629196e-17" x2="0.5" y2="1" id="master_svg2__6"><stop offset="0%" stop-color="#EFC977" stop-opacity="1"/><stop offset="100%" stop-color="#E07256" stop-opacity="1"/></linearGradient><linearGradient x1="0.5" y1="-3.0616171314629196e-17" x2="0.5" y2="1" id="master_svg3__10"><stop offset="0%" stop-color="#95B6F6" stop-opacity="1"/><stop offset="100%" stop-color="#5193DE" stop-opacity="1"/></linearGradient></defs><g clip-path="url(#master_svg0_0_1690)"><g><g><path d="M17.167969263305665,16.445298194885254C17.167969263305665,16.445298194885254,18.832059263305666,17.554698194885255,18.832059263305666,17.554698194885255C18.832059263305666,17.554698194885255,15.868519263305664,21.999998194885254,15.868519263305664,21.999998194885254C15.868519263305664,21.999998194885254,20.955759263305666,21.999998194885254,20.955759263305666,21.999998194885254C20.955759263305666,21.999998194885254,15.477349263305664,29.585498194885254,15.477349263305664,29.585498194885254C15.477349263305664,29.585498194885254,13.855989263305664,28.414498194885255,13.855989263305664,28.414498194885255C13.855989263305664,28.414498194885255,17.044249263305666,23.999998194885254,17.044249263305666,23.999998194885254C17.044249263305666,23.999998194885254,12.131479263305664,23.999998194885254,12.131479263305664,23.999998194885254C12.131479263305664,23.999998194885254,17.167969263305665,16.445298194885254,17.167969263305665,16.445298194885254C17.167969263305665,16.445298194885254,17.167969263305665,16.445298194885254,17.167969263305665,16.445298194885254Z" fill-rule="evenodd" fill="url(#master_svg1__02)" fill-opacity="1"/></g><g><path d="M27.97850359375,13.2109C29.223733593749998,12.0268,30.00003359375,10.35404,30.00003359375,8.5C30.00003359375,4.91015,27.08983359375,2,23.49998359375,2C21.25431359375,2,19.27462359375,3.13882,18.10693359375,4.87046C18.61774159375,5.3536,19.08005459375,5.8875,19.48580359375,6.46406C20.22889359375,5.00184,21.74744359375,4,23.49998359375,4C25.98526359375,4,27.999983593750002,6.01472,27.999983593750002,8.5C27.999983593750002,9.606020000000001,27.600963593750002,10.61885,26.93903359375,11.40238C27.37662359375,11.9406,27.72983359375,12.5502,27.97850359375,13.2109C27.97850359375,13.2109,27.97850359375,13.2109,27.97850359375,13.2109Z" fill-rule="evenodd" fill="url(#master_svg2__6)" fill-opacity="1"/></g><g><path d="M10,23.665C5.4023699999999995,22.4598,2,18.1419,2,13C2,6.92487,6.74949,2,12.6083,2C17.469,2,21.5661,5.38976,22.821,10.01387C22.9626,10.00467,23.1054,10.00001,23.2493,10.00001C26.9776,10.00001,30,13.134,30,17C30,20.866,26.9776,24,23.2493,24C23.1658,24,23.0827,23.9984,23,23.9953C23,23.9953,23,22,23,22C23,22,23.3029,22,23.3029,22C23.3029,22,23.3029,21.9996,23.3029,21.9996C25.8359,21.9695,28,19.8105,28,17C28,14.1696,25.8053,12,23.2493,12C22.5272,12,21.8339,12.1732,21.2108,12.4855C21.1791,11.90367,21.0937,11.33674,20.9599,10.78992C20.9599,10.78992,20.9569,10.79115,20.9569,10.79115C20.0091,6.85004,16.5839,4,12.6083,4C7.92179,4,4,7.96046,4,13C4,17.0657,6.55261,20.4291,10,21.5772C10,21.5772,10,23.665,10,23.665C10,23.665,10,23.665,10,23.665Z" fill-rule="evenodd" fill="url(#master_svg3__10)" fill-opacity="1"/></g></g></g></svg>