<svg xmlns="http://www.w3.org/2000/svg" xmlns:xlink="http://www.w3.org/1999/xlink" fill="none" version="1.1" width="24" height="24" viewBox="0 0 24 24"><defs><clipPath id="master_svg0_0_8666"><rect x="0" y="0" width="24" height="24" rx="0"/></clipPath></defs><g clip-path="url(#master_svg0_0_8666)"><g><g><path d="M4,21C4,21,20,21,20,21C21.6569,21,23,19.6569,23,18C23,18,23,6,23,6C23,4.34315,21.6569,3,20,3C20,3,4,3,4,3C2.34315,3,1,4.34315,1,6C1,6,1,18,1,18C1,19.6569,2.34315,21,4,21ZM21,6C21,6,21,18,21,18C21,18.552300000000002,20.5523,19,20,19C20,19,4,19,4,19C3.44772,19,3,18.552300000000002,3,18C3,18,3,6,3,6C3,5.44772,3.44772,5,4,5C4,5,20,5,20,5C20.5523,5,21,5.44772,21,6Z" fill-rule="evenodd" fill="#000000" fill-opacity="1"/></g><g><path d="M17,10C16.44772,10,16,9.55228,16,9C16,8.44772,16.44772,8,17,8C17.55228,8,18,8.44772,18,9C18,9.55228,17.55228,10,17,10ZM20,9C20,7.34315,18.65685,6,17,6C15.34315,6,14,7.34315,14,9C14,10.65685,15.34315,12,17,12C18.65685,12,20,10.65685,20,9Z" fill-rule="evenodd" fill="#000000" fill-opacity="1"/></g><g><path d="M1,17.000001866607665C1,17.000001866607665,1,18.00000186660767,1,18.00000186660767C1,19.656851866607667,2.34315,20.999971866607666,4,20.999971866607666C4,20.999971866607666,20,20.999971866607666,20,20.999971866607666C21.6569,20.999971866607666,23,19.656851866607667,23,18.00000186660767C23,18.00000186660767,23,16.000001866607665,23,16.000001866607665C23,15.577381866607666,22.7343,15.200401866607667,22.3363,15.058261866607666C22.3363,15.058261866607666,8.33634,10.058258066607666,8.33634,10.058258066607666C7.9724,9.928281866607666,7.56615,10.019633866607666,7.29289,10.292892866607666C7.29289,10.292892866607666,1.292893,16.292891866607665,1.292893,16.292891866607665C1.105357,16.480431866607667,1,16.734781866607666,1,17.000001866607665ZM21,18.00000186660767C21,18.552281866607665,20.5523,19.00000186660767,20,19.00000186660767C20,19.00000186660767,4,19.00000186660767,4,19.00000186660767C3.44772,19.00000186660767,3,18.552281866607665,3,18.00000186660767C3,18.00000186660767,3,17.414211866607666,3,17.414211866607666C3,17.414211866607666,8.25963,12.154581866607666,8.25963,12.154581866607666C8.25963,12.154581866607666,21,16.704721866607667,21,16.704721866607667C21,16.704721866607667,21,18.00000186660767,21,18.00000186660767Z" fill-rule="evenodd" fill="#000000" fill-opacity="1"/></g></g></g></svg>