<svg xmlns="http://www.w3.org/2000/svg" xmlns:xlink="http://www.w3.org/1999/xlink" fill="none" version="1.1" width="24.000001907348633" height="24" viewBox="0 0 24.000001907348633 24"><defs><clipPath id="master_svg0_0_456"><rect x="0" y="0" width="24.000001907348633" height="24" rx="0"/></clipPath></defs><g clip-path="url(#master_svg0_0_456)"><g><path d="M13.00000286102295,6C13.00000286102295,5.447715,12.552282861022949,5,12.00000286102295,5C11.44771286102295,5,11.00000286102295,5.447715,11.00000286102295,6C11.00000286102295,6,13.00000286102295,6,13.00000286102295,6C13.00000286102295,6,13.00000286102295,6,13.00000286102295,6ZM11.00000286102295,18C11.00000286102295,18.552300000000002,11.44771286102295,19,12.00000286102295,19C12.552282861022949,19,13.00000286102295,18.552300000000002,13.00000286102295,18C13.00000286102295,18,11.00000286102295,18,11.00000286102295,18C11.00000286102295,18,11.00000286102295,18,11.00000286102295,18ZM18.00000286102295,13C18.55230286102295,13,19.00000286102295,12.55228,19.00000286102295,12C19.00000286102295,11.44772,18.55230286102295,11,18.00000286102295,11C18.00000286102295,11,18.00000286102295,13,18.00000286102295,13C18.00000286102295,13,18.00000286102295,13,18.00000286102295,13ZM6.000002861022949,11C5.447717861022949,11,5.000002861022949,11.44771,5.000002861022949,12C5.000002861022949,12.55228,5.447717861022949,13,6.000002861022949,13C6.000002861022949,13,6.000002861022949,11,6.000002861022949,11C6.000002861022949,11,6.000002861022949,11,6.000002861022949,11ZM11.00000286102295,6C11.00000286102295,6,11.00000286102295,12,11.00000286102295,12C11.00000286102295,12,13.00000286102295,12,13.00000286102295,12C13.00000286102295,12,13.00000286102295,6,13.00000286102295,6C13.00000286102295,6,11.00000286102295,6,11.00000286102295,6C11.00000286102295,6,11.00000286102295,6,11.00000286102295,6ZM11.00000286102295,12C11.00000286102295,12,11.00000286102295,18,11.00000286102295,18C11.00000286102295,18,13.00000286102295,18,13.00000286102295,18C13.00000286102295,18,13.00000286102295,12,13.00000286102295,12C13.00000286102295,12,11.00000286102295,12,11.00000286102295,12C11.00000286102295,12,11.00000286102295,12,11.00000286102295,12ZM18.00000286102295,11C18.00000286102295,11,12.00000286102295,11,12.00000286102295,11C12.00000286102295,11,12.00000286102295,13,12.00000286102295,13C12.00000286102295,13,18.00000286102295,13,18.00000286102295,13C18.00000286102295,13,18.00000286102295,11,18.00000286102295,11C18.00000286102295,11,18.00000286102295,11,18.00000286102295,11ZM12.00000286102295,11C12.00000286102295,11,6.000002861022949,11,6.000002861022949,11C6.000002861022949,11,6.000002861022949,13,6.000002861022949,13C6.000002861022949,13,12.00000286102295,13,12.00000286102295,13C12.00000286102295,13,12.00000286102295,11,12.00000286102295,11C12.00000286102295,11,12.00000286102295,11,12.00000286102295,11Z" fill="#111827" fill-opacity="1"/></g></g></svg>