<svg xmlns="http://www.w3.org/2000/svg" xmlns:xlink="http://www.w3.org/1999/xlink" fill="none" version="1.1" width="24" height="24" viewBox="0 0 24 24"><g><g><path d="M12.0099753515625,22.5972103515625C11.2730253515625,22.6730103515625,9.8265553515625,22.7480103515625,8.510385351562501,22.7501103515625C7.8230353515625,22.7511103515625,7.1483353515625,22.7324103515625,6.6174053515625,22.6797103515625C6.3551453515625,22.6536103515625,6.1010253515625,22.6168103515625,5.8888053515625,22.5610103515625C5.783565351562499,22.5333103515625,5.6632953515625,22.4946103515625,5.548675351562499,22.4367103515625C5.4488953515625,22.3863103515625,5.2641953515625,22.2779103515625,5.139045351562499,22.0668103515625C5.0185953515624995,21.8636103515625,4.9601153515625,21.6284103515625,4.9870853515625,21.3826103515625C5.0128153515625,21.1480103515625,5.1102653515625,20.9568103515625,5.2125153515625,20.8146103515625C5.4054853515625005,20.5462103515625,5.6886453515625,20.3517103515625,5.9205053515625,20.2175103515625C6.0224753515625,20.1584103515625,6.1296553515625,20.1026103515625,6.2385453515625,20.0503103515625C5.7706653515625,19.4777103515625,5.4215853515625,18.8544103515625,5.1876653515625,18.2319103515625C5.0637253515625,18.3862103515625,4.935075351562499,18.5354103515625,4.8089853515625,18.6636103515625C4.7021353515625,18.7722103515625,4.5750553515625,18.8885103515625,4.4363653515625,18.9801103515625C4.3282953515625,19.0515103515625,4.0670153515625,19.2088103515625,3.7343593515625,19.1682103515625C3.3858993515625,19.1255103515625,3.1946233515625,18.8857103515625,3.1226753515625,18.7781103515625C3.0360813515625,18.6486103515625,2.9845573515625,18.5082103515625,2.9515552515625,18.3883103515625C2.8839455515625,18.1428103515625,2.8544924915625,17.8358103515625,2.8608238815625,17.4797103515625C2.8736292515625,16.7595103515625,3.0354643515625,15.7193103515625,3.4742333515625,14.3069103515625C3.8132583515625003,13.2152103515625,4.1926253515625,12.2755103515625,4.7028353515625,11.0116303515625C4.7028353515625,11.0116303515625,4.7097453515625,10.9945203515625,4.7097453515625,10.9945203515625C4.8034953515625,10.7622803515625,4.9018053515624995,10.5187703515625,5.005505351562499,10.2604203515625C4.9671053515625,7.9420003515625,5.4267353515625,5.7342103515625,6.5349953515625,4.0708503515625C7.6906453515625,2.3363503515625,9.5146753515625,1.2555974615625,12.0013653515625,1.2506275668625C12.0042353515625,1.2506275668625,12.0071053515625,1.2506117863125,12.0099753515625,1.2506146538925C12.0128553515625,1.2506117863125,12.0157253515625,1.2506103522025,12.0185953515625,1.2506103522025C14.5052853515625,1.2555802515625,16.3292853515625,2.3363503515625,17.4849853515625,4.0708503515625C18.5931853515625,5.7342103515625,19.0528853515625,7.9420003515625,19.0144853515625,10.2604203515625C19.1181853515625,10.5187703515625,19.2164853515625,10.7622803515625,19.3101853515625,10.9945203515625C19.3101853515625,10.9945203515625,19.3170853515625,11.0116303515625,19.3170853515625,11.0116303515625C19.8273853515625,12.2755103515625,20.2066853515625,13.2152103515625,20.5456853515625,14.3069103515625C20.9844853515625,15.7193103515625,21.1462853515625,16.7595103515625,21.1590853515625,17.4797103515625C21.1654853515625,17.8358103515625,21.1359853515625,18.1428103515625,21.0683853515625,18.3883103515625C21.0353853515625,18.5082103515625,20.9838853515625,18.6486103515625,20.8972853515625,18.7781103515625C20.8252853515625,18.8857103515625,20.6340853515625,19.1255103515625,20.2855853515625,19.1682103515625C19.9529853515625,19.2088103515625,19.6916853515625,19.0515103515625,19.5835853515625,18.9801103515625C19.4448853515625,18.8885103515625,19.3177853515625,18.7722103515625,19.2109853515625,18.6636103515625C19.0848853515625,18.5354103515625,18.9562853515625,18.3862103515625,18.8322853515625,18.2319103515625C18.5983853515625,18.8544103515625,18.2492853515625,19.4777103515625,17.7813853515625,20.0503103515625C17.8902853515625,20.1026103515625,17.9974853515625,20.1584103515625,18.0994853515625,20.2175103515625C18.3312853515625,20.3517103515625,18.6144853515625,20.5462103515625,18.807485351562498,20.8146103515625C18.9096853515625,20.9568103515625,19.0071853515625,21.1480103515625,19.0328853515625,21.3826103515625C19.0598853515625,21.6284103515625,19.0013853515625,21.8636103515625,18.8808853515625,22.0668103515625C18.7557853515625,22.2779103515625,18.571085351562502,22.3863103515625,18.4712853515625,22.4367103515625C18.3566853515625,22.4946103515625,18.2363853515625,22.5333103515625,18.1311853515625,22.5610103515625C17.9188853515625,22.6168103515625,17.6647853515625,22.6536103515625,17.4025853515625,22.6797103515625C16.8715853515625,22.7324103515625,16.1968853515625,22.7511103515625,15.5095853515625,22.7501103515625C14.1933853515625,22.7480103515625,12.7469353515625,22.6730103515625,12.0099753515625,22.5972103515625C12.0099753515625,22.5972103515625,12.0099753515625,22.5972103515625,12.0099753515625,22.5972103515625ZM6.508335351562501,10.3778803515625C6.4510653515625,8.1870903515625,6.8797653515625,6.2586503515625,7.7832953515625,4.902560351562499C8.6604253515625,3.5860803515625,10.0176853515625,2.7530103515624997,12.0099753515625,2.7506203515625C14.0022853515625,2.7530103515624997,15.3594853515625,3.5860803515625,16.2366853515625,4.902560351562499C17.1401853515625,6.2586503515625,17.5688853515625,8.1870903515625,17.511585351562502,10.3778803515625C17.5089853515625,10.4799803515625,17.5271853515625,10.5815603515625,17.565185351562498,10.6763703515625C17.6906853515625,10.9898003515625,17.8083853515625,11.2813103515625,17.918985351562497,11.5552103515625C18.4365853515625,12.8375103515625,18.7941853515625,13.7243103515625,19.1131853515625,14.7518103515625C19.3687853515625,15.5745103515625,19.5139853515625,16.231410351562502,19.5895853515625,16.7396103515625C19.3158853515625,16.350410351562502,19.1006853515625,16.0062103515625,19.0804853515625,15.9738103515625C18.9241853515625,15.7226103515625,18.6346853515625,15.5869103515625,18.3416853515625,15.6272103515625C18.3416853515625,15.6272103515625,18.3403853515625,15.6274103515625,18.3403853515625,15.6274103515625C17.9696853515625,15.6784103515625,17.693385351562497,15.9947103515625,17.6925853515625,16.368910351562498C17.6905853515625,17.3654103515625,17.1616853515625,18.7537103515625,15.9659853515625,19.7667103515625C15.8318853515625,19.8804103515625,15.7419853515625,20.0375103515625,15.7118853515625,20.2107103515625C15.7118853515625,20.2107103515625,15.7116853515625,20.2120103515625,15.7116853515625,20.2120103515625C15.6718853515625,20.4411103515625,15.7406853515625,20.6758103515625,15.8978853515625,20.8472103515625C15.8978853515625,20.8472103515625,15.8988853515625,20.8482103515625,15.8988853515625,20.8482103515625C15.9887853515625,20.9463103515625,16.1030853515625,21.0186103515625,16.2301853515625,21.0579103515625C16.3709853515625,21.1014103515625,16.5413853515625,21.1585103515625,16.7164853515625,21.2254103515625C16.356485351562497,21.2431103515625,15.9452853515625,21.2507103515625,15.5118853515625,21.2501103515625C14.1867853515625,21.2480103515625,12.6526353515625,21.1635103515625,12.0099753515625,21.0929103515625C11.3673253515625,21.1635103515625,9.8331553515625,21.2480103515625,8.5080553515625,21.2501103515625C8.0747153515625,21.2507103515625,7.6635153515625,21.2431103515625,7.3034853515625,21.2254103515625C7.4785353515625,21.1585103515625,7.6489653515625,21.1014103515625,7.7897353515625,21.0579103515625C7.9168353515625,21.0186103515625,8.0311953515625,20.9463103515625,8.1211053515625,20.8482103515625C8.1211053515625,20.8482103515625,8.1220753515625,20.8472103515625,8.1220753515625,20.8472103515625C8.2792653515625,20.6758103515625,8.3480553515625,20.4411103515625,8.3082953515625,20.2120103515625C8.3082953515625,20.2120103515625,8.308065351562501,20.2107103515625,8.308065351562501,20.2107103515625C8.2780053515625,20.0375103515625,8.1880653515625,19.8804103515625,8.053935351562501,19.7667103515625C6.8582353515625005,18.7537103515625,6.3293853515625,17.3654103515625,6.3273753515625,16.368910351562498C6.3266253515625,15.9947103515625,6.0502353515625,15.6784103515625,5.6795753515625,15.6274103515625C5.6795753515625,15.6274103515625,5.6783153515625,15.6272103515625,5.6783153515625,15.6272103515625C5.3852253515625,15.5869103515625,5.0958153515625,15.7226103515625,4.9394453515625,15.9738103515625C4.9192953515625,16.0062103515625,4.7040653515625,16.350410351562502,4.4304153515625,16.7396103515625C4.5059753515625,16.231410351562502,4.6511453515625,15.5745103515625,4.9067253515625,14.7518103515625C5.2258253515625,13.7243103515625,5.5830853515625005,12.8382103515625,6.1007553515624995,11.5558103515625C6.2112953515625,11.2820103515625,6.3292953515625,10.9897303515625,6.4548153515625,10.6763703515625C6.4927953515625,10.5815603515625,6.5110053515625,10.4799803515625,6.508335351562501,10.3778803515625C6.508335351562501,10.3778803515625,6.508335351562501,10.3778803515625,6.508335351562501,10.3778803515625Z" fill-rule="evenodd" fill="#000000" fill-opacity="1"/></g></g></svg>