<svg xmlns="http://www.w3.org/2000/svg" xmlns:xlink="http://www.w3.org/1999/xlink" fill="none" version="1.1" width="24" height="24" viewBox="0 0 24 24"><defs><clipPath id="master_svg0_0_8683"><rect x="0" y="0" width="24" height="24" rx="0"/></clipPath></defs><g clip-path="url(#master_svg0_0_8683)"><g><g><path d="M19,8.669695168733176C19,8.669695168733176,19,15.330295168733176,19,15.330295168733176C19,15.691595168733176,18.8051,16.024795168733178,18.490299999999998,16.201895168733174C18.490299999999998,16.201895168733174,12.49026,19.576895168733174,12.49026,19.576895168733174C12.18585,19.748095168733172,11.81415,19.748095168733172,11.50974,19.576895168733174C11.50974,19.576895168733174,5.50974,16.201895168733174,5.50974,16.201895168733174C5.19486,16.024795168733178,5,15.691595168733176,5,15.330295168733176C5,15.330295168733176,5,8.669695168733176,5,8.669695168733176C5,8.308425168733176,5.19486,7.9752351687331755,5.50974,7.798115168733176C5.50974,7.798115168733176,11.50974,4.423115168733176,11.50974,4.423115168733176C11.81415,4.251885168733176,12.18585,4.251885168733176,12.49026,4.423115168733176C12.49026,4.423115168733176,18.490299999999998,7.798115168733176,18.490299999999998,7.798115168733176C18.8051,7.9752351687331755,19,8.308425168733176,19,8.669695168733176ZM3,8.669695168733176C3,8.669695168733176,3,15.330295168733176,3,15.330295168733176C3,16.414095168733176,3.584587,17.413695168733177,4.5292200000000005,17.944995168733175C4.5292200000000005,17.944995168733175,10.529219999999999,21.31999516873318,10.529219999999999,21.31999516873318C11.44246,21.83369516873318,12.55754,21.83369516873318,13.4708,21.31999516873318C13.4708,21.31999516873318,19.4708,17.944995168733175,19.4708,17.944995168733175C20.4154,17.413695168733177,21,16.414095168733176,21,15.330295168733176C21,15.330295168733176,21,8.669695168733176,21,8.669695168733176C21,7.585875168733176,20.4154,6.586325168733175,19.4708,6.054965168733176C19.4708,6.054965168733176,13.4708,2.6799681687331756,13.4708,2.6799681687331756C12.55754,2.166270168733176,11.44246,2.166271168733176,10.529219999999999,2.6799691687331757C10.529219999999999,2.6799691687331757,4.5292200000000005,6.054965168733176,4.5292200000000005,6.054965168733176C3.584586,6.586325168733175,3,7.585875168733176,3,8.669695168733176Z" fill-rule="evenodd" fill="#000000" fill-opacity="1"/></g><g><path d="M12,14.000000238418579C10.895430000000001,14.000000238418579,10,13.104570238418578,10,12.000000238418579C10,10.89543023841858,10.895430000000001,10.000000238418579,12,10.000000238418579C13.104569999999999,10.000000238418579,14,10.89543023841858,14,12.000000238418579C14,13.104570238418578,13.104569999999999,14.000000238418579,12,14.000000238418579ZM16,12.000000238418579C16,9.79086023841858,14.20914,8.000000238418579,12,8.000000238418579C9.79086,8.000000238418579,8,9.79086023841858,8,12.000000238418579C8,14.209140238418579,9.79086,16.00000023841858,12,16.00000023841858C14.20914,16.00000023841858,16,14.209140238418579,16,12.000000238418579Z" fill-rule="evenodd" fill="#000000" fill-opacity="1"/></g></g></g></svg>