<svg xmlns="http://www.w3.org/2000/svg" xmlns:xlink="http://www.w3.org/1999/xlink" fill="none" version="1.1" width="24" height="24" viewBox="0 0 24 24"><g><g style="opacity:0;"><path d="M24,0C24,0,0,0,0,0C0,0,0,24,0,24C0,24,24,24,24,24C24,24,24,0,24,0C24,0,24,0,24,0Z" fill="#FFFFFF" fill-opacity="1"/></g><g><path d="M17.1797078125,6.929983683319092C17.1797078125,6.929983683319092,17.8292078125,7.305033683319092,17.8292078125,7.305033683319092C17.8292078125,7.305033683319092,17.8309078125,7.302043683319091,17.8309078125,7.302043683319091C17.8309078125,7.302043683319091,17.1797078125,6.929983683319092,17.1797078125,6.929983683319092C17.1797078125,6.929983683319092,17.1797078125,6.929983683319092,17.1797078125,6.929983683319092ZM17.2996078125,6.719963683319092C17.2996078125,6.719963683319092,16.6535078125,6.338993683319092,16.6535078125,6.338993683319092C16.6535078125,6.338993683319092,16.6484078125,6.347893683319092,16.6484078125,6.347893683319092C16.6484078125,6.347893683319092,17.2996078125,6.719963683319092,17.2996078125,6.719963683319092C17.2996078125,6.719963683319092,17.2996078125,6.719963683319092,17.2996078125,6.719963683319092ZM10.2996578125,4.929983683319092C10.2996578125,4.929983683319092,9.6556278125,5.314373683319092,9.6556278125,5.314373683319092C9.6556278125,5.314373683319092,9.6584078125,5.3189536833190925,9.6584078125,5.3189536833190925C9.6584078125,5.3189536833190925,10.2996578125,4.929983683319092,10.2996578125,4.929983683319092C10.2996578125,4.929983683319092,10.2996578125,4.929983683319092,10.2996578125,4.929983683319092ZM6.7196678125,6.719963683319092C6.7196678125,6.719963683319092,7.3709378125,6.347863683319092,7.3709378125,6.347863683319092C7.3709378125,6.347863683319092,7.3657278125,6.339033683319092,7.3657278125,6.339033683319092C7.3657278125,6.339033683319092,6.7196678125,6.719963683319092,6.7196678125,6.719963683319092C6.7196678125,6.719963683319092,6.7196678125,6.719963683319092,6.7196678125,6.719963683319092ZM6.8396578125,6.929983683319092C6.8396578125,6.929983683319092,6.1884478125,7.302053683319092,6.1884478125,7.302053683319092C6.1884478125,7.302053683319092,6.1901678125,7.305033683319092,6.1901678125,7.305033683319092C6.1901678125,7.305033683319092,6.8396578125,6.929983683319092,6.8396578125,6.929983683319092C6.8396578125,6.929983683319092,6.8396578125,6.929983683319092,6.8396578125,6.929983683319092ZM5.1296678125,9.929983683319092C5.1296678125,9.929983683319092,5.111237812500001,10.679753683319092,5.111237812500001,10.679753683319092C5.1201278125,10.67997368331909,5.1290178125,10.680033683319092,5.1379178125,10.679943683319092C5.1379178125,10.679943683319092,5.1296678125,9.929983683319092,5.1296678125,9.929983683319092C5.1296678125,9.929983683319092,5.1296678125,9.929983683319092,5.1296678125,9.929983683319092ZM3.0496538125,11.589953683319091C3.0496538125,11.589953683319091,2.3144669125,11.441633683319091,2.3144669125,11.441633683319091C2.3130759125,11.448533683319091,2.3117819125,11.455443683319093,2.3105849125,11.462373683319091C2.3105849125,11.462373683319091,3.0496538125,11.589953683319091,3.0496538125,11.589953683319091C3.0496538125,11.589953683319091,3.0496538125,11.589953683319091,3.0496538125,11.589953683319091ZM5.0496578125,13.930013683319093C5.0496578125,13.930013683319093,5.0496578125,13.179913683319091,5.0496578125,13.179913683319091C5.0496578125,13.179913683319091,5.0387278124999995,13.180113683319092,5.0387278124999995,13.180113683319092C5.0387278124999995,13.180113683319092,5.0496578125,13.930013683319093,5.0496578125,13.930013683319093C5.0496578125,13.930013683319093,5.0496578125,13.930013683319093,5.0496578125,13.930013683319093ZM5.1696778125,13.930013683319093C5.1696778125,13.930013683319093,5.1779278125,13.180013683319093,5.1779278125,13.180013683319093C5.1779278125,13.180013683319093,5.1696778125,13.180013683319093,5.1696778125,13.180013683319093C5.1696778125,13.180013683319093,5.1696778125,13.930013683319093,5.1696778125,13.930013683319093C5.1696778125,13.930013683319093,5.1696778125,13.930013683319093,5.1696778125,13.930013683319093ZM6.8796678125,16.930013683319093C6.8796678125,16.930013683319093,7.5156378125,17.32751368331909,7.5156378125,17.32751368331909C7.5202778125,17.320113683319093,7.5247878125,17.312613683319093,7.5291678125,17.305013683319093C7.5291678125,17.305013683319093,6.8796678125,16.930013683319093,6.8796678125,16.930013683319093C6.8796678125,16.930013683319093,6.8796678125,16.930013683319093,6.8796678125,16.930013683319093ZM6.8296478125,17.01001368331909C6.8296478125,17.01001368331909,6.1936778125,16.61241368331909,6.1936778125,16.61241368331909C6.1877878125,16.621913683319093,6.1821078125,16.631413683319092,6.1766378125,16.64111368331909C6.1766378125,16.64111368331909,6.8296478125,17.01001368331909,6.8296478125,17.01001368331909C6.8296478125,17.01001368331909,6.8296478125,17.01001368331909,6.8296478125,17.01001368331909ZM10.2596778125,19.07001368331909C10.2596778125,19.07001368331909,10.9017978125,19.457513683319092,10.9017978125,19.457513683319092C10.9537978125,19.37131368331909,10.9879278125,19.27561368331909,11.0021478125,19.17601368331909C11.0021478125,19.17601368331909,10.2596778125,19.07001368331909,10.2596778125,19.07001368331909C10.2596778125,19.07001368331909,10.2596778125,19.07001368331909,10.2596778125,19.07001368331909ZM10.2796678125,18.930013683319093C10.2796678125,18.930013683319093,9.6384178125,18.541013683319093,9.6384178125,18.541013683319093C9.5859278125,18.627513683319094,9.5514978125,18.723813683319094,9.5371978125,18.82401368331909C9.5371978125,18.82401368331909,10.2796678125,18.930013683319093,10.2796678125,18.930013683319093C10.2796678125,18.930013683319093,10.2796678125,18.930013683319093,10.2796678125,18.930013683319093ZM13.6997078125,18.930013683319093C13.6997078125,18.930013683319093,14.3705078125,18.594713683319092,14.3705078125,18.594713683319092C14.3614078125,18.576413683319092,14.3515078125,18.55851368331909,14.3409078125,18.541013683319093C14.3409078125,18.541013683319093,13.6997078125,18.930013683319093,13.6997078125,18.930013683319093C13.6997078125,18.930013683319093,13.6997078125,18.930013683319093,13.6997078125,18.930013683319093ZM13.7696078125,19.07001368331909C13.7696078125,19.07001368331909,13.0988078125,19.405313683319093,13.0988078125,19.405313683319093C13.1074078125,19.422513683319092,13.1166078125,19.439413683319092,13.1266078125,19.455913683319093C13.1266078125,19.455913683319093,13.7696078125,19.07001368331909,13.7696078125,19.07001368331909C13.7696078125,19.07001368331909,13.7696078125,19.07001368331909,13.7696078125,19.07001368331909ZM16.489607812499997,19.770013683319092C16.489607812499997,19.770013683319092,16.8666078125,20.41851368331909,16.8666078125,20.41851368331909C16.8666078125,20.41851368331909,16.8772078125,20.41211368331909,16.8772078125,20.41211368331909C16.8772078125,20.41211368331909,16.489607812499997,19.770013683319092,16.489607812499997,19.770013683319092C16.489607812499997,19.770013683319092,16.489607812499997,19.770013683319092,16.489607812499997,19.770013683319092ZM17.1897078125,17.06001368331909C17.1897078125,17.06001368331909,16.5313078125,17.41911368331909,16.5313078125,17.41911368331909C16.5340078125,17.424213683319092,16.5368078125,17.42911368331909,16.5396078125,17.43411368331909C16.5396078125,17.43411368331909,17.1897078125,17.06001368331909,17.1897078125,17.06001368331909C17.1897078125,17.06001368331909,17.1897078125,17.06001368331909,17.1897078125,17.06001368331909ZM17.1297078125,16.950013683319092C17.1297078125,16.950013683319092,17.7881078125,16.59081368331909,17.7881078125,16.59081368331909C17.785207812499998,16.585513683319093,17.782207812499998,16.580213683319094,17.779207812499997,16.574913683319092C17.779207812499997,16.574913683319092,17.1297078125,16.950013683319092,17.1297078125,16.950013683319092C17.1297078125,16.950013683319092,17.1297078125,16.950013683319092,17.1297078125,16.950013683319092ZM18.8397078125,13.950013683319092C18.8397078125,13.950013683319092,18.8397078125,13.199913683319092,18.8397078125,13.199913683319092C18.8397078125,13.199913683319092,18.8314078125,13.200013683319092,18.8314078125,13.200013683319092C18.8314078125,13.200013683319092,18.8397078125,13.950013683319092,18.8397078125,13.950013683319092C18.8397078125,13.950013683319092,18.8397078125,13.950013683319092,18.8397078125,13.950013683319092ZM18.9596078125,13.950013683319092C18.9596078125,13.950013683319092,18.9706078125,13.200013683319092,18.9706078125,13.200013683319092C18.9706078125,13.200013683319092,18.9596078125,13.200013683319092,18.9596078125,13.200013683319092C18.9596078125,13.200013683319092,18.9596078125,13.950013683319092,18.9596078125,13.950013683319092C18.9596078125,13.950013683319092,18.9596078125,13.950013683319092,18.9596078125,13.950013683319092ZM20.9596078125,11.609973683319092C20.9596078125,11.609973683319092,21.6988078125,11.482373683319091,21.6988078125,11.482373683319091C21.6988078125,11.482373683319091,21.6962078125,11.468793683319092,21.6962078125,11.468793683319092C21.6962078125,11.468793683319092,20.9596078125,11.609973683319092,20.9596078125,11.609973683319092C20.9596078125,11.609973683319092,20.9596078125,11.609973683319092,20.9596078125,11.609973683319092ZM18.8979078125,9.180033683319092C18.6796078125,9.177633683319092,18.4658078125,9.11813368331909,18.2777078125,9.007463683319092C18.2777078125,9.007463683319092,17.517007812499997,10.300263683319091,17.517007812499997,10.300263683319091C17.9309078125,10.543793683319091,18.4013078125,10.674663683319093,18.8814078125,10.679943683319092C18.8814078125,10.679943683319092,18.8979078125,9.180033683319092,18.8979078125,9.180033683319092C18.8979078125,9.180033683319092,18.8979078125,9.180033683319092,18.8979078125,9.180033683319092ZM18.2777078125,9.007463683319092C18.0896078125,8.896783683319093,17.9338078125,8.738763683319092,17.8257078125,8.549123683319092C17.8257078125,8.549123683319092,16.522507812500002,9.29192368331909,16.522507812500002,9.29192368331909C16.760307812500002,9.709073683319092,17.1031078125,10.056733683319091,17.517007812499997,10.300263683319091C17.517007812499997,10.300263683319091,18.2777078125,9.007463683319092,18.2777078125,9.007463683319092C18.2777078125,9.007463683319092,18.2777078125,9.007463683319092,18.2777078125,9.007463683319092ZM17.8257078125,8.549123683319092C17.7176078125,8.35949368331909,17.6610078125,8.144843683319092,17.6616078125,7.9265936833190915C17.6616078125,7.9265936833190915,16.1616078125,7.9223936833190916,16.1616078125,7.9223936833190916C16.1603078125,8.40257368331909,16.284707812500002,8.874763683319092,16.522507812500002,9.29192368331909C16.522507812500002,9.29192368331909,17.8257078125,8.549123683319092,17.8257078125,8.549123683319092C17.8257078125,8.549123683319092,17.8257078125,8.549123683319092,17.8257078125,8.549123683319092ZM17.6616078125,7.9265936833190915C17.6623078125,7.708323683319092,17.7200078125,7.4940436833190915,17.8291078125,7.305033683319092C17.8291078125,7.305033683319092,16.530207812500002,6.554933683319092,16.530207812500002,6.554933683319092C16.2900078125,6.970773683319091,16.1630078125,7.442213683319092,16.1616078125,7.9223936833190916C16.1616078125,7.9223936833190916,17.6616078125,7.9265936833190915,17.6616078125,7.9265936833190915C17.6616078125,7.9265936833190915,17.6616078125,7.9265936833190915,17.6616078125,7.9265936833190915ZM17.8309078125,7.302043683319091C17.8309078125,7.302043683319091,17.9509078125,7.092023683319091,17.9509078125,7.092023683319091C17.9509078125,7.092023683319091,16.6484078125,6.347893683319092,16.6484078125,6.347893683319092C16.6484078125,6.347893683319092,16.5284078125,6.557923683319092,16.5284078125,6.557923683319092C16.5284078125,6.557923683319092,17.8309078125,7.302043683319091,17.8309078125,7.302043683319091C17.8309078125,7.302043683319091,17.8309078125,7.302043683319091,17.8309078125,7.302043683319091ZM17.9457078125,7.100893683319091C18.1292078125,6.789633683319092,18.2464078125,6.443783683319092,18.2898078125,6.085063683319092C18.2898078125,6.085063683319092,16.8007078125,5.904783683319092,16.8007078125,5.904783683319092C16.7821078125,6.058123683319092,16.7320078125,6.205973683319092,16.6536078125,6.339033683319092C16.6536078125,6.339033683319092,17.9457078125,7.100893683319091,17.9457078125,7.100893683319091C17.9457078125,7.100893683319091,17.9457078125,7.100893683319091,17.9457078125,7.100893683319091ZM18.2898078125,6.085063683319092C18.3332078125,5.726353683319092,18.3020078125,5.362543683319092,18.198107812499998,5.016463683319092C18.198107812499998,5.016463683319092,16.7615078125,5.447993683319092,16.7615078125,5.447993683319092C16.8059078125,5.5959136833190914,16.8193078125,5.751433683319092,16.8007078125,5.904783683319092C16.8007078125,5.904783683319092,18.2898078125,6.085063683319092,18.2898078125,6.085063683319092C18.2898078125,6.085063683319092,18.2898078125,6.085063683319092,18.2898078125,6.085063683319092ZM18.198107812499998,5.016463683319092C18.0941078125,4.670393683319092,17.9197078125,4.349583683319092,17.685807812500002,4.074181683319091C17.685807812500002,4.074181683319091,16.5425078125,5.045183683319092,16.5425078125,5.045183683319092C16.6425078125,5.162933683319092,16.7170078125,5.300073683319091,16.7615078125,5.447993683319092C16.7615078125,5.447993683319092,18.198107812499998,5.016463683319092,18.198107812499998,5.016463683319092C18.198107812499998,5.016463683319092,18.198107812499998,5.016463683319092,18.198107812499998,5.016463683319092ZM17.685807812500002,4.074181683319091C17.4519078125,3.7988246833190917,17.1636078125,3.574716683319092,16.8389078125,3.416074683319092C16.8389078125,3.416074683319092,16.1805078125,4.763843683319092,16.1805078125,4.763843683319092C16.3192078125,4.831613683319092,16.4424078125,4.927393683319092,16.5425078125,5.045183683319092C16.5425078125,5.045183683319092,17.685807812500002,4.074181683319091,17.685807812500002,4.074181683319091C17.685807812500002,4.074181683319091,17.685807812500002,4.074181683319091,17.685807812500002,4.074181683319091ZM16.8344078125,3.413906683319092C16.179607812500002,3.099385083319092,15.4309078125,3.041199083319092,14.7355078125,3.250584683319092C14.7355078125,3.250584683319092,15.1679078125,4.6868936833190915,15.1679078125,4.6868936833190915C15.5050078125,4.585423683319092,15.8677078125,4.613643683319092,16.1849078125,4.7660036833190915C16.1849078125,4.7660036833190915,16.8344078125,3.413906683319092,16.8344078125,3.413906683319092C16.8344078125,3.413906683319092,16.8344078125,3.413906683319092,16.8344078125,3.413906683319092ZM14.7355078125,3.250584683319092C14.0400078125,3.4599826833190916,13.4479078125,3.921888683319092,13.0756078125,4.545603683319092C13.0756078125,4.545603683319092,14.3637078125,5.314363683319092,14.3637078125,5.314363683319092C14.5440078125,5.012173683319092,14.8309078125,4.788363683319092,15.1679078125,4.6868936833190915C15.1679078125,4.6868936833190915,14.7355078125,3.250584683319092,14.7355078125,3.250584683319092C14.7355078125,3.250584683319092,14.7355078125,3.250584683319092,14.7355078125,3.250584683319092ZM13.0784078125,4.5410136833190915C12.9670078125,4.724673683319092,12.8101078125,4.876533683319092,12.6229078125,4.981953683319092C12.6229078125,4.981953683319092,13.3588078125,6.289033683319092,13.3588078125,6.289033683319092C13.7706078125,6.057173683319092,14.1158078125,5.723083683319092,14.3609078125,5.3189536833190925C14.3609078125,5.3189536833190925,13.0784078125,4.5410136833190915,13.0784078125,4.5410136833190915C13.0784078125,4.5410136833190915,13.0784078125,4.5410136833190915,13.0784078125,4.5410136833190915ZM12.6229078125,4.981953683319092C12.4356078125,5.0873736833190915,12.2244478125,5.142753683319092,12.0096778125,5.142753683319092C12.0096778125,5.142753683319092,12.0096778125,6.642753683319092,12.0096778125,6.642753683319092C12.4824078125,6.642753683319092,12.9470078125,6.520873683319092,13.3588078125,6.289033683319092C13.3588078125,6.289033683319092,12.6229078125,4.981953683319092,12.6229078125,4.981953683319092C12.6229078125,4.981953683319092,12.6229078125,4.981953683319092,12.6229078125,4.981953683319092ZM12.0096778125,5.142753683319092C11.7948878125,5.142753683319092,11.5836678125,5.0873736833190915,11.3964278125,4.981953683319092C11.3964278125,4.981953683319092,10.6605278125,6.289033683319092,10.6605278125,6.289033683319092C11.0723278125,6.520873683319092,11.5369878125,6.642753683319092,12.0096778125,6.642753683319092C12.0096778125,6.642753683319092,12.0096778125,5.142753683319092,12.0096778125,5.142753683319092C12.0096778125,5.142753683319092,12.0096778125,5.142753683319092,12.0096778125,5.142753683319092ZM11.3964278125,4.981953683319092C11.2091978125,4.876533683319092,11.0523078125,4.724673683319092,10.9409078125,4.5410136833190915C10.9409078125,4.5410136833190915,9.6584078125,5.3189536833190925,9.6584078125,5.3189536833190925C9.9035378125,5.723083683319092,10.248707812500001,6.057173683319092,10.6605278125,6.289033683319092C10.6605278125,6.289033683319092,11.3964278125,4.981953683319092,11.3964278125,4.981953683319092C11.3964278125,4.981953683319092,11.3964278125,4.981953683319092,11.3964278125,4.981953683319092ZM10.9436678125,4.545603683319092C10.5713978125,3.921888683319092,9.9793478125,3.4599826833190916,9.2838478125,3.250584683319092C9.2838478125,3.250584683319092,8.8514078125,4.6868936833190915,8.8514078125,4.6868936833190915C9.1884178125,4.788363683319092,9.4752778125,5.012173683319092,9.6556478125,5.314363683319092C9.6556478125,5.314363683319092,10.9436678125,4.545603683319092,10.9436678125,4.545603683319092C10.9436678125,4.545603683319092,10.9436678125,4.545603683319092,10.9436678125,4.545603683319092ZM9.2838478125,3.250584683319092C8.588387812499999,3.0411980833190917,7.8397178125,3.0993860833190916,7.1849378125,3.413906683319092C7.1849378125,3.413906683319092,7.8344178125,4.7660036833190915,7.8344178125,4.7660036833190915C8.1516078125,4.613643683319092,8.5143578125,4.585423683319092,8.8514078125,4.6868936833190915C8.8514078125,4.6868936833190915,9.2838478125,3.250584683319092,9.2838478125,3.250584683319092C9.2838478125,3.250584683319092,9.2838478125,3.250584683319092,9.2838478125,3.250584683319092ZM7.1804578125,3.416074683319092C6.8557678125,3.574700683319092,6.5674178125,3.798796683319092,6.3335278125,4.074181683319091C6.3335278125,4.074181683319091,7.4768378125,5.045183683319092,7.4768378125,5.045183683319092C7.5768478125,4.927423683319092,7.7001378125,4.8316236833190915,7.8388878125,4.763843683319092C7.8388878125,4.763843683319092,7.1804578125,3.416074683319092,7.1804578125,3.416074683319092C7.1804578125,3.416074683319092,7.1804578125,3.416074683319092,7.1804578125,3.416074683319092ZM6.3335278125,4.074181683319091C6.0996378125,4.349583683319092,5.9252178125,4.670393683319092,5.8212578125,5.016463683319092C5.8212578125,5.016463683319092,7.2578478125,5.447993683319092,7.2578478125,5.447993683319092C7.3022778125,5.300073683319091,7.3768378125,5.162933683319092,7.4768378125,5.045183683319092C7.4768378125,5.045183683319092,6.3335278125,4.074181683319091,6.3335278125,4.074181683319091C6.3335278125,4.074181683319091,6.3335278125,4.074181683319091,6.3335278125,4.074181683319091ZM5.8212578125,5.016463683319092C5.7173078125,5.362543683319092,5.686077812500001,5.726353683319092,5.7294978125,6.085063683319092C5.7294978125,6.085063683319092,7.2186278125,5.904783683319092,7.2186278125,5.904783683319092C7.2000578125,5.751433683319092,7.2134178125,5.5959136833190914,7.2578478125,5.447993683319092C7.2578478125,5.447993683319092,5.8212578125,5.016463683319092,5.8212578125,5.016463683319092C5.8212578125,5.016463683319092,5.8212578125,5.016463683319092,5.8212578125,5.016463683319092ZM5.7294978125,6.085063683319092C5.7729278125,6.443783683319092,5.8900878125,6.789633683319092,6.073607812500001,7.100893683319091C6.073607812500001,7.100893683319091,7.3657278125,6.339033683319092,7.3657278125,6.339033683319092C7.2872678125,6.205973683319092,7.2371878125,6.058123683319092,7.2186278125,5.904783683319092C7.2186278125,5.904783683319092,5.7294978125,6.085063683319092,5.7294978125,6.085063683319092C5.7294978125,6.085063683319092,5.7294978125,6.085063683319092,5.7294978125,6.085063683319092ZM6.0684578125,7.092023683319091C6.0684578125,7.092023683319091,6.188457812499999,7.302043683319091,6.188457812499999,7.302043683319091C6.188457812499999,7.302043683319091,7.4908678125,6.557923683319092,7.4908678125,6.557923683319092C7.4908678125,6.557923683319092,7.3708778125,6.347893683319092,7.3708778125,6.347893683319092C7.3708778125,6.347893683319092,6.0684578125,7.092023683319091,6.0684578125,7.092023683319091C6.0684578125,7.092023683319091,6.0684578125,7.092023683319091,6.0684578125,7.092023683319091ZM6.1901678125,7.305033683319092C6.2993178125,7.4940436833190915,6.3570578125,7.708323683319092,6.3576678125,7.9265936833190915C6.3576678125,7.9265936833190915,7.8576678125,7.9223936833190916,7.8576678125,7.9223936833190916C7.8563178125,7.442213683319092,7.7292778125,6.970773683319091,7.4891578125,6.554933683319092C7.4891578125,6.554933683319092,6.1901678125,7.305033683319092,6.1901678125,7.305033683319092C6.1901678125,7.305033683319092,6.1901678125,7.305033683319092,6.1901678125,7.305033683319092ZM6.3576678125,7.9265936833190915C6.3582778125,8.144883683319092,6.3017278125,8.359533683319093,6.1936678125,8.549123683319092C6.1936678125,8.549123683319092,7.4968278125,9.29192368331909,7.4968278125,9.29192368331909C7.7346378125,8.874723683319091,7.8590078125,8.402533683319092,7.8576678125,7.9223936833190916C7.8576678125,7.9223936833190916,6.3576678125,7.9265936833190915,6.3576678125,7.9265936833190915C6.3576678125,7.9265936833190915,6.3576678125,7.9265936833190915,6.3576678125,7.9265936833190915ZM6.1936678125,8.549123683319092C6.0855778125,8.738743683319091,5.9297178125,8.896773683319092,5.7415978125,9.007463683319092C5.7415978125,9.007463683319092,6.5022978125,10.300263683319091,6.5022978125,10.300263683319091C6.9161478125,10.056743683319091,7.2590378125,9.709103683319093,7.4968278125,9.29192368331909C7.4968278125,9.29192368331909,6.1936678125,8.549123683319092,6.1936678125,8.549123683319092C6.1936678125,8.549123683319092,6.1936678125,8.549123683319092,6.1936678125,8.549123683319092ZM5.7415978125,9.007463683319092C5.5535078124999995,9.11813368331909,5.3397078125,9.177633683319092,5.1214278125,9.180033683319092C5.1214278125,9.180033683319092,5.1379178125,10.679943683319092,5.1379178125,10.679943683319092C5.6180378125,10.674663683319093,6.0884278125,10.543793683319091,6.5022978125,10.300263683319091C6.5022978125,10.300263683319091,5.7415978125,9.007463683319092,5.7415978125,9.007463683319092C5.7415978125,9.007463683319092,5.7415978125,9.007463683319092,5.7415978125,9.007463683319092ZM5.1481078125,9.180213683319092C4.4852778125,9.163913683319091,3.8379278125000003,9.381703683319092,3.3197378125,9.795263683319092C3.3197378125,9.795263683319092,4.2553978125,10.967663683319092,4.2553978125,10.967663683319092C4.4979878125,10.774063683319092,4.8010078125,10.672133683319093,5.111237812500001,10.679753683319092C5.111237812500001,10.679753683319092,5.1481078125,9.180213683319092,5.1481078125,9.180213683319092C5.1481078125,9.180213683319092,5.1481078125,9.180213683319092,5.1481078125,9.180213683319092ZM3.3197378125,9.795263683319092C2.8015618125,10.208803683319092,2.4455958125,10.791673683319091,2.3144669125,11.441633683319091C2.3144669125,11.441633683319091,3.7848378125,11.738283683319091,3.7848378125,11.738283683319091C3.8462078125000003,11.434113683319092,4.0128078125,11.161273683319092,4.2553978125,10.967663683319092C4.2553978125,10.967663683319092,3.3197378125,9.795263683319092,3.3197378125,9.795263683319092C3.3197378125,9.795263683319092,3.3197378125,9.795263683319092,3.3197378125,9.795263683319092ZM2.3105849125,11.462373683319091C2.2418409125,11.860613683319091,2.2617209225,12.269113683319091,2.3687829125,12.658773683319092C2.3687829125,12.658773683319092,3.8151778125,12.261373683319091,3.8151778125,12.261373683319091C3.7665178125,12.084233683319091,3.7574778125,11.898533683319092,3.7887278125,11.717533683319092C3.7887278125,11.717533683319092,2.3105849125,11.462373683319091,2.3105849125,11.462373683319091C2.3105849125,11.462373683319091,2.3105849125,11.462373683319091,2.3105849125,11.462373683319091ZM2.3687829125,12.658773683319092C2.4758488124999998,13.048453683319092,2.6674998125,13.409813683319092,2.9300558125,13.716913683319092C2.9300558125,13.716913683319092,4.0703178125,12.742373683319093,4.0703178125,12.742373683319093C3.9509678125,12.602733683319093,3.8638478125,12.438483683319092,3.8151778125,12.261373683319091C3.8151778125,12.261373683319091,2.3687829125,12.658773683319092,2.3687829125,12.658773683319092C2.3687829125,12.658773683319092,2.3687829125,12.658773683319092,2.3687829125,12.658773683319092ZM2.9300558125,13.716913683319092C3.1926358125,14.024213683319092,3.5196678125,14.269713683319091,3.8878778125,14.436113683319093C3.8878778125,14.436113683319093,4.5056778125,13.069243683319092,4.5056778125,13.069243683319092C4.3382678125,12.993573683319092,4.1896378125,12.881983683319092,4.0703178125,12.742373683319093C4.0703178125,12.742373683319093,2.9300558125,13.716913683319092,2.9300558125,13.716913683319092C2.9300558125,13.716913683319092,2.9300558125,13.716913683319092,2.9300558125,13.716913683319092ZM3.8878778125,14.436113683319093C4.2561078125,14.602513683319092,4.6564978125,14.685813683319092,5.0605878125,14.679913683319091C5.0605878125,14.679913683319091,5.0387278124999995,13.180113683319092,5.0387278124999995,13.180113683319092C4.8550678125,13.182713683319092,4.6730778125,13.144913683319091,4.5056778125,13.069243683319092C4.5056778125,13.069243683319092,3.8878778125,14.436113683319093,3.8878778125,14.436113683319093C3.8878778125,14.436113683319093,3.8878778125,14.436113683319093,3.8878778125,14.436113683319093ZM5.0496578125,14.680013683319093C5.0496578125,14.680013683319093,5.1696778125,14.680013683319093,5.1696778125,14.680013683319093C5.1696778125,14.680013683319093,5.1696778125,13.180013683319093,5.1696778125,13.180013683319093C5.1696778125,13.180013683319093,5.0496578125,13.180013683319093,5.0496578125,13.180013683319093C5.0496578125,13.180013683319093,5.0496578125,14.680013683319093,5.0496578125,14.680013683319093C5.0496578125,14.680013683319093,5.0496578125,14.680013683319093,5.0496578125,14.680013683319093ZM5.1614378125,14.679913683319091C5.3797178125,14.682313683319093,5.5935178125,14.741813683319092,5.7816078125,14.852513683319092C5.7816078125,14.852513683319092,6.5423078125,13.559713683319092,6.5423078125,13.559713683319092C6.1284378125,13.316213683319091,5.6580478124999996,13.185313683319091,5.1779178125000005,13.180013683319093C5.1779178125000005,13.180013683319093,5.1614378125,14.679913683319091,5.1614378125,14.679913683319091C5.1614378125,14.679913683319091,5.1614378125,14.679913683319091,5.1614378125,14.679913683319091ZM5.7816078125,14.852513683319092C5.9696978125,14.963213683319092,6.1255478125,15.121213683319091,6.2336378125,15.310813683319092C6.2336378125,15.310813683319092,7.5368078125,14.568013683319093,7.5368078125,14.568013683319093C7.2990378125,14.150913683319091,6.9561878125,13.803213683319091,6.5423078125,13.559713683319092C6.5423078125,13.559713683319092,5.7816078125,14.852513683319092,5.7816078125,14.852513683319092C5.7816078125,14.852513683319092,5.7816078125,14.852513683319092,5.7816078125,14.852513683319092ZM6.2336378125,15.310813683319092C6.3417278125,15.500513683319092,6.3982878125,15.715113683319093,6.3976778125,15.933413683319092C6.3976778125,15.933413683319092,7.8976778125,15.937613683319093,7.8976778125,15.937613683319093C7.8990178125,15.457413683319091,7.7745878125,14.985213683319092,7.5368078125,14.568013683319093C7.5368078125,14.568013683319093,6.2336378125,15.310813683319092,6.2336378125,15.310813683319092C6.2336378125,15.310813683319092,6.2336378125,15.310813683319092,6.2336378125,15.310813683319092ZM6.3976778125,15.933413683319092C6.3970678125,16.15161368331909,6.3393178125,16.365913683319093,6.2301778125,16.554913683319093C6.2301778125,16.554913683319093,7.5291678125,17.305013683319093,7.5291678125,17.305013683319093C7.7692878125,16.889213683319092,7.8963278125,16.417713683319093,7.8976778125,15.937613683319093C7.8976778125,15.937613683319093,6.3976778125,15.933413683319092,6.3976778125,15.933413683319092C6.3976778125,15.933413683319092,6.3976778125,15.933413683319092,6.3976778125,15.933413683319092ZM6.243697812500001,16.532413683319092C6.243697812500001,16.532413683319092,6.1936778125,16.61241368331909,6.1936778125,16.61241368331909C6.1936778125,16.61241368331909,7.4656278125,17.40751368331909,7.4656278125,17.40751368331909C7.4656278125,17.40751368331909,7.5156378125,17.32751368331909,7.5156378125,17.32751368331909C7.5156378125,17.32751368331909,6.243697812500001,16.532413683319092,6.243697812500001,16.532413683319092C6.243697812500001,16.532413683319092,6.243697812500001,16.532413683319092,6.243697812500001,16.532413683319092ZM6.1766378125,16.64111368331909C5.8190178125,17.27421368331909,5.7217078125,18.021513683319093,5.905237812499999,18.725113683319094C5.905237812499999,18.725113683319094,7.3566678125,18.346413683319092,7.3566678125,18.346413683319092C7.2714478125,18.019813683319093,7.3166378125,17.67281368331909,7.4826678125,17.37891368331909C7.4826678125,17.37891368331909,6.1766378125,16.64111368331909,6.1766378125,16.64111368331909C6.1766378125,16.64111368331909,6.1766378125,16.64111368331909,6.1766378125,16.64111368331909ZM5.905237812499999,18.725113683319094C6.0887678125,19.428613683319092,6.5387478125,20.03321368331909,7.1600578125,20.41091368331909C7.1600578125,20.41091368331909,7.9392478125,19.12911368331909,7.9392478125,19.12911368331909C7.6508078125,18.95381368331909,7.4418778125,18.67311368331909,7.3566678125,18.346413683319092C7.3566678125,18.346413683319092,5.905237812499999,18.725113683319094,5.905237812499999,18.725113683319094C5.905237812499999,18.725113683319094,5.905237812499999,18.725113683319094,5.905237812499999,18.725113683319094ZM7.1755278125,20.42001368331909C7.7991278125,20.778913683319093,8.5385278125,20.87911368331909,9.2350878125,20.69921368331909C9.2350878125,20.69921368331909,8.8599478125,19.246813683319093,8.8599478125,19.246813683319093C8.5432678125,19.32861368331909,8.2071778125,19.28311368331909,7.9237778125,19.120013683319094C7.9237778125,19.120013683319094,7.1755278125,20.42001368331909,7.1755278125,20.42001368331909C7.1755278125,20.42001368331909,7.1755278125,20.42001368331909,7.1755278125,20.42001368331909ZM9.2350878125,20.69921368331909C9.9316578125,20.51921368331909,10.5300378125,20.073513683319092,10.9017978125,19.457513683319092C10.9017978125,19.457513683319092,9.6175478125,18.682513683319094,9.6175478125,18.682513683319094C9.4485878125,18.96241368331909,9.1766178125,19.165013683319092,8.8599478125,19.246813683319093C8.8599478125,19.246813683319093,9.2350878125,20.69921368331909,9.2350878125,20.69921368331909C9.2350878125,20.69921368331909,9.2350878125,20.69921368331909,9.2350878125,20.69921368331909ZM11.0021478125,19.17601368331909C11.0021478125,19.17601368331909,11.0221378125,19.03601368331909,11.0221378125,19.03601368331909C11.0221378125,19.03601368331909,9.5371978125,18.82401368331909,9.5371978125,18.82401368331909C9.5371978125,18.82401368331909,9.5172078125,18.96401368331909,9.5172078125,18.96401368331909C9.5172078125,18.96401368331909,11.0021478125,19.17601368331909,11.0021478125,19.17601368331909C11.0021478125,19.17601368331909,11.0021478125,19.17601368331909,11.0021478125,19.17601368331909ZM10.9209178125,19.318913683319092C11.0323378125,19.13531368331909,11.1891978125,18.983413683319093,11.3764078125,18.87801368331909C11.3764078125,18.87801368331909,10.6405078125,17.57091368331909,10.6405078125,17.57091368331909C10.2286578125,17.802813683319094,9.8835378125,18.136913683319094,9.6384178125,18.541013683319093C9.6384178125,18.541013683319093,10.9209178125,19.318913683319092,10.9209178125,19.318913683319092C10.9209178125,19.318913683319092,10.9209178125,19.318913683319092,10.9209178125,19.318913683319092ZM11.3764078125,18.87801368331909C11.5636478125,18.772613683319094,11.7748678125,18.71721368331909,11.9896578125,18.71721368331909C11.9896578125,18.71721368331909,11.9896578125,17.21721368331909,11.9896578125,17.21721368331909C11.5169678125,17.21721368331909,11.0523078125,17.33911368331909,10.6405078125,17.57091368331909C10.6405078125,17.57091368331909,11.3764078125,18.87801368331909,11.3764078125,18.87801368331909C11.3764078125,18.87801368331909,11.3764078125,18.87801368331909,11.3764078125,18.87801368331909ZM11.9896578125,18.71721368331909C12.2044378125,18.71721368331909,12.4157078125,18.772613683319094,12.6029078125,18.87801368331909C12.6029078125,18.87801368331909,13.3388078125,17.57091368331909,13.3388078125,17.57091368331909C12.9270078125,17.33911368331909,12.4623078125,17.21721368331909,11.9896578125,17.21721368331909C11.9896578125,17.21721368331909,11.9896578125,18.71721368331909,11.9896578125,18.71721368331909C11.9896578125,18.71721368331909,11.9896578125,18.71721368331909,11.9896578125,18.71721368331909ZM12.6029078125,18.87801368331909C12.7901078125,18.983413683319093,12.9470078125,19.13531368331909,13.0584078125,19.318913683319092C13.0584078125,19.318913683319092,14.3409078125,18.541013683319093,14.3409078125,18.541013683319093C14.0958078125,18.136913683319094,13.7506078125,17.802813683319094,13.3388078125,17.57091368331909C13.3388078125,17.57091368331909,12.6029078125,18.87801368331909,12.6029078125,18.87801368331909C12.6029078125,18.87801368331909,12.6029078125,18.87801368331909,12.6029078125,18.87801368331909ZM13.0288078125,19.265313683319093C13.0288078125,19.265313683319093,13.0988078125,19.405313683319093,13.0988078125,19.405313683319093C13.0988078125,19.405313683319093,14.4405078125,18.734713683319093,14.4405078125,18.734713683319093C14.4405078125,18.734713683319093,14.3705078125,18.594713683319092,14.3705078125,18.594713683319092C14.3705078125,18.594713683319092,13.0288078125,19.265313683319093,13.0288078125,19.265313683319093C13.0288078125,19.265313683319093,13.0288078125,19.265313683319093,13.0288078125,19.265313683319093ZM13.1266078125,19.455913683319093C13.4984078125,20.07561368331909,14.0993078125,20.52401368331909,14.7992078125,20.704113683319093C14.7992078125,20.704113683319093,15.1730078125,19.251413683319093,15.1730078125,19.251413683319093C14.8549078125,19.169613683319092,14.5818078125,18.96571368331909,14.4127078125,18.68411368331909C14.4127078125,18.68411368331909,13.1266078125,19.455913683319093,13.1266078125,19.455913683319093C13.1266078125,19.455913683319093,13.1266078125,19.455913683319093,13.1266078125,19.455913683319093ZM14.7992078125,20.704113683319093C15.4991078125,20.884213683319093,16.2417078125,20.78161368331909,16.8666078125,20.41841368331909C16.8666078125,20.41841368331909,16.1127078125,19.12161368331909,16.1127078125,19.12161368331909C15.8288078125,19.286713683319093,15.4912078125,19.33331368331909,15.1730078125,19.251413683319093C15.1730078125,19.251413683319093,14.7992078125,20.704113683319093,14.7992078125,20.704113683319093C14.7992078125,20.704113683319093,14.7992078125,20.704113683319093,14.7992078125,20.704113683319093ZM16.8772078125,20.41211368331909C17.4932078125,20.04041368331909,17.9389078125,19.442013683319093,18.118907812499998,18.745413683319093C18.118907812499998,18.745413683319093,16.6665078125,18.37031368331909,16.6665078125,18.37031368331909C16.5847078125,18.68691368331909,16.3821078125,18.95891368331909,16.1021078125,19.127913683319093C16.1021078125,19.127913683319093,16.8772078125,20.41211368331909,16.8772078125,20.41211368331909C16.8772078125,20.41211368331909,16.8772078125,20.41211368331909,16.8772078125,20.41211368331909ZM18.118907812499998,18.745413683319093C18.2988078125,18.04881368331909,18.1986078125,17.309413683319093,17.839707812500002,16.685913683319093C17.839707812500002,16.685913683319093,16.5396078125,17.43411368331909,16.5396078125,17.43411368331909C16.702807812499998,17.71751368331909,16.748307812500002,18.053613683319092,16.6665078125,18.37031368331909C16.6665078125,18.37031368331909,18.118907812499998,18.745413683319093,18.118907812499998,18.745413683319093C18.118907812499998,18.745413683319093,18.118907812499998,18.745413683319093,18.118907812499998,18.745413683319093ZM17.8481078125,16.70081368331909C17.8481078125,16.70081368331909,17.7881078125,16.59081368331909,17.7881078125,16.59081368331909C17.7881078125,16.59081368331909,16.4713078125,17.309213683319093,16.4713078125,17.309213683319093C16.4713078125,17.309213683319093,16.5313078125,17.41911368331909,16.5313078125,17.41911368331909C16.5313078125,17.41911368331909,17.8481078125,16.70081368331909,17.8481078125,16.70081368331909C17.8481078125,16.70081368331909,17.8481078125,16.70081368331909,17.8481078125,16.70081368331909ZM17.779207812499997,16.574913683319092C17.6700078125,16.386013683319092,17.6123078125,16.171613683319094,17.6117078125,15.953313683319092C17.6117078125,15.953313683319092,16.1117078125,15.957513683319092,16.1117078125,15.957513683319092C16.1130078125,16.437713683319092,16.2400078125,16.90921368331909,16.480207812499998,17.325013683319092C16.480207812499998,17.325013683319092,17.779207812499997,16.574913683319092,17.779207812499997,16.574913683319092C17.779207812499997,16.574913683319092,17.779207812499997,16.574913683319092,17.779207812499997,16.574913683319092ZM17.6117078125,15.953313683319092C17.6110078125,15.735013683319092,17.667607812500002,15.520513683319091,17.775707812500002,15.330913683319093C17.775707812500002,15.330913683319093,16.472507812499998,14.588013683319092,16.472507812499998,14.588013683319092C16.234707812499998,15.005213683319091,16.1103078125,15.477413683319092,16.1117078125,15.957513683319092C16.1117078125,15.957513683319092,17.6117078125,15.953313683319092,17.6117078125,15.953313683319092C17.6117078125,15.953313683319092,17.6117078125,15.953313683319092,17.6117078125,15.953313683319092ZM17.775707812500002,15.330913683319093C17.8837078125,15.141213683319092,18.0396078125,14.983213683319091,18.2277078125,14.872513683319092C18.2277078125,14.872513683319092,17.4670078125,13.579713683319092,17.4670078125,13.579713683319092C17.0532078125,13.823213683319091,16.710307812499998,14.170913683319093,16.472507812499998,14.588013683319092C16.472507812499998,14.588013683319092,17.775707812500002,15.330913683319093,17.775707812500002,15.330913683319093C17.775707812500002,15.330913683319093,17.775707812500002,15.330913683319093,17.775707812500002,15.330913683319093ZM18.2277078125,14.872513683319092C18.4158078125,14.761813683319092,18.6296078125,14.702313683319092,18.8479078125,14.699913683319092C18.8479078125,14.699913683319092,18.8314078125,13.200013683319092,18.8314078125,13.200013683319092C18.3513078125,13.205313683319092,17.8809078125,13.336213683319091,17.4670078125,13.579713683319092C17.4670078125,13.579713683319092,18.2277078125,14.872513683319092,18.2277078125,14.872513683319092C18.2277078125,14.872513683319092,18.2277078125,14.872513683319092,18.2277078125,14.872513683319092ZM18.8397078125,14.700013683319092C18.8397078125,14.700013683319092,18.9596078125,14.700013683319092,18.9596078125,14.700013683319092C18.9596078125,14.700013683319092,18.9596078125,13.200013683319092,18.9596078125,13.200013683319092C18.9596078125,13.200013683319092,18.8397078125,13.200013683319092,18.8397078125,13.200013683319092C18.8397078125,13.200013683319092,18.8397078125,14.700013683319092,18.8397078125,14.700013683319092C18.8397078125,14.700013683319092,18.8397078125,14.700013683319092,18.8397078125,14.700013683319092ZM18.9487078125,14.699913683319092C19.3528078125,14.705813683319091,19.7532078125,14.622613683319091,20.1215078125,14.456113683319092C20.1215078125,14.456113683319092,19.5037078125,13.089263683319091,19.5037078125,13.089263683319091C19.3363078125,13.164913683319092,19.1542078125,13.202813683319091,18.9706078125,13.200113683319092C18.9706078125,13.200113683319092,18.9487078125,14.699913683319092,18.9487078125,14.699913683319092C18.9487078125,14.699913683319092,18.9487078125,14.699913683319092,18.9487078125,14.699913683319092ZM20.1215078125,14.456113683319092C20.4897078125,14.289713683319091,20.8168078125,14.044113683319091,21.0793078125,13.736913683319091C21.0793078125,13.736913683319091,19.9390078125,12.762333683319092,19.9390078125,12.762333683319092C19.8196078125,12.902003683319093,19.6710078125,13.013633683319092,19.5037078125,13.089263683319091C19.5037078125,13.089263683319091,20.1215078125,14.456113683319092,20.1215078125,14.456113683319092C20.1215078125,14.456113683319092,20.1215078125,14.456113683319092,20.1215078125,14.456113683319092ZM21.0793078125,13.736913683319091C21.3418078125,13.429713683319092,21.5335078125,13.068473683319091,21.6405078125,12.678793683319093C21.6405078125,12.678793683319093,20.1941078125,12.281393683319092,20.1941078125,12.281393683319092C20.1455078125,12.458503683319092,20.0584078125,12.622693683319092,19.9390078125,12.762333683319092C19.9390078125,12.762333683319092,21.0793078125,13.736913683319091,21.0793078125,13.736913683319091C21.0793078125,13.736913683319091,21.0793078125,13.736913683319091,21.0793078125,13.736913683319091ZM21.6405078125,12.678793683319093C21.7476078125,12.289133683319092,21.7675078125,11.880633683319092,21.6987078125,11.482393683319092C21.6987078125,11.482393683319092,20.2206078125,11.737553683319092,20.2206078125,11.737553683319092C20.2518078125,11.918553683319091,20.2428078125,12.104253683319092,20.1941078125,12.281393683319092C20.1941078125,12.281393683319092,21.6405078125,12.678793683319093,21.6405078125,12.678793683319093C21.6405078125,12.678793683319093,21.6405078125,12.678793683319093,21.6405078125,12.678793683319093ZM21.6962078125,11.468793683319092C21.5712078125,10.816203683319092,21.2197078125,10.228763683319091,20.7037078125,9.81004368331909C20.7037078125,9.81004368331909,19.7585078125,10.97473368331909,19.7585078125,10.97473368331909C20.0000078125,11.170733683319092,20.1645078125,11.445703683319092,20.2231078125,11.751163683319092C20.2231078125,11.751163683319092,21.6962078125,11.468793683319092,21.6962078125,11.468793683319092C21.6962078125,11.468793683319092,21.6962078125,11.468793683319092,21.6962078125,11.468793683319092ZM20.7037078125,9.81004368331909C20.1878078125,9.391323683319092,19.5406078125,9.168223683319091,18.8762078125,9.180103683319093C18.8762078125,9.180103683319093,18.9031078125,10.679863683319091,18.9031078125,10.679863683319091C19.2140078125,10.674303683319092,19.5170078125,10.778733683319093,19.7585078125,10.97473368331909C19.7585078125,10.97473368331909,20.7037078125,9.81004368331909,20.7037078125,9.81004368331909C20.7037078125,9.81004368331909,20.7037078125,9.81004368331909,20.7037078125,9.81004368331909Z" fill="#000000" fill-opacity="1"/></g><g><path d="M13.75,11.969970703125C13.75,12.936470703125,12.9665,13.719970703125,12,13.719970703125C12,13.719970703125,12,15.219970703125,12,15.219970703125C13.79493,15.219970703125,15.25,13.764900703125,15.25,11.969970703125C15.25,11.969970703125,13.75,11.969970703125,13.75,11.969970703125C13.75,11.969970703125,13.75,11.969970703125,13.75,11.969970703125ZM12,13.719970703125C11.0335,13.719970703125,10.25,12.936470703125,10.25,11.969970703125C10.25,11.969970703125,8.75,11.969970703125,8.75,11.969970703125C8.75,13.764900703125,10.20508,15.219970703125,12,15.219970703125C12,15.219970703125,12,13.719970703125,12,13.719970703125C12,13.719970703125,12,13.719970703125,12,13.719970703125ZM10.25,11.969970703125C10.25,11.003470703125,11.0335,10.219970703125,12,10.219970703125C12,10.219970703125,12,8.719970703125,12,8.719970703125C10.20508,8.719970703125,8.75,10.175050703125,8.75,11.969970703125C8.75,11.969970703125,10.25,11.969970703125,10.25,11.969970703125C10.25,11.969970703125,10.25,11.969970703125,10.25,11.969970703125ZM12,10.219970703125C12.9665,10.219970703125,13.75,11.003470703125,13.75,11.969970703125C13.75,11.969970703125,15.25,11.969970703125,15.25,11.969970703125C15.25,10.175050703125,13.79493,8.719970703125,12,8.719970703125C12,8.719970703125,12,10.219970703125,12,10.219970703125C12,10.219970703125,12,10.219970703125,12,10.219970703125Z" fill="#000000" fill-opacity="1"/></g></g></svg>