<svg xmlns="http://www.w3.org/2000/svg" xmlns:xlink="http://www.w3.org/1999/xlink" fill="none" version="1.1" width="24" height="24" viewBox="0 0 24 24"><defs><clipPath id="master_svg0_0_952"><rect x="0" y="0" width="24" height="24" rx="0"/></clipPath></defs><g clip-path="url(#master_svg0_0_952)"><g><path d="M12.453733720397949,2.9844251528549197C12.453733720397949,2.9844251528549197,13.36183372039795,2.5655781528549193,13.36183372039795,2.5655781528549193C13.36183372039795,2.5655781528549193,13.36183372039795,2.565577152854919,13.36183372039795,2.565577152854919C13.36183372039795,2.565577152854919,12.453733720397949,2.9844251528549197,12.453733720397949,2.9844251528549197C12.453733720397949,2.9844251528549197,12.453733720397949,2.9844251528549197,12.453733720397949,2.9844251528549197ZM14.986033720397948,8.47433515285492C14.986033720397948,8.47433515285492,14.077933720397949,8.89317515285492,14.077933720397949,8.89317515285492C14.077933720397949,8.89317515285492,14.077933720397949,8.893185152854919,14.077933720397949,8.893185152854919C14.077933720397949,8.893185152854919,14.986033720397948,8.47433515285492,14.986033720397948,8.47433515285492C14.986033720397948,8.47433515285492,14.986033720397948,8.47433515285492,14.986033720397948,8.47433515285492ZM15.38113372039795,8.761435152854919C15.38113372039795,8.761435152854919,15.498933720397948,7.768385152854919,15.498933720397948,7.768385152854919C15.498933720397948,7.768385152854919,15.498933720397948,7.768385152854919,15.498933720397948,7.768385152854919C15.498933720397948,7.768385152854919,15.38113372039795,8.761435152854919,15.38113372039795,8.761435152854919C15.38113372039795,8.761435152854919,15.38113372039795,8.761435152854919,15.38113372039795,8.761435152854919ZM21.38493372039795,9.473275152854919C21.38493372039795,9.473275152854919,21.50263372039795,8.48022515285492,21.50263372039795,8.48022515285492C21.50263372039795,8.48022515285492,21.50263372039795,8.48022515285492,21.50263372039795,8.48022515285492C21.50263372039795,8.48022515285492,21.38493372039795,9.473275152854919,21.38493372039795,9.473275152854919C21.38493372039795,9.473275152854919,21.38493372039795,9.473275152854919,21.38493372039795,9.473275152854919ZM21.66553372039795,10.336885152854919C21.66553372039795,10.336885152854919,22.344433720397948,11.071065152854919,22.344433720397948,11.071065152854919C22.344433720397948,11.071065152854919,22.344433720397948,11.071065152854919,22.344433720397948,11.071065152854919C22.344433720397948,11.071065152854919,21.66553372039795,10.336885152854919,21.66553372039795,10.336885152854919C21.66553372039795,10.336885152854919,21.66553372039795,10.336885152854919,21.66553372039795,10.336885152854919ZM17.22683372039795,14.44164515285492C17.22683372039795,14.44164515285492,17.90573372039795,15.175845152854919,17.90573372039795,15.175845152854919C17.90573372039795,15.175845152854919,17.90573372039795,15.175845152854919,17.90573372039795,15.175845152854919C17.90573372039795,15.175845152854919,17.22683372039795,14.44164515285492,17.22683372039795,14.44164515285492C17.22683372039795,14.44164515285492,17.22683372039795,14.44164515285492,17.22683372039795,14.44164515285492ZM17.07583372039795,14.90624515285492C17.07583372039795,14.90624515285492,18.05663372039795,14.71134515285492,18.05663372039795,14.71134515285492C18.05663372039795,14.71134515285492,18.05663372039795,14.71134515285492,18.05663372039795,14.71134515285492C18.05663372039795,14.71134515285492,17.07583372039795,14.90624515285492,17.07583372039795,14.90624515285492C17.07583372039795,14.90624515285492,17.07583372039795,14.90624515285492,17.07583372039795,14.90624515285492ZM18.25413372039795,20.83604515285492C18.25413372039795,20.83604515285492,17.27333372039795,21.03094515285492,17.27333372039795,21.03094515285492C17.27333372039795,21.03094515285492,17.27333372039795,21.03094515285492,17.27333372039795,21.03094515285492C17.27333372039795,21.03094515285492,18.25413372039795,20.83604515285492,18.25413372039795,20.83604515285492C18.25413372039795,20.83604515285492,18.25413372039795,20.83604515285492,18.25413372039795,20.83604515285492ZM17.51943372039795,21.369845152854918C17.51943372039795,21.369845152854918,17.03103372039795,22.24244515285492,17.03103372039795,22.24244515285492C17.03103372039795,22.24244515285492,17.03103372039795,22.24244515285492,17.03103372039795,22.24244515285492C17.03103372039795,22.24244515285492,17.51943372039795,21.369845152854918,17.51943372039795,21.369845152854918C17.51943372039795,21.369845152854918,17.51943372039795,21.369845152854918,17.51943372039795,21.369845152854918ZM12.24393372039795,18.41674515285492C12.24393372039795,18.41674515285492,11.755533720397949,19.28934515285492,11.755533720397949,19.28934515285492C11.755533720397949,19.28934515285492,11.755533720397949,19.28934515285492,11.755533720397949,19.28934515285492C11.755533720397949,19.28934515285492,12.24393372039795,18.41674515285492,12.24393372039795,18.41674515285492C12.24393372039795,18.41674515285492,12.24393372039795,18.41674515285492,12.24393372039795,18.41674515285492ZM11.755533720397949,18.41674515285492C11.755533720397949,18.41674515285492,12.24393372039795,19.28934515285492,12.24393372039795,19.28934515285492C12.24393372039795,19.28934515285492,12.24393372039795,19.28934515285492,12.24393372039795,19.28934515285492C12.24393372039795,19.28934515285492,11.755533720397949,18.41674515285492,11.755533720397949,18.41674515285492C11.755533720397949,18.41674515285492,11.755533720397949,18.41674515285492,11.755533720397949,18.41674515285492ZM6.480013720397949,21.369845152854918C6.480013720397949,21.369845152854918,6.9684537203979495,22.24244515285492,6.9684537203979495,22.24244515285492C6.9684537203979495,22.24244515285492,6.9684537203979495,22.24244515285492,6.9684537203979495,22.24244515285492C6.9684537203979495,22.24244515285492,6.480013720397949,21.369845152854918,6.480013720397949,21.369845152854918C6.480013720397949,21.369845152854918,6.480013720397949,21.369845152854918,6.480013720397949,21.369845152854918ZM5.745373720397949,20.83604515285492C5.745373720397949,20.83604515285492,6.726203720397949,21.03094515285492,6.726203720397949,21.03094515285492C6.726203720397949,21.03094515285492,6.726203720397949,21.03094515285492,6.726203720397949,21.03094515285492C6.726203720397949,21.03094515285492,5.745373720397949,20.83604515285492,5.745373720397949,20.83604515285492C5.745373720397949,20.83604515285492,5.745373720397949,20.83604515285492,5.745373720397949,20.83604515285492ZM6.923633720397949,14.90624515285492C6.923633720397949,14.90624515285492,7.9044537203979495,15.101145152854919,7.9044537203979495,15.101145152854919C7.9044537203979495,15.101145152854919,7.9044537203979495,15.101145152854919,7.9044537203979495,15.101145152854919C7.9044537203979495,15.101145152854919,6.923633720397949,14.90624515285492,6.923633720397949,14.90624515285492C6.923633720397949,14.90624515285492,6.923633720397949,14.90624515285492,6.923633720397949,14.90624515285492ZM6.77269372039795,14.44164515285492C6.77269372039795,14.44164515285492,7.451643720397949,13.70744515285492,7.451643720397949,13.70744515285492C7.451643720397949,13.70744515285492,7.451643720397949,13.70744515285492,7.451643720397949,13.70744515285492C7.451643720397949,13.70744515285492,6.77269372039795,14.44164515285492,6.77269372039795,14.44164515285492C6.77269372039795,14.44164515285492,6.77269372039795,14.44164515285492,6.77269372039795,14.44164515285492ZM2.333983720397949,10.336885152854919C2.333983720397949,10.336885152854919,1.6550327203979491,11.071065152854919,1.6550327203979491,11.071065152854919C1.6550327203979491,11.071065152854919,1.6550327203979491,11.071065152854919,1.6550327203979491,11.071065152854919C1.6550327203979491,11.071065152854919,2.333983720397949,10.336885152854919,2.333983720397949,10.336885152854919C2.333983720397949,10.336885152854919,2.333983720397949,10.336885152854919,2.333983720397949,10.336885152854919ZM2.6145937203979495,9.473275152854919C2.6145937203979495,9.473275152854919,2.4968437203979494,8.48022515285492,2.4968437203979494,8.48022515285492C2.4968437203979494,8.48022515285492,2.4968437203979494,8.48022515285492,2.4968437203979494,8.48022515285492C2.4968437203979494,8.48022515285492,2.6145937203979495,9.473275152854919,2.6145937203979495,9.473275152854919C2.6145937203979495,9.473275152854919,2.6145937203979495,9.473275152854919,2.6145937203979495,9.473275152854919ZM8.61831372039795,8.761435152854919C8.61831372039795,8.761435152854919,8.500573720397949,7.768385152854919,8.500573720397949,7.768385152854919C8.500573720397949,7.768385152854919,8.500573720397949,7.768385152854919,8.500573720397949,7.768385152854919C8.500573720397949,7.768385152854919,8.61831372039795,8.761435152854919,8.61831372039795,8.761435152854919C8.61831372039795,8.761435152854919,8.61831372039795,8.761435152854919,8.61831372039795,8.761435152854919ZM9.01347372039795,8.47433515285492C9.01347372039795,8.47433515285492,8.105413720397948,8.05548515285492,8.105413720397948,8.05548515285492C8.105413720397948,8.05548515285492,8.105413720397948,8.05548515285492,8.105413720397948,8.05548515285492C8.105413720397948,8.05548515285492,9.01347372039795,8.47433515285492,9.01347372039795,8.47433515285492C9.01347372039795,8.47433515285492,9.01347372039795,8.47433515285492,9.01347372039795,8.47433515285492ZM11.54573372039795,2.9844251528549197C11.54573372039795,2.9844251528549197,10.63766372039795,2.565577152854919,10.63766372039795,2.565577152854919C10.63766372039795,2.565577152854919,10.63766372039795,2.5655781528549193,10.63766372039795,2.5655781528549193C10.63766372039795,2.5655781528549193,11.54573372039795,2.9844251528549197,11.54573372039795,2.9844251528549197C11.54573372039795,2.9844251528549197,11.54573372039795,2.9844251528549197,11.54573372039795,2.9844251528549197ZM11.54573372039795,3.4032751528549197C11.54573372039795,3.4032751528549197,14.077933720397949,8.89317515285492,14.077933720397949,8.89317515285492C14.077933720397949,8.89317515285492,15.89403372039795,8.05548515285492,15.89403372039795,8.05548515285492C15.89403372039795,8.05548515285492,13.36183372039795,2.5655781528549193,13.36183372039795,2.5655781528549193C13.36183372039795,2.5655781528549193,11.54573372039795,3.4032751528549197,11.54573372039795,3.4032751528549197C11.54573372039795,3.4032751528549197,11.54573372039795,3.4032751528549197,11.54573372039795,3.4032751528549197ZM15.263433720397948,9.75447515285492C15.263433720397948,9.75447515285492,21.26713372039795,10.46631515285492,21.26713372039795,10.46631515285492C21.26713372039795,10.46631515285492,21.50263372039795,8.48022515285492,21.50263372039795,8.48022515285492C21.50263372039795,8.48022515285492,15.498933720397948,7.768385152854919,15.498933720397948,7.768385152854919C15.498933720397948,7.768385152854919,15.263433720397948,9.75447515285492,15.263433720397948,9.75447515285492C15.263433720397948,9.75447515285492,15.263433720397948,9.75447515285492,15.263433720397948,9.75447515285492ZM20.98653372039795,9.60270515285492C20.98653372039795,9.60270515285492,16.54783372039795,13.70744515285492,16.54783372039795,13.70744515285492C16.54783372039795,13.70744515285492,17.90573372039795,15.175845152854919,17.90573372039795,15.175845152854919C17.90573372039795,15.175845152854919,22.344433720397948,11.071065152854919,22.344433720397948,11.071065152854919C22.344433720397948,11.071065152854919,20.98653372039795,9.60270515285492,20.98653372039795,9.60270515285492C20.98653372039795,9.60270515285492,20.98653372039795,9.60270515285492,20.98653372039795,9.60270515285492ZM16.09503372039795,15.101145152854919C16.09503372039795,15.101145152854919,17.27333372039795,21.03094515285492,17.27333372039795,21.03094515285492C17.27333372039795,21.03094515285492,19.23493372039795,20.641145152854918,19.23493372039795,20.641145152854918C19.23493372039795,20.641145152854918,18.05663372039795,14.71134515285492,18.05663372039795,14.71134515285492C18.05663372039795,14.71134515285492,16.09503372039795,15.101145152854919,16.09503372039795,15.101145152854919C16.09503372039795,15.101145152854919,16.09503372039795,15.101145152854919,16.09503372039795,15.101145152854919ZM18.00793372039795,20.49724515285492C18.00793372039795,20.49724515285492,12.73243372039795,17.54424515285492,12.73243372039795,17.54424515285492C12.73243372039795,17.54424515285492,11.755533720397949,19.28934515285492,11.755533720397949,19.28934515285492C11.755533720397949,19.28934515285492,17.03103372039795,22.24244515285492,17.03103372039795,22.24244515285492C17.03103372039795,22.24244515285492,18.00793372039795,20.49724515285492,18.00793372039795,20.49724515285492C18.00793372039795,20.49724515285492,18.00793372039795,20.49724515285492,18.00793372039795,20.49724515285492ZM11.267133720397949,17.54424515285492C11.267133720397949,17.54424515285492,5.9915637203979495,20.49724515285492,5.9915637203979495,20.49724515285492C5.9915637203979495,20.49724515285492,6.9684537203979495,22.24244515285492,6.9684537203979495,22.24244515285492C6.9684537203979495,22.24244515285492,12.24393372039795,19.28934515285492,12.24393372039795,19.28934515285492C12.24393372039795,19.28934515285492,11.267133720397949,17.54424515285492,11.267133720397949,17.54424515285492C11.267133720397949,17.54424515285492,11.267133720397949,17.54424515285492,11.267133720397949,17.54424515285492ZM6.726203720397949,21.03094515285492C6.726203720397949,21.03094515285492,7.9044537203979495,15.101145152854919,7.9044537203979495,15.101145152854919C7.9044537203979495,15.101145152854919,5.942803720397949,14.71134515285492,5.942803720397949,14.71134515285492C5.942803720397949,14.71134515285492,4.764553720397949,20.641145152854918,4.764553720397949,20.641145152854918C4.764553720397949,20.641145152854918,6.726203720397949,21.03094515285492,6.726203720397949,21.03094515285492C6.726203720397949,21.03094515285492,6.726203720397949,21.03094515285492,6.726203720397949,21.03094515285492ZM7.451643720397949,13.70744515285492C7.451643720397949,13.70744515285492,3.012933720397949,9.60270515285492,3.012933720397949,9.60270515285492C3.012933720397949,9.60270515285492,1.6550327203979491,11.071065152854919,1.6550327203979491,11.071065152854919C1.6550327203979491,11.071065152854919,6.093743720397949,15.175845152854919,6.093743720397949,15.175845152854919C6.093743720397949,15.175845152854919,7.451643720397949,13.70744515285492,7.451643720397949,13.70744515285492C7.451643720397949,13.70744515285492,7.451643720397949,13.70744515285492,7.451643720397949,13.70744515285492ZM2.732333720397949,10.46631515285492C2.732333720397949,10.46631515285492,8.73605372039795,9.75447515285492,8.73605372039795,9.75447515285492C8.73605372039795,9.75447515285492,8.500573720397949,7.768385152854919,8.500573720397949,7.768385152854919C8.500573720397949,7.768385152854919,2.4968437203979494,8.48022515285492,2.4968437203979494,8.48022515285492C2.4968437203979494,8.48022515285492,2.732333720397949,10.46631515285492,2.732333720397949,10.46631515285492C2.732333720397949,10.46631515285492,2.732333720397949,10.46631515285492,2.732333720397949,10.46631515285492ZM9.92153372039795,8.893185152854919C9.92153372039795,8.893185152854919,12.453733720397949,3.4032751528549197,12.453733720397949,3.4032751528549197C12.453733720397949,3.4032751528549197,10.63766372039795,2.5655781528549193,10.63766372039795,2.5655781528549193C10.63766372039795,2.5655781528549193,8.105413720397948,8.05548515285492,8.105413720397948,8.05548515285492C8.105413720397948,8.05548515285492,9.92153372039795,8.893185152854919,9.92153372039795,8.893185152854919C9.92153372039795,8.893185152854919,9.92153372039795,8.893185152854919,9.92153372039795,8.893185152854919ZM8.73605372039795,9.75447515285492C9.25410372039795,9.69305515285492,9.703033720397949,9.36689515285492,9.92153372039795,8.89317515285492C9.92153372039795,8.89317515285492,8.105413720397948,8.05548515285492,8.105413720397948,8.05548515285492C8.178253720397949,7.897585152854919,8.327893720397949,7.788865152854919,8.500573720397949,7.768385152854919C8.500573720397949,7.768385152854919,8.73605372039795,9.75447515285492,8.73605372039795,9.75447515285492C8.73605372039795,9.75447515285492,8.73605372039795,9.75447515285492,8.73605372039795,9.75447515285492ZM3.012933720397949,9.60270515285492C3.326183720397949,9.892385152854919,3.1560237203979495,10.41607515285492,2.732333720397949,10.46631515285492C2.732333720397949,10.46631515285492,2.4968437203979494,8.48022515285492,2.4968437203979494,8.48022515285492C1.225755520397949,8.63093515285492,0.7152817203979492,10.20201515285492,1.6550327203979491,11.071065152854919C1.6550327203979491,11.071065152854919,3.012933720397949,9.60270515285492,3.012933720397949,9.60270515285492C3.012933720397949,9.60270515285492,3.012933720397949,9.60270515285492,3.012933720397949,9.60270515285492ZM7.9044537203979495,15.101145152854919C8.006123720397948,14.58944515285492,7.83465372039795,14.06164515285492,7.451643720397949,13.70744515285492C7.451643720397949,13.70744515285492,6.093743720397949,15.175845152854919,6.093743720397949,15.175845152854919C5.966073720397949,15.057745152854919,5.908913720397949,14.88184515285492,5.942803720397949,14.71134515285492C5.942803720397949,14.71134515285492,7.9044537203979495,15.101145152854919,7.9044537203979495,15.101145152854919C7.9044537203979495,15.101145152854919,7.9044537203979495,15.101145152854919,7.9044537203979495,15.101145152854919ZM5.9915637203979495,20.49724515285492C6.363873720397949,20.28884515285492,6.809353720397949,20.61244515285492,6.726203720397949,21.03094515285492C6.726203720397949,21.03094515285492,4.764553720397949,20.641145152854918,4.764553720397949,20.641145152854918C4.5150937203979495,21.89664515285492,5.851533720397949,22.86764515285492,6.9684537203979495,22.24244515285492C6.9684537203979495,22.24244515285492,5.9915637203979495,20.49724515285492,5.9915637203979495,20.49724515285492C5.9915637203979495,20.49724515285492,5.9915637203979495,20.49724515285492,5.9915637203979495,20.49724515285492ZM12.73243372039795,17.54424515285492C12.27723372039795,17.28934515285492,11.72233372039795,17.28934515285492,11.267133720397949,17.54424515285492C11.267133720397949,17.54424515285492,12.24393372039795,19.28934515285492,12.24393372039795,19.28934515285492C12.09223372039795,19.374345152854918,11.907233720397949,19.374345152854918,11.755533720397949,19.28934515285492C11.755533720397949,19.28934515285492,12.73243372039795,17.54424515285492,12.73243372039795,17.54424515285492C12.73243372039795,17.54424515285492,12.73243372039795,17.54424515285492,12.73243372039795,17.54424515285492ZM17.27333372039795,21.03094515285492C17.19013372039795,20.61244515285492,17.635633720397948,20.28884515285492,18.00793372039795,20.49724515285492C18.00793372039795,20.49724515285492,17.03103372039795,22.24244515285492,17.03103372039795,22.24244515285492C18.147933720397948,22.86764515285492,19.48443372039795,21.89664515285492,19.23493372039795,20.641145152854918C19.23493372039795,20.641145152854918,17.27333372039795,21.03094515285492,17.27333372039795,21.03094515285492C17.27333372039795,21.03094515285492,17.27333372039795,21.03094515285492,17.27333372039795,21.03094515285492ZM16.54783372039795,13.70744515285492C16.16483372039795,14.06164515285492,15.993333720397949,14.58944515285492,16.09503372039795,15.101145152854919C16.09503372039795,15.101145152854919,18.05663372039795,14.71134515285492,18.05663372039795,14.71134515285492C18.09053372039795,14.88184515285492,18.033433720397948,15.05784515285492,17.90573372039795,15.175845152854919C17.90573372039795,15.175845152854919,16.54783372039795,13.70744515285492,16.54783372039795,13.70744515285492C16.54783372039795,13.70744515285492,16.54783372039795,13.70744515285492,16.54783372039795,13.70744515285492ZM21.26713372039795,10.46631515285492C20.84343372039795,10.41607515285492,20.67333372039795,9.892385152854919,20.98653372039795,9.60270515285492C20.98653372039795,9.60270515285492,22.344433720397948,11.071065152854919,22.344433720397948,11.071065152854919C23.28423372039795,10.20201515285492,22.77373372039795,8.63093515285492,21.50263372039795,8.48022515285492C21.50263372039795,8.48022515285492,21.26713372039795,10.46631515285492,21.26713372039795,10.46631515285492C21.26713372039795,10.46631515285492,21.26713372039795,10.46631515285492,21.26713372039795,10.46631515285492ZM14.077933720397949,8.893185152854919C14.29643372039795,9.36688515285492,14.74543372039795,9.69305515285492,15.263433720397948,9.75447515285492C15.263433720397948,9.75447515285492,15.498933720397948,7.768385152854919,15.498933720397948,7.768385152854919C15.67163372039795,7.788865152854919,15.821233720397949,7.897585152854919,15.89403372039795,8.05548515285492C15.89403372039795,8.05548515285492,14.077933720397949,8.893185152854919,14.077933720397949,8.893185152854919C14.077933720397949,8.893185152854919,14.077933720397949,8.893185152854919,14.077933720397949,8.893185152854919ZM13.36183372039795,2.565577152854919C12.825733720397949,1.4032671528549194,11.17373372039795,1.4032671528549194,10.63766372039795,2.565577152854919C10.63766372039795,2.565577152854919,12.453733720397949,3.4032751528549197,12.453733720397949,3.4032751528549197C12.27503372039795,3.7907051528549194,11.724433720397949,3.7907051528549194,11.54573372039795,3.4032751528549197C11.54573372039795,3.4032751528549197,13.36183372039795,2.565577152854919,13.36183372039795,2.565577152854919C13.36183372039795,2.565577152854919,13.36183372039795,2.565577152854919,13.36183372039795,2.565577152854919Z" fill="#FFFFFF" fill-opacity="1"/></g></g></svg>