<svg xmlns="http://www.w3.org/2000/svg" xmlns:xlink="http://www.w3.org/1999/xlink" fill="none" version="1.1" width="246" height="246" viewBox="0 0 246 246"><defs><clipPath id="master_svg0_0_2458"><rect x="0" y="0" width="246" height="246" rx="0"/></clipPath><filter id="master_svg1_0_2461" filterUnits="objectBoundingBox" color-interpolation-filters="sRGB" x="0" y="0" width="246" height="246"><feFlood flood-opacity="0" result="BackgroundImageFix"/><feBlend mode="normal" in="SourceGraphic" in2="BackgroundImageFix" result="shape"/><feColorMatrix in="SourceAlpha" type="matrix" result="hardAlpha" values="0 0 0 0 0 0 0 0 0 0 0 0 0 0 0 0 0 0 127 0"/><feOffset dy="16" dx="-11"/><feGaussianBlur stdDeviation="15.5"/><feComposite in2="hardAlpha" operator="arithmetic" k2="-1" k3="1"/><feColorMatrix type="matrix" values="0 0 0 0 1 0 0 0 0 1 0 0 0 0 1 0 0 0 0.5899999737739563 0"/><feBlend mode="normal" in2="shape" result="effect1_innerShadow"/><feColorMatrix in="SourceAlpha" type="matrix" result="hardAlpha" values="0 0 0 0 0 0 0 0 0 0 0 0 0 0 0 0 0 0 127 0"/><feOffset dy="-18" dx="0"/><feGaussianBlur stdDeviation="15.5"/><feComposite in2="hardAlpha" operator="arithmetic" k2="-1" k3="1"/><feColorMatrix type="matrix" values="0 0 0 0 0.9436388611793518 0 0 0 0 0.22361111640930176 0 0 0 0 0.9583333134651184 0 0 0 0.4399999976158142 0"/><feBlend mode="normal" in2="effect1_innerShadow" result="effect2_innerShadow"/><feColorMatrix in="SourceAlpha" type="matrix" result="hardAlpha" values="0 0 0 0 0 0 0 0 0 0 0 0 0 0 0 0 0 0 127 0"/><feOffset dy="13" dx="21"/><feGaussianBlur stdDeviation="24"/><feComposite in2="hardAlpha" operator="arithmetic" k2="-1" k3="1"/><feColorMatrix type="matrix" values="0 0 0 0 0.6828056573867798 0 0 0 0 0.06527775526046753 0 0 0 0 0.7833333611488342 0 0 0 0.14000000059604645 0"/><feBlend mode="normal" in2="effect2_innerShadow" result="effect3_innerShadow"/></filter><radialGradient cx="0" cy="0" r="1" gradientUnits="userSpaceOnUse" id="master_svg2_0_27" gradientTransform="translate(108.99999135732651 16.00000123679638) rotate(86.5167316045298) scale(230.42567633050828 431.67473114908324)"><stop offset="0%" stop-color="#FFBB0C" stop-opacity="1"/><stop offset="100%" stop-color="#FFC907" stop-opacity="1"/></radialGradient><linearGradient x1="0.5" y1="0" x2="0.6020408868789673" y2="1.1700679063796997" id="master_svg3_0_283"><stop offset="0%" stop-color="#FFFFFF" stop-opacity="1"/><stop offset="100%" stop-color="#FFFFFF" stop-opacity="1"/></linearGradient><mask id="master_svg4_0_2463"><g transform="matrix(-1,-8.742277657347586e-8,8.742277657347586e-8,-1,388.2052122666835,422.0000474865677)"><path d="M316.00561535644533,284.50001525878906C321.6126153564453,284.50001525878906,324.4166153564453,284.50001525878906,327.55861535644533,283.08021525878905C331.8236153564453,281.15261525878907,336.3666153564453,274.89001525878905,336.8746153564453,270.2370152587891C337.24861535644527,266.80981525878906,336.6906153564453,265.10081525878905,335.5746153564453,261.68281525878905C332.0176153564453,250.79251525878905,325.9306153564453,240.77991525878906,317.6776153564453,232.52771525878907C303.8936153564453,218.74374525878906,285.1986153564453,211.00001673049906,265.7052153564453,211.00001525878926C246.2118153564453,211.00001378707907,227.5168153564453,218.74373525878906,213.73291535644532,232.52761525878907C205.1325153564453,241.12801525878905,198.8835953564453,251.64031525878906,195.3999653564453,263.06551525878905C194.35962735644532,266.4775152587891,193.8394573564453,268.18351525878904,194.23510735644533,271.35621525878906C194.7781273564453,275.71061525878906,198.99642535644531,281.40681525878904,203.0031253564453,283.19621525878904C205.9225153564453,284.50001525878906,208.60011535644531,284.50001525878906,213.9552153564453,284.50001525878906C213.9552153564453,284.50001525878906,265.7052153564453,284.50001525878906,265.7052153564453,284.50001525878906C265.7052153564453,284.50001525878906,316.00561535644533,284.50001525878906,316.00561535644533,284.50001525878906C316.00561535644533,284.50001525878906,316.00561535644533,284.50001525878906,316.00561535644533,284.50001525878906Z" fill="url(#master_svg3_0_283)" fill-opacity="1"/></g></mask><filter id="master_svg5_0_2464" filterUnits="objectBoundingBox" color-interpolation-filters="sRGB" x="0" y="0" width="142.88739013671875" height="73.5"><feFlood flood-opacity="0" result="BackgroundImageFix"/><feBlend mode="normal" in="SourceGraphic" in2="BackgroundImageFix" result="shape"/><feColorMatrix in="SourceAlpha" type="matrix" result="hardAlpha" values="0 0 0 0 0 0 0 0 0 0 0 0 0 0 0 0 0 0 127 0"/><feOffset dy="4" dx="0"/><feGaussianBlur stdDeviation="8"/><feComposite in2="hardAlpha" operator="arithmetic" k2="-1" k3="1"/><feColorMatrix type="matrix" values="0 0 0 0 0 0 0 0 0 0 0 0 0 0 0 0 0 0 0.25 0"/><feBlend mode="normal" in2="shape" result="effect1_innerShadow"/></filter><linearGradient x1="0.5" y1="0" x2="0.8061225414276123" y2="1.2925169467926025" id="master_svg6_0_286"><stop offset="0%" stop-color="#3A2EC0" stop-opacity="1"/><stop offset="100%" stop-color="#FF20C1" stop-opacity="1"/></linearGradient><filter id="master_svg7_0_2465" filterUnits="objectBoundingBox" color-interpolation-filters="sRGB" x="0" y="0" width="144.38409423828125" height="24"><feFlood flood-opacity="0" result="BackgroundImageFix"/><feBlend mode="normal" in="SourceGraphic" in2="BackgroundImageFix" result="shape"/><feColorMatrix in="SourceAlpha" type="matrix" result="hardAlpha" values="0 0 0 0 0 0 0 0 0 0 0 0 0 0 0 0 0 0 127 0"/><feOffset dy="-3" dx="0"/><feGaussianBlur stdDeviation="8"/><feComposite in2="hardAlpha" operator="arithmetic" k2="-1" k3="1"/><feColorMatrix type="matrix" values="0 0 0 0 0 0 0 0 0 0 0 0 0 0 0 0 0 0 0.4699999988079071 0"/><feBlend mode="normal" in2="shape" result="effect1_innerShadow"/></filter><filter id="master_svg8_0_2466" filterUnits="objectBoundingBox" color-interpolation-filters="sRGB" x="0" y="0" width="58" height="46"><feFlood flood-opacity="0" result="BackgroundImageFix"/><feBlend mode="normal" in="SourceGraphic" in2="BackgroundImageFix" result="shape"/><feColorMatrix in="SourceAlpha" type="matrix" result="hardAlpha" values="0 0 0 0 0 0 0 0 0 0 0 0 0 0 0 0 0 0 127 0"/><feOffset dy="-10" dx="0"/><feGaussianBlur stdDeviation="5"/><feComposite in2="hardAlpha" operator="arithmetic" k2="-1" k3="1"/><feColorMatrix type="matrix" values="0 0 0 0 0.8289324045181274 0 0 0 0 0.05963540077209473 0 0 0 0 0.9541666507720947 0 0 0 0.6000000238418579 0"/><feBlend mode="normal" in2="shape" result="effect1_innerShadow"/><feColorMatrix in="SourceAlpha" type="matrix" result="hardAlpha" values="0 0 0 0 0 0 0 0 0 0 0 0 0 0 0 0 0 0 127 0"/><feOffset dy="4" dx="-3"/><feGaussianBlur stdDeviation="2"/><feComposite in2="hardAlpha" operator="arithmetic" k2="-1" k3="1"/><feColorMatrix type="matrix" values="0 0 0 0 1 0 0 0 0 1 0 0 0 0 1 0 0 0 0.28999999165534973 0"/><feBlend mode="normal" in2="effect1_innerShadow" result="effect2_innerShadow"/><feColorMatrix in="SourceAlpha" type="matrix" result="hardAlpha" values="0 0 0 0 0 0 0 0 0 0 0 0 0 0 0 0 0 0 127 0"/><feOffset dy="4" dx="0"/><feGaussianBlur stdDeviation="5"/><feComposite in2="hardAlpha" operator="arithmetic" k2="-1" k3="1"/><feColorMatrix type="matrix" values="0 0 0 0 0 0 0 0 0 0 0 0 0 0 0 0 0 0 0.25 0"/><feBlend mode="normal" in2="effect2_innerShadow" result="effect3_innerShadow"/></filter><radialGradient cx="0" cy="0" r="1" gradientUnits="userSpaceOnUse" id="master_svg9_0_802" gradientTransform="translate(121.2926836013794 180.17074275016785) rotate(88.98260785903048) scale(39.83554871193 86.98463537424846)"><stop offset="0%" stop-color="#FC4141" stop-opacity="1"/><stop offset="100%" stop-color="#FF0F0F" stop-opacity="1"/></radialGradient><filter id="master_svga_0_2469" filterUnits="objectBoundingBox" color-interpolation-filters="sRGB" x="-40" y="-30" width="311" height="178"><feFlood flood-opacity="0" result="BackgroundImageFix"/><feColorMatrix in="SourceAlpha" type="matrix" values="0 0 0 0 0 0 0 0 0 0 0 0 0 0 0 0 0 0 127 0"/><feOffset dy="10" dx="0"/><feGaussianBlur stdDeviation="10"/><feColorMatrix type="matrix" values="0 0 0 0 1 0 0 0 0 0.14166665077209473 0 0 0 0 0.9141663312911987 0 0 0 0.5199999809265137 0"/><feBlend mode="normal" in2="BackgroundImageFix" result="effect1_dropShadow"/><feBlend mode="normal" in="SourceGraphic" in2="effect1_dropShadow" result="shape"/></filter><clipPath id="master_svgb_0_2471"><rect x="8" y="25" width="109" height="98" rx="0"/></clipPath><filter id="master_svgc_0_2478" filterUnits="objectBoundingBox" color-interpolation-filters="sRGB" x="0" y="0" width="109.00006866455078" height="97.99999237060547"><feFlood flood-opacity="0" result="BackgroundImageFix"/><feBlend mode="normal" in="SourceGraphic" in2="BackgroundImageFix" result="shape"/><feColorMatrix in="SourceAlpha" type="matrix" result="hardAlpha" values="0 0 0 0 0 0 0 0 0 0 0 0 0 0 0 0 0 0 127 0"/><feOffset dy="6" dx="-2"/><feGaussianBlur stdDeviation="6.5"/><feComposite in2="hardAlpha" operator="arithmetic" k2="-1" k3="1"/><feColorMatrix type="matrix" values="0 0 0 0 1 0 0 0 0 1 0 0 0 0 1 0 0 0 0.6000000238418579 0"/><feBlend mode="normal" in2="shape" result="effect1_innerShadow"/><feColorMatrix in="SourceAlpha" type="matrix" result="hardAlpha" values="0 0 0 0 0 0 0 0 0 0 0 0 0 0 0 0 0 0 127 0"/><feOffset dy="-6" dx="-2"/><feGaussianBlur stdDeviation="8.5"/><feComposite in2="hardAlpha" operator="arithmetic" k2="-1" k3="1"/><feColorMatrix type="matrix" values="0 0 0 0 0.9916666746139526 0 0 0 0 0.11156249046325684 0 0 0 0 0.6396253108978271 0 0 0 0.8299999833106995 0"/><feBlend mode="normal" in2="effect1_innerShadow" result="effect2_innerShadow"/></filter><filter id="master_svgd_0_2479" filterUnits="objectBoundingBox" color-interpolation-filters="sRGB" x="-64" y="-64" width="157.00023078918457" height="179.26758193969727"><feFlood flood-opacity="0" result="BackgroundImageFix"/><feBlend mode="normal" in="SourceGraphic" in2="BackgroundImageFix" result="shape"/><feGaussianBlur stdDeviation="16" result="effect1_foregroundBlur"/></filter><clipPath id="master_svge_0_2480"><rect x="130" y="25" width="109" height="98" rx="0"/></clipPath><filter id="master_svgf_0_2481" filterUnits="objectBoundingBox" color-interpolation-filters="sRGB" x="0" y="0" width="109.00006866455078" height="97.99999237060547"><feFlood flood-opacity="0" result="BackgroundImageFix"/><feBlend mode="normal" in="SourceGraphic" in2="BackgroundImageFix" result="shape"/><feColorMatrix in="SourceAlpha" type="matrix" result="hardAlpha" values="0 0 0 0 0 0 0 0 0 0 0 0 0 0 0 0 0 0 127 0"/><feOffset dy="6" dx="-2"/><feGaussianBlur stdDeviation="6.5"/><feComposite in2="hardAlpha" operator="arithmetic" k2="-1" k3="1"/><feColorMatrix type="matrix" values="0 0 0 0 1 0 0 0 0 1 0 0 0 0 1 0 0 0 0.6000000238418579 0"/><feBlend mode="normal" in2="shape" result="effect1_innerShadow"/><feColorMatrix in="SourceAlpha" type="matrix" result="hardAlpha" values="0 0 0 0 0 0 0 0 0 0 0 0 0 0 0 0 0 0 127 0"/><feOffset dy="-6" dx="-2"/><feGaussianBlur stdDeviation="8.5"/><feComposite in2="hardAlpha" operator="arithmetic" k2="-1" k3="1"/><feColorMatrix type="matrix" values="0 0 0 0 0.9916666746139526 0 0 0 0 0.11156249046325684 0 0 0 0 0.6396253108978271 0 0 0 0.8299999833106995 0"/><feBlend mode="normal" in2="effect1_innerShadow" result="effect2_innerShadow"/></filter><filter id="master_svgg_0_2482" filterUnits="objectBoundingBox" color-interpolation-filters="sRGB" x="-64" y="-64" width="157.00023078918457" height="179.26758193969727"><feFlood flood-opacity="0" result="BackgroundImageFix"/><feBlend mode="normal" in="SourceGraphic" in2="BackgroundImageFix" result="shape"/><feGaussianBlur stdDeviation="16" result="effect1_foregroundBlur"/></filter></defs><g clip-path="url(#master_svg0_0_2458)"><g><g filter="url(#master_svg1_0_2461)"><path d="M0 115C7.848438341267089e-15 51.48725376945875 51.48725376945877 0 115 0L127 0C192.72188522986443 7.848438341267089e-15 246 53.27811477013559 246 119L246 127C246 192.72188522986443 192.72188522986443 246 127.00000000000001 246L123 246C55.06897577081243 246 7.848438341267089e-15 190.93102422918759 0 123.00000000000001Z" fill="url(#master_svg2_0_27)" fill-opacity="1"/></g></g><g mask="url(#master_svg4_0_2463)"><g transform="matrix(-1,-8.742277657347586e-8,8.742277657347586e-8,-1,388.2052122666835,422.0000474865677)" filter="url(#master_svg5_0_2464)"><path d="M316.00561535644533,284.50001525878906C321.6126153564453,284.50001525878906,324.4166153564453,284.50001525878906,327.55861535644533,283.08021525878905C331.8236153564453,281.15261525878907,336.3666153564453,274.89001525878905,336.8746153564453,270.2370152587891C337.24861535644527,266.80981525878906,336.6906153564453,265.10081525878905,335.5746153564453,261.68281525878905C332.0176153564453,250.79251525878905,325.9306153564453,240.77991525878906,317.6776153564453,232.52771525878907C303.8936153564453,218.74374525878906,285.1986153564453,211.00001673049906,265.7052153564453,211.00001525878926C246.2118153564453,211.00001378707907,227.5168153564453,218.74373525878906,213.73291535644532,232.52761525878907C205.1325153564453,241.12801525878905,198.8835953564453,251.64031525878906,195.3999653564453,263.06551525878905C194.35962735644532,266.4775152587891,193.8394573564453,268.18351525878904,194.23510735644533,271.35621525878906C194.7781273564453,275.71061525878906,198.99642535644531,281.40681525878904,203.0031253564453,283.19621525878904C205.9225153564453,284.50001525878906,208.60011535644531,284.50001525878906,213.9552153564453,284.50001525878906C213.9552153564453,284.50001525878906,265.7052153564453,284.50001525878906,265.7052153564453,284.50001525878906C265.7052153564453,284.50001525878906,316.00561535644533,284.50001525878906,316.00561535644533,284.50001525878906C316.00561535644533,284.50001525878906,316.00561535644533,284.50001525878906,316.00561535644533,284.50001525878906Z" fill="url(#master_svg6_0_286)" fill-opacity="1"/></g><g filter="url(#master_svg7_0_2465)"><path d="M51.45869963131714,141.68C48.67750163131714,135.30215,53.15920163131714,128,60.11710163131714,128C60.11710163131714,128,183.77069163131713,128,183.77069163131713,128C185.27969163131715,128,181.50869163131713,128,182.52769163131714,128.177012C187.26169163131715,128.999175,193.39069163131714,139.4887,191.78269163131714,144.016C191.43669163131713,144.9908,196.57469163131714,135.87281,194.51969163131713,139.52C194.51969163131713,139.52,194.51969163131713,139.52,194.51969163131713,139.52C194.51969163131713,139.52,194.51969163131713,139.52,194.51969163131713,139.52C191.91069163131715,144.1493,191.51769163131715,152,186.20369163131713,152C186.20369163131713,152,55.86200163131714,152,55.86200163131714,152C52.00720163131714,152,52.99960163131714,145.2135,51.45869963131714,141.68C51.45869963131714,141.68,51.45869963131714,141.68,51.45869963131714,141.68C51.45869963131714,141.68,51.45869963131714,141.68,51.45869963131714,141.68C51.45869963131714,141.68,51.45869963131714,141.68,51.45869963131714,141.68Z" fill="#FFFFFF" fill-opacity="1"/></g><g filter="url(#master_svg8_0_2466)"><ellipse cx="122" cy="197.0000114440918" rx="29" ry="23" fill="url(#master_svg9_0_802)" fill-opacity="1"/></g></g><g filter="url(#master_svga_0_2469)"><g clip-path="url(#master_svgb_0_2471)"><g filter="url(#master_svgc_0_2478)"><path d="M113.47700000275341,59.508499771296925C113.47700000275341,59.508499771296925,94.7445000027534,56.94529977129693,94.7445000027534,56.94529977129693C86.0295000027534,55.75279977129693,78.5476000027534,50.73599977129693,74.7910000027534,43.56589977129693C74.7910000027534,43.56589977129693,66.1940000027534,27.156819771296927,66.1940000027534,27.156819771296927C65.7951000027534,26.393469771296928,65.13870000275341,25.775515771296927,64.32790000275341,25.399896771296927C62.294600002753405,24.45479177129693,59.8236000027534,25.242378771296927,58.8069000027534,27.156819771296927C58.8069000027534,27.156819771296927,50.209800002753404,43.56589977129693,50.209800002753404,43.56589977129693C46.4533000027534,50.73599977129693,38.9713000027534,55.75279977129693,30.256300002753402,56.94529977129693C30.256300002753402,56.94529977129693,11.523530002753404,59.508499771296925,11.523530002753404,59.508499771296925C10.622640002753403,59.62969977129693,9.798980002753403,60.029499771296926,9.168370002753402,60.635399771296925C8.405989002753403,61.37309977129693,7.9858831027534025,62.36559977129693,8.000362233753403,63.39489977129693C8.014841302753403,64.42409977129694,8.462720002753404,65.40579977129693,9.245590002753403,66.12419977129693C9.245590002753403,66.12419977129693,23.5130000027534,79.22049977129693,23.5130000027534,79.22049977129693C29.406300002753404,84.63009977129693,32.0827000027534,92.23909977129692,30.720700002753404,99.71149977129693C30.720700002753404,99.71149977129693,27.301700002753403,118.46849977129693,27.301700002753403,118.46849977129693C27.170800002753403,119.18139977129692,27.254500002753403,119.91449977129693,27.543700002753404,120.58499977129692C27.832700002753402,121.25479977129693,28.315500002753403,121.83519977129693,28.937200002753404,122.26049977129692C29.558800002753404,122.68579977129693,30.294600002753402,122.93889977129693,31.061000002753403,122.99019977129693C31.827500002753403,123.04159977129693,32.5939000027534,122.88939977129692,33.273400002753405,122.55159977129692C33.273400002753405,122.55159977129692,49.7406000027534,114.40059977129692,49.7406000027534,114.40059977129692C57.6849000027534,110.46819977129692,67.31600000275341,110.46819977129692,75.26030000275341,114.40059977129692C75.26030000275341,114.40059977129692,91.7275000027534,122.55159977129692,91.7275000027534,122.55159977129692C92.5255000027534,122.95219977129693,93.45210000275341,123.08539977129693,94.34020000275339,122.93979977129693C96.5794000027534,122.57639977129693,98.0852000027534,120.57639977129693,97.6991000027534,118.46849977129693C97.6991000027534,118.46849977129693,94.28020000275339,99.71149977129693,94.28020000275339,99.71149977129693C92.9182000027534,92.23909977129692,95.5946000027534,84.63009977129693,101.4879000027534,79.22049977129693C101.4879000027534,79.22049977129693,115.7550000027534,66.12419977129693,115.7550000027534,66.12419977129693C116.39900000275341,65.53049977129693,116.8240000027534,64.75509977129693,116.95200000275341,63.906799771296924C117.30000000275339,61.78639977129693,115.7290000027534,59.82349977129693,113.47700000275341,59.508499771296925C113.47700000275341,59.508499771296925,113.47700000275341,59.508499771296925,113.47700000275341,59.508499771296925Z" fill="#FB2EFF" fill-opacity="1"/></g><g transform="matrix(0.8763048052787781,0.4817570447921753,-0.5623674392700195,0.8268874883651733,41.10413366947523,-29.047822328478105)" filter="url(#master_svgd_0_2479)"><ellipse cx="94.71964359283447" cy="81.08039283752441" rx="14.500115394592285" ry="25.633790969848633" fill="#FFFFFF" fill-opacity="0.8100000023841858"/></g></g><g clip-path="url(#master_svge_0_2480)"><g filter="url(#master_svgf_0_2481)"><path d="M235.4770000027534,59.508499771296925C235.4770000027534,59.508499771296925,216.7445000027534,56.94529977129693,216.7445000027534,56.94529977129693C208.02950000275342,55.75279977129693,200.54760000275343,50.73599977129693,196.7910000027534,43.56589977129693C196.7910000027534,43.56589977129693,188.1940000027534,27.156819771296927,188.1940000027534,27.156819771296927C187.7951000027534,26.393469771296928,187.1387000027534,25.775515771296927,186.3279000027534,25.399896771296927C184.2946000027534,24.45479177129693,181.8236000027534,25.242378771296927,180.80690000275342,27.156819771296927C180.80690000275342,27.156819771296927,172.2098000027534,43.56589977129693,172.2098000027534,43.56589977129693C168.4533000027534,50.73599977129693,160.97130000275342,55.75279977129693,152.25630000275342,56.94529977129693C152.25630000275342,56.94529977129693,133.5235300027534,59.508499771296925,133.5235300027534,59.508499771296925C132.6226400027534,59.62969977129693,131.7989800027534,60.029499771296926,131.16837000275342,60.635399771296925C130.40598900275342,61.37309977129693,129.9858831027534,62.36559977129693,130.0003622337534,63.39489977129693C130.0148413027534,64.42409977129694,130.4627200027534,65.40579977129693,131.2455900027534,66.12419977129693C131.2455900027534,66.12419977129693,145.51300000275342,79.22049977129693,145.51300000275342,79.22049977129693C151.40630000275343,84.63009977129693,154.0827000027534,92.23909977129692,152.7207000027534,99.71149977129693C152.7207000027534,99.71149977129693,149.30170000275342,118.46849977129693,149.30170000275342,118.46849977129693C149.17080000275342,119.18139977129692,149.25450000275342,119.91449977129693,149.5437000027534,120.58499977129692C149.8327000027534,121.25479977129693,150.31550000275342,121.83519977129693,150.9372000027534,122.26049977129692C151.5588000027534,122.68579977129693,152.2946000027534,122.93889977129693,153.06100000275342,122.99019977129693C153.82750000275342,123.04159977129693,154.5939000027534,122.88939977129692,155.27340000275342,122.55159977129692C155.27340000275342,122.55159977129692,171.7406000027534,114.40059977129692,171.7406000027534,114.40059977129692C179.6849000027534,110.46819977129692,189.3160000027534,110.46819977129692,197.2603000027534,114.40059977129692C197.2603000027534,114.40059977129692,213.7275000027534,122.55159977129692,213.7275000027534,122.55159977129692C214.5255000027534,122.95219977129693,215.4521000027534,123.08539977129693,216.34020000275342,122.93979977129693C218.5794000027534,122.57639977129693,220.08520000275342,120.57639977129693,219.69910000275343,118.46849977129693C219.69910000275343,118.46849977129693,216.28020000275342,99.71149977129693,216.28020000275342,99.71149977129693C214.9182000027534,92.23909977129692,217.5946000027534,84.63009977129693,223.4879000027534,79.22049977129693C223.4879000027534,79.22049977129693,237.7550000027534,66.12419977129693,237.7550000027534,66.12419977129693C238.3990000027534,65.53049977129693,238.8240000027534,64.75509977129693,238.9520000027534,63.906799771296924C239.3000000027534,61.78639977129693,237.72900000275342,59.82349977129693,235.4770000027534,59.508499771296925C235.4770000027534,59.508499771296925,235.4770000027534,59.508499771296925,235.4770000027534,59.508499771296925Z" fill="#FB2EFF" fill-opacity="1"/></g><g transform="matrix(0.8763048052787781,0.4817570447921753,-0.5623674392700195,0.8268874883651733,56.194947425464306,-87.82218179312349)" filter="url(#master_svgg_0_2482)"><ellipse cx="216.71964359283447" cy="81.08039283752441" rx="14.500115394592285" ry="25.633790969848633" fill="#FFFFFF" fill-opacity="0.8100000023841858"/></g></g></g></g></svg>