<svg xmlns="http://www.w3.org/2000/svg" xmlns:xlink="http://www.w3.org/1999/xlink" fill="none" version="1.1" width="24" height="24" viewBox="0 0 24 24"><defs><clipPath id="master_svg0_0_8161"><rect x="0" y="0" width="24" height="24" rx="0"/></clipPath></defs><g clip-path="url(#master_svg0_0_8161)"><g><g><path d="M10.937829601631165,15.010193126602172C10.354019601631165,14.428803126602173,10.354019601631165,13.487923126602173,10.937829601631165,12.906533126602174C11.523959601631164,12.322853126602173,12.475979601631165,12.322853126602173,13.062109601631164,12.906543126602173C13.645919601631164,13.487923126602173,13.645919601631164,14.428803126602173,13.062109601631164,15.010193126602172C12.475979601631165,15.593873126602173,11.523959601631164,15.593883126602172,10.937829601631165,15.010193126602172ZM14.473369601631164,16.427353126602174C15.842169601631165,15.064243126602172,15.842169601631165,12.852483126602174,14.473369601631164,11.489373126602173C13.106869601631164,10.128572126602172,10.893069601631165,10.128571126602173,9.526569601631165,11.489373126602173C8.157768601631165,12.852483126602174,8.157769601631164,15.064243126602172,9.526569601631165,16.427353126602174C10.893069601631165,17.78815312660217,13.106869601631164,17.78816312660217,14.473369601631164,16.427353126602174Z" fill-rule="evenodd" fill="#000000" fill-opacity="1"/></g><g><path d="M17.12500011920929,19.067990258789063C19.95830011920929,16.246490258789063,19.95830011920929,11.670250258789062,17.12500011920929,8.848770258789063C14.294080119209289,6.029597258789062,9.705910119209289,6.029595258789063,6.87495011920929,8.848770258789063C4.041682119209289,11.670240258789063,4.04168411920929,16.246490258789063,6.87495011920929,19.067990258789063C6.87495011920929,19.067990258789063,8.28621011920929,17.650790258789062,8.28621011920929,17.650790258789062C6.23793011920929,15.611050258789062,6.23793011920929,12.305690258789063,8.28621011920929,10.265930258789062C10.33680011920929,8.223880258789062,13.66319011920929,8.223880258789062,15.71380011920929,10.265930258789062C17.76210011920929,12.305690258789063,17.76210011920929,15.611050258789062,15.71380011920929,17.650790258789062C15.71380011920929,17.650790258789062,17.12500011920929,19.067990258789063,17.12500011920929,19.067990258789063Z" fill-rule="evenodd" fill="#000000" fill-opacity="1"/></g><g><path d="M19.776700596044517,21.70859999999804C24.074400596044516,17.428699999998038,24.074400596044516,10.487999999998038,19.776700596044517,6.208159999998038C15.481300596044514,1.930619999998039,8.518730596044515,1.9306099999980388,4.223300596044515,6.208159999998038C-0.07443940395548498,10.487999999998038,-0.07442940395548492,17.428699999998038,4.223300596044515,21.70859999999804C4.223300596044515,21.70859999999804,5.634560596044515,20.29139999999804,5.634560596044515,20.29139999999804C2.121810596044515,16.79329999999804,2.121810596044515,11.12343999999804,5.634560596044515,7.625319999998039C9.149620596044516,4.124889999998039,14.850400596044516,4.124889999998039,18.365400596044516,7.625319999998039C21.878200596044515,11.123449999998039,21.878200596044515,16.79329999999804,18.365400596044516,20.29139999999804C18.365400596044516,20.29139999999804,19.776700596044517,21.70859999999804,19.776700596044517,21.70859999999804Z" fill-rule="evenodd" fill="#000000" fill-opacity="1"/></g></g></g></svg>