<svg xmlns="http://www.w3.org/2000/svg" xmlns:xlink="http://www.w3.org/1999/xlink" fill="none" version="1.1" width="24" height="24" viewBox="0 0 24 24"><defs><clipPath id="master_svg0_0_9062"><rect x="0" y="0" width="24" height="24" rx="0"/></clipPath></defs><g clip-path="url(#master_svg0_0_9062)"><g><g><path d="M11,20C11,20,13,20,13,20C13,20,13,12,13,12C13,12,11,12,11,12C11,12,11,20,11,20Z" fill-rule="evenodd" fill="#000000" fill-opacity="1"/></g><g><path d="M9.707103409729005,15.70711C9.707103409729005,15.70711,12.000003409729004,13.41421,12.000003409729004,13.41421C12.000003409729004,13.41421,14.292893409729004,15.70711,14.292893409729004,15.70711C14.292893409729004,15.70711,15.707103409729005,14.29289,15.707103409729005,14.29289C15.707103409729005,14.29289,12.707103409729005,11.292893,12.707103409729005,11.292893C12.316583409729004,10.9023689,11.683413409729004,10.9023689,11.292893409729004,11.292893C11.292893409729004,11.292893,8.292893409729004,14.29289,8.292893409729004,14.29289C8.292893409729004,14.29289,9.707103409729005,15.70711,9.707103409729005,15.70711Z" fill-rule="evenodd" fill="#000000" fill-opacity="1"/></g><g><path d="M16.5586,7.33088C16.8012,7.27797,17.0532,7.25,17.3125,7.25C19.3124,7.25,21,8.947569999999999,21,11.125C21,12.8113,19.9796,14.2226,18.5883,14.762C18.5622,14.7721,18.5366,14.7833,18.5116,14.7955C18.2419,14.9269,17.9425,15,17.625,15C17.625,15,17,15,17,15C17,15,17,17,17,17C17,17,17.625,17,17.625,17C18.2396,17,18.8244,16.8609,19.3494,16.611800000000002C21.5006,15.7594,23,13.6109,23,11.125C23,7.91766,20.4902,5.25,17.3125,5.25C17.1676,5.25,17.0237,5.25562,16.8813,5.26668C15.6511,3.31194,13.514,2,11.0625,2C7.37844,2,4.41885,4.947839999999999,4.1456,8.61965C2.31933,9.07555,1,10.77803,1,12.75C1,15.0599,2.81022,17,5.125,17C5.125,17,7,17,7,17C7,17,7,15,7,15C7,15,5.125,15,5.125,15C3.988,15,3,14.03,3,12.75C3,11.47003,3.988,10.5,5.125,10.5C5.125,10.5,5.13308,10.5,5.13308,10.5C5.40694,10.5,5.66882,10.38769,5.85758,10.18928C6.04635,9.990870000000001,6.14548,9.72372,6.13184,9.450199999999999C6.1273,9.35916,6.125,9.2674,6.125,9.175C6.125,6.2796,8.3722,4,11.0625,4C12.9544,4,14.619,5.11909,15.4492,6.79726C15.6527,7.20866,16.1102,7.42869,16.5586,7.33088Z" fill-rule="evenodd" fill="#000000" fill-opacity="1"/></g></g></g></svg>