<svg xmlns="http://www.w3.org/2000/svg" xmlns:xlink="http://www.w3.org/1999/xlink" fill="none" version="1.1" width="24" height="24" viewBox="0 0 24 24"><defs><clipPath id="master_svg0_0_1083"><rect x="0" y="0" width="24" height="24" rx="0"/></clipPath></defs><g clip-path="url(#master_svg0_0_1083)"><g><path d="M4,21C4,21.55228,4.447715,22,5,22C5.55228,22,6,21.55228,6,21C6,21,4,21,4,21C4,21,4,21,4,21ZM18,21C18,21.55228,18.447699999999998,22,19,22C19.552300000000002,22,20,21.55228,20,21C20,21,18,21,18,21C18,21,18,21,18,21ZM6,21C6,17.68629,8.68629,15,12,15C12,15,12,13,12,13C7.58172,13,4,16.58172,4,21C4,21,6,21,6,21C6,21,6,21,6,21ZM12,15C15.3137,15,18,17.68629,18,21C18,21,20,21,20,21C20,16.58172,16.418300000000002,13,12,13C12,13,12,15,12,15C12,15,12,15,12,15Z" fill="#FFFFFF" fill-opacity="1"/></g><g><path d="M15,7C15,8.65685,13.65685,10,12,10C12,10,12,12,12,12C14.761420000000001,12,17,9.761420000000001,17,7C17,7,15,7,15,7C15,7,15,7,15,7ZM12,10C10.34315,10,9,8.65685,9,7C9,7,7,7,7,7C7,9.761420000000001,9.238579999999999,12,12,12C12,12,12,10,12,10C12,10,12,10,12,10ZM9,7C9,5.34315,10.34315,4,12,4C12,4,12,2,12,2C9.238579999999999,2,7,4.23858,7,7C7,7,9,7,9,7C9,7,9,7,9,7ZM12,4C13.65685,4,15,5.34315,15,7C15,7,17,7,17,7C17,4.23858,14.761420000000001,2,12,2C12,2,12,4,12,4C12,4,12,4,12,4Z" fill="#FFFFFF" fill-opacity="1"/></g></g></svg>