<svg xmlns="http://www.w3.org/2000/svg" xmlns:xlink="http://www.w3.org/1999/xlink" fill="none" version="1.1" width="24" height="24" viewBox="0 0 24 24"><g><g><path d="M11,3.25C8.65279,3.25,6.75,5.1527899999999995,6.75,7.5C6.75,9.84721,8.65279,11.75,11,11.75C13.3472,11.75,15.25,9.84721,15.25,7.5C15.25,5.1527899999999995,13.3472,3.25,11,3.25ZM8.25,7.5C8.25,5.98122,9.48122,4.75,11,4.75C12.51878,4.75,13.75,5.98122,13.75,7.5C13.75,9.01878,12.51878,10.25,11,10.25C9.48122,10.25,8.25,9.01878,8.25,7.5ZM20.25,7C20.25,6.585789999999999,19.9142,6.25,19.5,6.25C19.0858,6.25,18.75,6.585789999999999,18.75,7L18.75,8.75L17,8.75C16.5858,8.75,16.25,9.08579,16.25,9.5C16.25,9.91421,16.5858,10.25,17,10.25L18.75,10.25L18.75,12C18.75,12.41421,19.0858,12.75,19.5,12.75C19.9142,12.75,20.25,12.41421,20.25,12L20.25,10.25L22,10.25C22.4142,10.25,22.75,9.91421,22.75,9.5C22.75,9.08579,22.4142,8.75,22,8.75L20.25,8.75L20.25,7ZM7,13.25C4.92893,13.25,3.25,14.9289,3.25,17L3.25,18.188299999999998C3.25,18.941499999999998,3.795884,19.5837,4.53927,19.7051C8.818100000000001,20.4037,13.1819,20.4037,17.4607,19.7051C18.2041,19.5837,18.75,18.941499999999998,18.75,18.188299999999998L18.75,17C18.75,14.9289,17.0711,13.25,15,13.25L14.6591,13.25C14.4746,13.25,14.2913,13.2792,14.1159,13.3364L13.2504,13.6191C11.78813,14.0965,10.211870000000001,14.0965,8.749590000000001,13.6191L7.88407,13.3364C7.70869,13.2792,7.52536,13.25,7.34087,13.25L7,13.25ZM4.75,17C4.75,15.7574,5.75736,14.75,7,14.75L7.34087,14.75C7.36722,14.75,7.39342,14.7542,7.41847,14.7623L8.28398,15.045C10.04881,15.6212,11.95119,15.6212,13.716,15.045L14.5815,14.7623C14.6066,14.7542,14.6328,14.75,14.6591,14.75L15,14.75C16.2426,14.75,17.25,15.7574,17.25,17L17.25,18.188299999999998C17.25,18.206400000000002,17.2369,18.2218,17.219,18.2247C13.10028,18.897199999999998,8.89972,18.897199999999998,4.78097,18.2247C4.76311,18.2218,4.75,18.206400000000002,4.75,18.188299999999998L4.75,17Z" fill-rule="evenodd" fill="#000000" fill-opacity="1"/></g></g></svg>